<?xml version="1.0" encoding="utf-8"?>
<!-- Generator: Adobe Illustrator 19.2.0, SVG Export Plug-In . SVG Version: 6.00 Build 0)  -->
<!DOCTYPE svg PUBLIC "-//W3C//DTD SVG 1.1//EN" "http://www.w3.org/Graphics/SVG/1.1/DTD/svg11.dtd">
<svg version="1.1" id="Layer_1" xmlns="http://www.w3.org/2000/svg" xmlns:xlink="http://www.w3.org/1999/xlink" x="0px" y="0px"
	 viewBox="0 0 430 385" style="enable-background:new 0 0 430 385;" xml:space="preserve">
<style type="text/css">
	.st0{display:none;}
	.st1{fill:#FFFFFF;}
	.st2{fill:#005352;}
	.st3{fill:#FDC46E;}
</style>
<g id="sketches" class="st0">
</g>
<g id="books">
</g>
<g id="Layer_5">
</g>
<g id="white">
</g>
<g id="blue_lines">
</g>
<g>
	<path class="st1" d="M172.3,100c-0.2-0.1-0.3-0.3-0.3-0.5l0,0L135,48.3v43.4l71.2,55.2L172.3,100z"/>
	<polygon class="st1" points="205.2,150 201.2,150 96,106.6 96,65.3 	"/>
	<polygon class="st1" points="175.8,44.5 174.8,98.4 209.4,146.3 	"/>
	<polygon class="st1" points="252.6,45.4 220.2,143.7 253.6,97.4 	"/>
	<path class="st1" d="M292.1,92.6c-0.1-0.2-0.1-0.4-0.1-0.6V49.2L220.8,148L292.1,92.6z"/>
	<polygon class="st1" points="331,66.3 331,107.6 228.5,150 223.1,150 	"/>
	<path class="st2" d="M171.9,99.5c0.1,0.2,0.2,0.3,0.3,0.5L171.9,99.5z"/>
	<path class="st3" d="M370.3,93v203.5c0,0.5-0.3,0.8-0.7,1L231,353.1V150h-2.5L331,107.6l1.8-0.7l1.2-0.5L368.8,92
		C369.5,91.7,370.3,92.3,370.3,93z"/>
	<path class="st3" d="M201.2,150H199v203.3L59.8,297.5c-0.4-0.2-0.7-0.5-0.7-1V93c0-0.7,0.8-1.3,1.5-1L93,105.4l1.5,0.6l1.5,0.6
		L201.2,150z"/>
	<path class="st2" d="M333.2,61.8c-0.5-0.2-1.1-0.2-1.6,0.2L295,90.4V44.6c0-0.6-0.4-1.2-1-1.4s-1.3,0-1.7,0.5l-35.8,49.6l-1.1-56.8
		c0-0.7-0.6-1.3-1.3-1.5c-0.7-0.1-1.4,0.3-1.6,1l-36.7,111.2V32c0-0.8-0.7-1.5-1.5-1.5s-1.5,0.7-1.5,1.5v115.1L175.9,35.2
		c-0.2-0.7-0.9-1.1-1.6-1c-0.7,0.1-1.3,0.7-1.3,1.5l-1.1,58.7l-37.2-51.5c-0.4-0.5-1.1-0.8-1.7-0.5c-0.6,0.2-1,0.8-1,1.4v45.7
		L95.4,61c-0.5-0.4-1.1-0.4-1.6-0.2c-0.5,0.2-0.8,0.8-0.8,1.4v43.2l1.5,0.6l1.5,0.6V65.3L205.2,150H199v204h32V150h-7.9L331,66.3
		v41.4l1.8-0.7l1.2-0.5V63.2C334,62.6,333.7,62.1,333.2,61.8z M252.6,45.4l1,52l-33.4,46.4L252.6,45.4z M175.8,44.5l33.6,101.8
		l-34.6-47.9L175.8,44.5z M135,91.7V48.3l36.9,51.1l0,0l0.3,0.5l33.9,47L135,91.7z M227,154v196h-24V154H227z M220.8,148L292,49.2
		V92c0,0.2,0,0.4,0.1,0.6L220.8,148z"/>
	<rect x="203" y="154" class="st1" width="24" height="196"/>
</g>
</svg>
