<?xml version="1.0" encoding="utf-8"?>
<!-- Generator: Adobe Illustrator 19.2.0, SVG Export Plug-In . SVG Version: 6.00 Build 0)  -->
<!DOCTYPE svg PUBLIC "-//W3C//DTD SVG 1.1//EN" "http://www.w3.org/Graphics/SVG/1.1/DTD/svg11.dtd">
<svg version="1.1" id="Layer_1" xmlns="http://www.w3.org/2000/svg" xmlns:xlink="http://www.w3.org/1999/xlink" x="0px" y="0px"
	 viewBox="0 0 432.6 385" style="enable-background:new 0 0 432.6 385;" xml:space="preserve">
<style type="text/css">
	.st0{display:none;}
	.st1{fill:#FFFFFF;}
	.st2{fill:#005352;}
	.st3{fill:#FDC46E;}
	.st4{enable-background:new    ;}
</style>
<g id="sketches" class="st0">
	
		<image style="display:inline;overflow:visible;opacity:0.44;enable-background:new    ;" width="1010" height="682" xlink:href="../../../../../Screen Shot 2016-02-16 at 11.53.32 PM.png"  transform="matrix(0.6948 0 0 0.6948 -457.0253 -30.8664)">
	</image>
</g>
<g id="books">
</g>
<g id="yellow_solids">
</g>
<g id="Layer_5">
</g>
<g id="white">
</g>
<g id="blue_lines">
	<g>
		<path class="st1" d="M182.2,167c-2.5,1.2-5.6,1.3-8.8,0.3c-0.3-0.1-0.5-0.2-0.8-0.3H182.2z"/>
		<path class="st1" d="M123.1,164H89.6v1.1c-4.8-9.3-8.9-18.2-12.3-26.1h33.9c0.8,1.9,1.6,3.8,2.5,5.9
			C116.2,150.5,119.3,156.9,123.1,164z"/>
		<path class="st1" d="M137.2,188h-34.5c-4.4-7-8.5-14.1-12.1-21h34.1C128.2,173.5,132.4,180.5,137.2,188z"/>
		<path class="st1" d="M172.1,188h-11.1c-1.7-0.7-3.6-0.8-5.2,0h-15c-4.8-7.3-9-14.4-12.7-21h32C163.6,173.5,167.6,180.6,172.1,188z
			"/>
		<path class="st1" d="M153.5,211H119c-5.2-6.5-10-13.2-14.4-20h34.6C143.5,197.4,148.2,204.1,153.5,211z"/>
		<path class="st1" d="M187.5,211h-30.3c-5.3-6.9-10.1-13.5-14.4-20h10.1c-1,2.3-0.7,5.2,1,7.6c2.5,3.4,6.8,4.4,9.8,2.3
			c2.9-2.1,3.4-6.5,1-9.9h9.3C178,197.4,182.5,204.1,187.5,211z"/>
		<path class="st1" d="M171,232.4l-31.8,0.1c-6.3-5.7-12.2-11.9-17.7-18.5h34.3C160.4,220,165.5,226.1,171,232.4z"/>
		<path class="st1" d="M204.2,232.3l-29.2,0.1c-5.6-6.2-10.7-12.4-15.4-18.4h30.2C194.2,220,199,226.1,204.2,232.3z"/>
		<path class="st1" d="M223,211h-31.7c-5-6.8-9.6-13.5-13.7-20h32C213.5,197.4,218,204.1,223,211z"/>
		<path class="st1" d="M239.5,232.2l-31.3,0.1c-5.3-6.2-10.2-12.3-14.7-18.3h31.6C229.5,220,234.3,226,239.5,232.2z"/>
		<path class="st1" d="M273.3,232.1l-29.9,0.1c-5.2-6.1-10.1-12.2-14.5-18.2h30.3C263.5,219.9,268.2,226,273.3,232.1z"/>
		<path class="st1" d="M276.1,235.1l-0.1,0.1c0,0-0.1-0.1-0.1-0.1H276.1z"/>
		<path class="st1" d="M306.5,235l-0.2,0.2c0-0.1-0.1-0.1-0.2-0.2L306.5,235z"/>
		<path class="st1" d="M307.8,232.3l-0.5-0.3h0.3C307.6,232.1,307.7,232.2,307.8,232.3z"/>
		<path class="st1" d="M364.3,312.8h-321c-1.6,0-3.1-1.3-3.3-2.9L8.4,87c14.2,49.8,32,86.2,47.8,111.6c4.8,7.7,9.4,14.4,13.8,20.2
			c23.2,31,41.7,42.3,42.5,42.7c0.3,0.2,0.7,0.3,1,0.3H357L364.3,312.8z"/>
		<path class="st2" d="M307.5,232h-0.3l0.5,0.3C307.7,232.2,307.6,232.1,307.5,232z M146,135.7c0,0.1,0.1,0.2,0.1,0.3h0.4L146,135.7
			z"/>
	</g>
	<g>
		<path class="st3" d="M324.3,284H69.2l-13-85.5c4.8,7.7,9.4,14.4,13.8,20.2c23.2,31,41.7,42.3,42.5,42.7c0.3,0.2,0.7,0.3,1,0.3
			h207.4L324.3,284z"/>
	</g>
	<g>
		<polygon class="st1" points="138.2,81.5 138.2,94.6 136.1,94.6 129.3,86.2 129.3,94.6 126.8,94.6 126.8,81.5 128.7,81.5 
			135.6,90.1 135.6,81.5 		"/>
		<path class="st1" d="M152.6,88.1c0,0.9-0.2,1.7-0.5,2.5c-0.3,0.8-0.8,1.5-1.3,2.1c-0.6,0.6-1.2,1.1-2,1.5
			c-0.8,0.4-1.6,0.5-2.5,0.5c-0.9,0-1.8-0.2-2.5-0.6c-0.8-0.4-1.4-0.9-2-1.5c-0.5-0.6-1-1.3-1.3-2.2c-0.3-0.8-0.4-1.6-0.4-2.5
			c0-0.9,0.2-1.7,0.5-2.5c0.3-0.8,0.8-1.5,1.3-2.1c0.6-0.6,1.2-1.1,2-1.5c0.8-0.4,1.6-0.6,2.5-0.6c0.9,0,1.8,0.2,2.5,0.6
			c0.8,0.4,1.4,0.9,2,1.5c0.5,0.6,1,1.3,1.3,2.2C152.5,86.4,152.6,87.2,152.6,88.1z"/>
		<polygon class="st1" points="165.2,81.5 160.1,94.6 158,94.6 152.8,81.5 155.5,81.5 159,91.4 162.6,81.5 		"/>
		<polygon class="st1" points="175.8,92.4 175.8,94.6 166.6,94.6 166.6,81.5 175.6,81.5 175.6,83.7 169.2,83.7 169.2,86.9 
			174.7,86.9 174.7,88.9 169.2,88.9 169.2,92.4 		"/>
		<polygon class="st1" points="191.1,81.5 191.1,94.6 188.6,94.6 188.6,85.9 185.2,92.4 183.8,92.4 180.4,85.9 180.4,94.6 
			177.8,94.6 177.8,81.5 180.6,81.5 184.5,88.9 188.4,81.5 		"/>
		<path class="st1" d="M204.5,91.2c0,0.6-0.1,1-0.3,1.5c-0.2,0.4-0.5,0.8-0.9,1.1c-0.4,0.3-0.8,0.5-1.4,0.7
			c-0.5,0.1-1.1,0.2-1.6,0.2h-6.4V81.5h7c0.5,0,0.9,0.1,1.2,0.3s0.7,0.5,0.9,0.8c0.3,0.3,0.5,0.7,0.6,1.1c0.1,0.4,0.2,0.8,0.2,1.2
			c0,0.6-0.2,1.2-0.5,1.8s-0.8,1-1.4,1.2c0.8,0.2,1.4,0.6,1.8,1.2C204.3,89.6,204.5,90.3,204.5,91.2z"/>
		<polygon class="st1" points="215.6,92.4 215.6,94.6 206.5,94.6 206.5,81.5 215.5,81.5 215.5,83.7 209,83.7 209,86.9 214.6,86.9 
			214.6,88.9 209,88.9 209,92.4 		"/>
		<path class="st1" d="M228.4,94.6h-2.9l-2.8-4.4h-2.5v4.4h-2.6V81.5h5.8c0.6,0,1.2,0.1,1.7,0.4c0.5,0.2,1,0.6,1.3,1
			c0.4,0.4,0.7,0.9,0.9,1.4c0.2,0.5,0.3,1,0.3,1.6c0,0.9-0.2,1.6-0.6,2.3c-0.4,0.7-1,1.2-1.7,1.5L228.4,94.6z"/>
		<path class="st1" d="M324.4,164c0.1,0.2,0.2,0.3,0.2,0.5V164H324.4z M146,135.7c0,0.1,0.1,0.2,0.1,0.3h0.4L146,135.7z
			 M221.2,145.8c-0.9-2.4-1.8-4.6-2.6-6.8h-31.9c0.6,1.6,1.3,3.3,2,5c0.8,1.9,1.6,3.9,2.5,5.9v0c1.9,4.5,4.1,9.2,6.6,14.1h26.9
			l-0.1,0c-1-0.5-1.3-1.8-0.8-2.7c0.5-1,1.7-1.3,2.7-0.8l1.2,0.6C225.2,155.5,223,150.4,221.2,145.8z M230.6,167h-0.3l0.5,0.2
			C230.7,167.2,230.6,167.1,230.6,167z M238.6,167l14.3,7.8l5.1-7.8H238.6z M310.6,139h-27.2c2.7,7.4,6.2,15.8,10.6,25h27.1
			C317.3,156.1,313.8,147.7,310.6,139z M301.8,108.1h-27.1c0.6,3.5,2.6,13.5,7.6,27.9h27.3C306.5,127,303.8,117.7,301.8,108.1z
			 M251.5,145.8c-0.9-2.4-1.8-4.6-2.6-6.8h-27c2.6,7.3,6,15.5,10.4,24.5l0.8,0.5h26.3C256.2,157.3,253.6,151.2,251.5,145.8z
			 M264.7,164h25.9c-3.2-6.7-5.8-12.8-7.9-18.2c-0.9-2.4-1.8-4.6-2.6-6.8h-27.9c2.5,6.7,5.5,14.3,9.4,22.5l0.2-0.4
			c0.6-0.9,1.8-1.2,2.8-0.6c0.9,0.6,1.2,1.8,0.6,2.8L264.7,164z M210.2,108.1h-33c0.7,3.6,3,13.6,8.4,27.9h32
			C212.5,121.2,210.7,111.2,210.2,108.1z M240.5,108.1h-27.3c0.6,3.5,2.6,13.5,7.6,27.9h27.1C242.8,121.2,241,111.2,240.5,108.1z
			 M271.7,108.1h-28.2c0.6,3.5,2.6,13.5,7.6,27.9h28C274,121.2,272.2,111.2,271.7,108.1z M172.6,167c0.3,0.1,0.5,0.2,0.8,0.3
			c3.2,1,6.3,0.9,8.8-0.3H172.6z M259.2,214h-30.3c4.5,6,9.3,12,14.5,18.2l29.9-0.1C268.2,226,263.5,219.9,259.2,214z M113.7,144.9
			c-0.9-2-1.7-4-2.5-5.9H77.3c3.4,7.9,7.5,16.8,12.3,26.1V164h33.5C119.3,156.9,116.2,150.5,113.7,144.9z M124.7,167H90.6
			c3.6,6.9,7.7,14,12.1,21h34.5C132.4,180.5,128.2,173.5,124.7,167z M174,191h-9.3c2.4,3.4,1.9,7.8-1,9.9c-3,2.1-7.3,1.1-9.8-2.3
			c-1.7-2.4-2-5.3-1-7.6h-10.1c4.3,6.5,9.1,13.1,14.4,20h30.3C182.5,204.1,178,197.4,174,191z M139.2,191h-34.6
			c4.4,6.8,9.2,13.5,14.4,20h34.4C148.2,204.1,143.5,197.4,139.2,191z M189.8,214h-30.2c4.7,6,9.9,12.2,15.4,18.4l29.2-0.1
			C199,226.1,194.2,220,189.8,214z M155.8,214h-34.3c5.5,6.6,11.4,12.8,17.7,18.5l31.8-0.1C165.5,226.1,160.4,220,155.8,214z
			 M209.5,191h-32c4.1,6.5,8.7,13.2,13.7,20H223C218,204.1,213.5,197.4,209.5,191z M225.1,214h-31.6c4.5,6,9.4,12.1,14.7,18.3
			l31.3-0.1C234.3,226,229.5,220,225.1,214z M160.2,167h-32c3.7,6.6,7.9,13.7,12.7,21h15c1.6-0.8,3.5-0.7,5.2,0h11.1
			C167.6,180.6,163.6,173.5,160.2,167z M174.1,108.1h-33.7c0.8,3.6,3.4,13.6,9,27.9h8.2c0.8-1,1.7-1.8,2.7-2.5
			c2.4-1.7,5.3-2.6,8.4-2.6c1.8,0,3.6,0.3,5.5,0.9c2.8,0.9,5.4,2.3,7.8,4.3h0.3C176.8,121.2,174.7,111.2,174.1,108.1z M173,135.5
			c-3.4-1.1-6.6-0.9-9.2,0.5h10.4C173.8,135.8,173.4,135.7,173,135.5z M275.9,235.1C275.9,235.1,275.9,235.2,275.9,235.1h0.2H275.9z
			 M324.4,164c0.1,0.2,0.2,0.3,0.2,0.5V164H324.4z M146,135.7c0,0.1,0.1,0.2,0.1,0.3h0.4L146,135.7z M221.2,145.8
			c-0.9-2.4-1.8-4.6-2.6-6.8h-31.9c0.6,1.6,1.3,3.3,2,5c0.8,1.9,1.6,3.9,2.5,5.9v0c1.9,4.5,4.1,9.2,6.6,14.1h26.9l-0.1,0
			c-1-0.5-1.3-1.8-0.8-2.7c0.5-1,1.7-1.3,2.7-0.8l1.2,0.6C225.2,155.5,223,150.4,221.2,145.8z M230.6,167h-0.3l0.5,0.2
			C230.7,167.2,230.6,167.1,230.6,167z M238.6,167l14.3,7.8l5.1-7.8H238.6z M310.6,139h-27.2c2.7,7.4,6.2,15.8,10.6,25h27.1
			C317.3,156.1,313.8,147.7,310.6,139z M301.8,108.1h-27.1c0.6,3.5,2.6,13.5,7.6,27.9h27.3C306.5,127,303.8,117.7,301.8,108.1z
			 M251.5,145.8c-0.9-2.4-1.8-4.6-2.6-6.8h-27c2.6,7.3,6,15.5,10.4,24.5l0.8,0.5h26.3C256.2,157.3,253.6,151.2,251.5,145.8z
			 M264.7,164h25.9c-3.2-6.7-5.8-12.8-7.9-18.2c-0.9-2.4-1.8-4.6-2.6-6.8h-27.9c2.5,6.7,5.5,14.3,9.4,22.5l0.2-0.4
			c0.6-0.9,1.8-1.2,2.8-0.6c0.9,0.6,1.2,1.8,0.6,2.8L264.7,164z M210.2,108.1h-33c0.7,3.6,3,13.6,8.4,27.9h32
			C212.5,121.2,210.7,111.2,210.2,108.1z M240.5,108.1h-27.3c0.6,3.5,2.6,13.5,7.6,27.9h27.1C242.8,121.2,241,111.2,240.5,108.1z
			 M271.7,108.1h-28.2c0.6,3.5,2.6,13.5,7.6,27.9h28C274,121.2,272.2,111.2,271.7,108.1z M172.6,167c0.3,0.1,0.5,0.2,0.8,0.3
			c3.2,1,6.3,0.9,8.8-0.3H172.6z M259.2,214h-30.3c4.5,6,9.3,12,14.5,18.2l29.9-0.1C268.2,226,263.5,219.9,259.2,214z M113.7,144.9
			c-0.9-2-1.7-4-2.5-5.9H77.3c3.4,7.9,7.5,16.8,12.3,26.1V164h33.5C119.3,156.9,116.2,150.5,113.7,144.9z M124.7,167H90.6
			c3.6,6.9,7.7,14,12.1,21h34.5C132.4,180.5,128.2,173.5,124.7,167z M174,191h-9.3c2.4,3.4,1.9,7.8-1,9.9c-3,2.1-7.3,1.1-9.8-2.3
			c-1.7-2.4-2-5.3-1-7.6h-10.1c4.3,6.5,9.1,13.1,14.4,20h30.3C182.5,204.1,178,197.4,174,191z M139.2,191h-34.6
			c4.4,6.8,9.2,13.5,14.4,20h34.4C148.2,204.1,143.5,197.4,139.2,191z M189.8,214h-30.2c4.7,6,9.9,12.2,15.4,18.4l29.2-0.1
			C199,226.1,194.2,220,189.8,214z M155.8,214h-34.3c5.5,6.6,11.4,12.8,17.7,18.5l31.8-0.1C165.5,226.1,160.4,220,155.8,214z
			 M209.5,191h-32c4.1,6.5,8.7,13.2,13.7,20H223C218,204.1,213.5,197.4,209.5,191z M225.1,214h-31.6c4.5,6,9.4,12.1,14.7,18.3
			l31.3-0.1C234.3,226,229.5,220,225.1,214z M160.2,167h-32c3.7,6.6,7.9,13.7,12.7,21h15c1.6-0.8,3.5-0.7,5.2,0h11.1
			C167.6,180.6,163.6,173.5,160.2,167z M174.1,108.1h-33.7c0.8,3.6,3.4,13.6,9,27.9h8.2c0.8-1,1.7-1.8,2.7-2.5
			c2.4-1.7,5.3-2.6,8.4-2.6c1.8,0,3.6,0.3,5.5,0.9c2.8,0.9,5.4,2.3,7.8,4.3h0.3C176.8,121.2,174.7,111.2,174.1,108.1z M173,135.5
			c-3.4-1.1-6.6-0.9-9.2,0.5h10.4C173.8,135.8,173.4,135.7,173,135.5z M275.9,235.1C275.9,235.1,275.9,235.2,275.9,235.1h0.2H275.9z
			 M324.4,164c0.1,0.2,0.2,0.3,0.2,0.5V164H324.4z M146,135.7c0,0.1,0.1,0.2,0.1,0.3h0.4L146,135.7z M221.2,145.8
			c-0.9-2.4-1.8-4.6-2.6-6.8h-31.9c0.6,1.6,1.3,3.3,2,5c0.8,1.9,1.6,3.9,2.5,5.9v0c1.9,4.5,4.1,9.2,6.6,14.1h26.9l-0.1,0
			c-1-0.5-1.3-1.8-0.8-2.7c0.5-1,1.7-1.3,2.7-0.8l1.2,0.6C225.2,155.5,223,150.4,221.2,145.8z M230.6,167h-0.3l0.5,0.2
			C230.7,167.2,230.6,167.1,230.6,167z M238.6,167l14.3,7.8l5.1-7.8H238.6z M310.6,139h-27.2c2.7,7.4,6.2,15.8,10.6,25h27.1
			C317.3,156.1,313.8,147.7,310.6,139z M301.8,108.1h-27.1c0.6,3.5,2.6,13.5,7.6,27.9h27.3C306.5,127,303.8,117.7,301.8,108.1z
			 M251.5,145.8c-0.9-2.4-1.8-4.6-2.6-6.8h-27c2.6,7.3,6,15.5,10.4,24.5l0.8,0.5h26.3C256.2,157.3,253.6,151.2,251.5,145.8z
			 M264.7,164h25.9c-3.2-6.7-5.8-12.8-7.9-18.2c-0.9-2.4-1.8-4.6-2.6-6.8h-27.9c2.5,6.7,5.5,14.3,9.4,22.5l0.2-0.4
			c0.6-0.9,1.8-1.2,2.8-0.6c0.9,0.6,1.2,1.8,0.6,2.8L264.7,164z M210.2,108.1h-33c0.7,3.6,3,13.6,8.4,27.9h32
			C212.5,121.2,210.7,111.2,210.2,108.1z M240.5,108.1h-27.3c0.6,3.5,2.6,13.5,7.6,27.9h27.1C242.8,121.2,241,111.2,240.5,108.1z
			 M271.7,108.1h-28.2c0.6,3.5,2.6,13.5,7.6,27.9h28C274,121.2,272.2,111.2,271.7,108.1z M172.6,167c0.3,0.1,0.5,0.2,0.8,0.3
			c3.2,1,6.3,0.9,8.8-0.3H172.6z M259.2,214h-30.3c4.5,6,9.3,12,14.5,18.2l29.9-0.1C268.2,226,263.5,219.9,259.2,214z M113.7,144.9
			c-0.9-2-1.7-4-2.5-5.9H77.3c3.4,7.9,7.5,16.8,12.3,26.1V164h33.5C119.3,156.9,116.2,150.5,113.7,144.9z M124.7,167H90.6
			c3.6,6.9,7.7,14,12.1,21h34.5C132.4,180.5,128.2,173.5,124.7,167z M174,191h-9.3c2.4,3.4,1.9,7.8-1,9.9c-3,2.1-7.3,1.1-9.8-2.3
			c-1.7-2.4-2-5.3-1-7.6h-10.1c4.3,6.5,9.1,13.1,14.4,20h30.3C182.5,204.1,178,197.4,174,191z M139.2,191h-34.6
			c4.4,6.8,9.2,13.5,14.4,20h34.4C148.2,204.1,143.5,197.4,139.2,191z M189.8,214h-30.2c4.7,6,9.9,12.2,15.4,18.4l29.2-0.1
			C199,226.1,194.2,220,189.8,214z M155.8,214h-34.3c5.5,6.6,11.4,12.8,17.7,18.5l31.8-0.1C165.5,226.1,160.4,220,155.8,214z
			 M209.5,191h-32c4.1,6.5,8.7,13.2,13.7,20H223C218,204.1,213.5,197.4,209.5,191z M225.1,214h-31.6c4.5,6,9.4,12.1,14.7,18.3
			l31.3-0.1C234.3,226,229.5,220,225.1,214z M160.2,167h-32c3.7,6.6,7.9,13.7,12.7,21h15c1.6-0.8,3.5-0.7,5.2,0h11.1
			C167.6,180.6,163.6,173.5,160.2,167z M174.1,108.1h-33.7c0.8,3.6,3.4,13.6,9,27.9h8.2c0.8-1,1.7-1.8,2.7-2.5
			c2.4-1.7,5.3-2.6,8.4-2.6c1.8,0,3.6,0.3,5.5,0.9c2.8,0.9,5.4,2.3,7.8,4.3h0.3C176.8,121.2,174.7,111.2,174.1,108.1z M173,135.5
			c-3.4-1.1-6.6-0.9-9.2,0.5h10.4C173.8,135.8,173.4,135.7,173,135.5z M275.9,235.1C275.9,235.1,275.9,235.2,275.9,235.1h0.2H275.9z
			 M324.4,164c0.1,0.2,0.2,0.3,0.2,0.5V164H324.4z M146,135.7c0,0.1,0.1,0.2,0.1,0.3h0.4L146,135.7z M221.2,145.8
			c-0.9-2.4-1.8-4.6-2.6-6.8h-31.9c0.6,1.6,1.3,3.3,2,5c0.8,1.9,1.6,3.9,2.5,5.9v0c1.9,4.5,4.1,9.2,6.6,14.1h26.9l-0.1,0
			c-1-0.5-1.3-1.8-0.8-2.7c0.5-1,1.7-1.3,2.7-0.8l1.2,0.6C225.2,155.5,223,150.4,221.2,145.8z M230.6,167h-0.3l0.5,0.2
			C230.7,167.2,230.6,167.1,230.6,167z M238.6,167l14.3,7.8l5.1-7.8H238.6z M310.6,139h-27.2c2.7,7.4,6.2,15.8,10.6,25h27.1
			C317.3,156.1,313.8,147.7,310.6,139z M301.8,108.1h-27.1c0.6,3.5,2.6,13.5,7.6,27.9h27.3C306.5,127,303.8,117.7,301.8,108.1z
			 M251.5,145.8c-0.9-2.4-1.8-4.6-2.6-6.8h-27c2.6,7.3,6,15.5,10.4,24.5l0.8,0.5h26.3C256.2,157.3,253.6,151.2,251.5,145.8z
			 M264.7,164h25.9c-3.2-6.7-5.8-12.8-7.9-18.2c-0.9-2.4-1.8-4.6-2.6-6.8h-27.9c2.5,6.7,5.5,14.3,9.4,22.5l0.2-0.4
			c0.6-0.9,1.8-1.2,2.8-0.6c0.9,0.6,1.2,1.8,0.6,2.8L264.7,164z M210.2,108.1h-33c0.7,3.6,3,13.6,8.4,27.9h32
			C212.5,121.2,210.7,111.2,210.2,108.1z M240.5,108.1h-27.3c0.6,3.5,2.6,13.5,7.6,27.9h27.1C242.8,121.2,241,111.2,240.5,108.1z
			 M271.7,108.1h-28.2c0.6,3.5,2.6,13.5,7.6,27.9h28C274,121.2,272.2,111.2,271.7,108.1z M172.6,167c0.3,0.1,0.5,0.2,0.8,0.3
			c3.2,1,6.3,0.9,8.8-0.3H172.6z M259.2,214h-30.3c4.5,6,9.3,12,14.5,18.2l29.9-0.1C268.2,226,263.5,219.9,259.2,214z M113.7,144.9
			c-0.9-2-1.7-4-2.5-5.9H77.3c3.4,7.9,7.5,16.8,12.3,26.1V164h33.5C119.3,156.9,116.2,150.5,113.7,144.9z M124.7,167H90.6
			c3.6,6.9,7.7,14,12.1,21h34.5C132.4,180.5,128.2,173.5,124.7,167z M174,191h-9.3c2.4,3.4,1.9,7.8-1,9.9c-3,2.1-7.3,1.1-9.8-2.3
			c-1.7-2.4-2-5.3-1-7.6h-10.1c4.3,6.5,9.1,13.1,14.4,20h30.3C182.5,204.1,178,197.4,174,191z M139.2,191h-34.6
			c4.4,6.8,9.2,13.5,14.4,20h34.4C148.2,204.1,143.5,197.4,139.2,191z M189.8,214h-30.2c4.7,6,9.9,12.2,15.4,18.4l29.2-0.1
			C199,226.1,194.2,220,189.8,214z M155.8,214h-34.3c5.5,6.6,11.4,12.8,17.7,18.5l31.8-0.1C165.5,226.1,160.4,220,155.8,214z
			 M209.5,191h-32c4.1,6.5,8.7,13.2,13.7,20H223C218,204.1,213.5,197.4,209.5,191z M225.1,214h-31.6c4.5,6,9.4,12.1,14.7,18.3
			l31.3-0.1C234.3,226,229.5,220,225.1,214z M160.2,167h-32c3.7,6.6,7.9,13.7,12.7,21h15c1.6-0.8,3.5-0.7,5.2,0h11.1
			C167.6,180.6,163.6,173.5,160.2,167z M174.1,108.1h-33.7c0.8,3.6,3.4,13.6,9,27.9h8.2c0.8-1,1.7-1.8,2.7-2.5
			c2.4-1.7,5.3-2.6,8.4-2.6c1.8,0,3.6,0.3,5.5,0.9c2.8,0.9,5.4,2.3,7.8,4.3h0.3C176.8,121.2,174.7,111.2,174.1,108.1z M173,135.5
			c-3.4-1.1-6.6-0.9-9.2,0.5h10.4C173.8,135.8,173.4,135.7,173,135.5z M275.9,235.1C275.9,235.1,275.9,235.2,275.9,235.1h0.2H275.9z
			 M324.4,164c0.1,0.2,0.2,0.3,0.2,0.5V164H324.4z M146,135.7c0,0.1,0.1,0.2,0.1,0.3h0.4L146,135.7z M221.2,145.8
			c-0.9-2.4-1.8-4.6-2.6-6.8h-31.9c0.6,1.6,1.3,3.3,2,5c0.8,1.9,1.6,3.9,2.5,5.9v0c1.9,4.5,4.1,9.2,6.6,14.1h26.9l-0.1,0
			c-1-0.5-1.3-1.8-0.8-2.7c0.5-1,1.7-1.3,2.7-0.8l1.2,0.6C225.2,155.5,223,150.4,221.2,145.8z M230.6,167h-0.3l0.5,0.2
			C230.7,167.2,230.6,167.1,230.6,167z M238.6,167l14.3,7.8l5.1-7.8H238.6z M310.6,139h-27.2c2.7,7.4,6.2,15.8,10.6,25h27.1
			C317.3,156.1,313.8,147.7,310.6,139z M301.8,108.1h-27.1c0.6,3.5,2.6,13.5,7.6,27.9h27.3C306.5,127,303.8,117.7,301.8,108.1z
			 M251.5,145.8c-0.9-2.4-1.8-4.6-2.6-6.8h-27c2.6,7.3,6,15.5,10.4,24.5l0.8,0.5h26.3C256.2,157.3,253.6,151.2,251.5,145.8z
			 M264.7,164h25.9c-3.2-6.7-5.8-12.8-7.9-18.2c-0.9-2.4-1.8-4.6-2.6-6.8h-27.9c2.5,6.7,5.5,14.3,9.4,22.5l0.2-0.4
			c0.6-0.9,1.8-1.2,2.8-0.6c0.9,0.6,1.2,1.8,0.6,2.8L264.7,164z M210.2,108.1h-33c0.7,3.6,3,13.6,8.4,27.9h32
			C212.5,121.2,210.7,111.2,210.2,108.1z M240.5,108.1h-27.3c0.6,3.5,2.6,13.5,7.6,27.9h27.1C242.8,121.2,241,111.2,240.5,108.1z
			 M271.7,108.1h-28.2c0.6,3.5,2.6,13.5,7.6,27.9h28C274,121.2,272.2,111.2,271.7,108.1z M172.6,167c0.3,0.1,0.5,0.2,0.8,0.3
			c3.2,1,6.3,0.9,8.8-0.3H172.6z M259.2,214h-30.3c4.5,6,9.3,12,14.5,18.2l29.9-0.1C268.2,226,263.5,219.9,259.2,214z M113.7,144.9
			c-0.9-2-1.7-4-2.5-5.9H77.3c3.4,7.9,7.5,16.8,12.3,26.1V164h33.5C119.3,156.9,116.2,150.5,113.7,144.9z M124.7,167H90.6
			c3.6,6.9,7.7,14,12.1,21h34.5C132.4,180.5,128.2,173.5,124.7,167z M174,191h-9.3c2.4,3.4,1.9,7.8-1,9.9c-3,2.1-7.3,1.1-9.8-2.3
			c-1.7-2.4-2-5.3-1-7.6h-10.1c4.3,6.5,9.1,13.1,14.4,20h30.3C182.5,204.1,178,197.4,174,191z M139.2,191h-34.6
			c4.4,6.8,9.2,13.5,14.4,20h34.4C148.2,204.1,143.5,197.4,139.2,191z M189.8,214h-30.2c4.7,6,9.9,12.2,15.4,18.4l29.2-0.1
			C199,226.1,194.2,220,189.8,214z M155.8,214h-34.3c5.5,6.6,11.4,12.8,17.7,18.5l31.8-0.1C165.5,226.1,160.4,220,155.8,214z
			 M209.5,191h-32c4.1,6.5,8.7,13.2,13.7,20H223C218,204.1,213.5,197.4,209.5,191z M225.1,214h-31.6c4.5,6,9.4,12.1,14.7,18.3
			l31.3-0.1C234.3,226,229.5,220,225.1,214z M160.2,167h-32c3.7,6.6,7.9,13.7,12.7,21h15c1.6-0.8,3.5-0.7,5.2,0h11.1
			C167.6,180.6,163.6,173.5,160.2,167z M174.1,108.1h-33.7c0.8,3.6,3.4,13.6,9,27.9h8.2c0.8-1,1.7-1.8,2.7-2.5
			c2.4-1.7,5.3-2.6,8.4-2.6c1.8,0,3.6,0.3,5.5,0.9c2.8,0.9,5.4,2.3,7.8,4.3h0.3C176.8,121.2,174.7,111.2,174.1,108.1z M173,135.5
			c-3.4-1.1-6.6-0.9-9.2,0.5h10.4C173.8,135.8,173.4,135.7,173,135.5z M275.9,235.1C275.9,235.1,275.9,235.2,275.9,235.1h0.2H275.9z
			 M324.4,164c0.1,0.2,0.2,0.3,0.2,0.5V164H324.4z M146,135.7c0,0.1,0.1,0.2,0.1,0.3h0.4L146,135.7z M221.2,145.8
			c-0.9-2.4-1.8-4.6-2.6-6.8h-31.9c0.6,1.6,1.3,3.3,2,5c0.8,1.9,1.6,3.9,2.5,5.9v0c1.9,4.5,4.1,9.2,6.6,14.1h26.9l-0.1,0
			c-1-0.5-1.3-1.8-0.8-2.7c0.5-1,1.7-1.3,2.7-0.8l1.2,0.6C225.2,155.5,223,150.4,221.2,145.8z M230.6,167h-0.3l0.5,0.2
			C230.7,167.2,230.6,167.1,230.6,167z M238.6,167l14.3,7.8l5.1-7.8H238.6z M310.6,139h-27.2c2.7,7.4,6.2,15.8,10.6,25h27.1
			C317.3,156.1,313.8,147.7,310.6,139z M301.8,108.1h-27.1c0.6,3.5,2.6,13.5,7.6,27.9h27.3C306.5,127,303.8,117.7,301.8,108.1z
			 M251.5,145.8c-0.9-2.4-1.8-4.6-2.6-6.8h-27c2.6,7.3,6,15.5,10.4,24.5l0.8,0.5h26.3C256.2,157.3,253.6,151.2,251.5,145.8z
			 M264.7,164h25.9c-3.2-6.7-5.8-12.8-7.9-18.2c-0.9-2.4-1.8-4.6-2.6-6.8h-27.9c2.5,6.7,5.5,14.3,9.4,22.5l0.2-0.4
			c0.6-0.9,1.8-1.2,2.8-0.6c0.9,0.6,1.2,1.8,0.6,2.8L264.7,164z M210.2,108.1h-33c0.7,3.6,3,13.6,8.4,27.9h32
			C212.5,121.2,210.7,111.2,210.2,108.1z M240.5,108.1h-27.3c0.6,3.5,2.6,13.5,7.6,27.9h27.1C242.8,121.2,241,111.2,240.5,108.1z
			 M271.7,108.1h-28.2c0.6,3.5,2.6,13.5,7.6,27.9h28C274,121.2,272.2,111.2,271.7,108.1z M172.6,167c0.3,0.1,0.5,0.2,0.8,0.3
			c3.2,1,6.3,0.9,8.8-0.3H172.6z M259.2,214h-30.3c4.5,6,9.3,12,14.5,18.2l29.9-0.1C268.2,226,263.5,219.9,259.2,214z M113.7,144.9
			c-0.9-2-1.7-4-2.5-5.9H77.3c3.4,7.9,7.5,16.8,12.3,26.1V164h33.5C119.3,156.9,116.2,150.5,113.7,144.9z M124.7,167H90.6
			c3.6,6.9,7.7,14,12.1,21h34.5C132.4,180.5,128.2,173.5,124.7,167z M174,191h-9.3c2.4,3.4,1.9,7.8-1,9.9c-3,2.1-7.3,1.1-9.8-2.3
			c-1.7-2.4-2-5.3-1-7.6h-10.1c4.3,6.5,9.1,13.1,14.4,20h30.3C182.5,204.1,178,197.4,174,191z M139.2,191h-34.6
			c4.4,6.8,9.2,13.5,14.4,20h34.4C148.2,204.1,143.5,197.4,139.2,191z M189.8,214h-30.2c4.7,6,9.9,12.2,15.4,18.4l29.2-0.1
			C199,226.1,194.2,220,189.8,214z M155.8,214h-34.3c5.5,6.6,11.4,12.8,17.7,18.5l31.8-0.1C165.5,226.1,160.4,220,155.8,214z
			 M209.5,191h-32c4.1,6.5,8.7,13.2,13.7,20H223C218,204.1,213.5,197.4,209.5,191z M225.1,214h-31.6c4.5,6,9.4,12.1,14.7,18.3
			l31.3-0.1C234.3,226,229.5,220,225.1,214z M160.2,167h-32c3.7,6.6,7.9,13.7,12.7,21h15c1.6-0.8,3.5-0.7,5.2,0h11.1
			C167.6,180.6,163.6,173.5,160.2,167z M174.1,108.1h-33.7c0.8,3.6,3.4,13.6,9,27.9h8.2c0.8-1,1.7-1.8,2.7-2.5
			c2.4-1.7,5.3-2.6,8.4-2.6c1.8,0,3.6,0.3,5.5,0.9c2.8,0.9,5.4,2.3,7.8,4.3h0.3C176.8,121.2,174.7,111.2,174.1,108.1z M173,135.5
			c-3.4-1.1-6.6-0.9-9.2,0.5h10.4C173.8,135.8,173.4,135.7,173,135.5z M275.9,235.1C275.9,235.1,275.9,235.2,275.9,235.1h0.2H275.9z
			 M242,191l0.1,0.1l0-0.1H242z M306.1,235c0.1,0.1,0.1,0.1,0.2,0.2l0.2-0.2L306.1,235z M307.5,232h-0.3l0.5,0.3
			C307.7,232.2,307.6,232.1,307.5,232z M349.6,213.5v0.5h-25.2c4.3,5.9,9.1,11.8,14.2,17.9l24.5-0.1
			C360.5,228.6,355.6,222.2,349.6,213.5z M305.3,191h-22.6l1.5,0.8c1,0.5,1.3,1.7,0.8,2.7c-0.4,0.7-1,1-1.8,1c-0.3,0-0.6-0.1-1-0.2
			l-3-1.6c3.5,5.6,7.4,11.4,11.7,17.3h4.6c0.1-0.1,0.2-0.2,0.3-0.3c2.2-1.6,5.3-1.4,7.7,0.3h14.8C313.6,204.1,309.2,197.4,305.3,191
			z M146,135.7c0,0.1,0.1,0.2,0.1,0.3h0.4L146,135.7z M172.6,167c0.3,0.1,0.5,0.2,0.8,0.3c3.2,1,6.3,0.9,8.8-0.3H172.6z
			 M221.2,145.8c-0.9-2.4-1.8-4.6-2.6-6.8h-31.9c0.6,1.6,1.3,3.3,2,5c0.8,1.9,1.6,3.9,2.5,5.9v0c1.9,4.5,4.1,9.2,6.6,14.1h26.9
			l-0.1,0c-1-0.5-1.3-1.8-0.8-2.7c0.5-1,1.7-1.3,2.7-0.8l1.2,0.6C225.2,155.5,223,150.4,221.2,145.8z M230.6,167h-0.3l0.5,0.2
			C230.7,167.2,230.6,167.1,230.6,167z M242,191l0.1,0.1l0-0.1H242z M247.2,190.8L247,191h0.3C247.3,190.9,247.2,190.8,247.2,190.8z
			 M235.4,169.8c2.8,5.5,5.9,11.2,9.5,17.2l5.8-8.8L235.4,169.8z M254.2,180l-5.2,8h19.9L254.2,180z M275.9,235.1
			C275.9,235.1,275.9,235.2,275.9,235.1h0.2H275.9z M259.2,214h-30.3c4.5,6,9.3,12,14.5,18.2l29.9-0.1
			C268.2,226,263.5,219.9,259.2,214z M113.7,144.9c-0.9-2-1.7-4-2.5-5.9H77.3c3.4,7.9,7.5,16.8,12.3,26.1V164h33.5
			C119.3,156.9,116.2,150.5,113.7,144.9z M124.7,167H90.6c3.6,6.9,7.7,14,12.1,21h34.5C132.4,180.5,128.2,173.5,124.7,167z M174,191
			h-9.3c2.4,3.4,1.9,7.8-1,9.9c-3,2.1-7.3,1.1-9.8-2.3c-1.7-2.4-2-5.3-1-7.6h-10.1c4.3,6.5,9.1,13.1,14.4,20h30.3
			C182.5,204.1,178,197.4,174,191z M139.2,191h-34.6c4.4,6.8,9.2,13.5,14.4,20h34.4C148.2,204.1,143.5,197.4,139.2,191z M189.8,214
			h-30.2c4.7,6,9.9,12.2,15.4,18.4l29.2-0.1C199,226.1,194.2,220,189.8,214z M155.8,214h-34.3c5.5,6.6,11.4,12.8,17.7,18.5l31.8-0.1
			C165.5,226.1,160.4,220,155.8,214z M209.5,191h-32c4.1,6.5,8.7,13.2,13.7,20H223C218,204.1,213.5,197.4,209.5,191z M225.1,214
			h-31.6c4.5,6,9.4,12.1,14.7,18.3l31.3-0.1C234.3,226,229.5,220,225.1,214z M160.2,167h-32c3.7,6.6,7.9,13.7,12.7,21h15
			c1.6-0.8,3.5-0.7,5.2,0h11.1C167.6,180.6,163.6,173.5,160.2,167z M238.6,167l14.3,7.8l5.1-7.8H238.6z M261.7,168.6l-5.3,8
			l13.6,7.4C266.9,178.7,264.1,173.5,261.7,168.6z M251.5,145.8c-0.9-2.4-1.8-4.6-2.6-6.8h-27c2.6,7.3,6,15.5,10.4,24.5l0.8,0.5
			h26.3C256.2,157.3,253.6,151.2,251.5,145.8z M264.7,164h25.9c-3.2-6.7-5.8-12.8-7.9-18.2c-0.9-2.4-1.8-4.6-2.6-6.8h-27.9
			c2.5,6.7,5.5,14.3,9.4,22.5l0.2-0.4c0.6-0.9,1.8-1.2,2.8-0.6c0.9,0.6,1.2,1.8,0.6,2.8L264.7,164z M292.1,167h-27.8
			c3.1,6.3,6.7,13,10.8,19.9l2.1,1.1h26.3C299.1,180.6,295.3,173.5,292.1,167z M322.5,167h-27c3.3,6.7,7.1,13.7,11.5,21h26.6
			C329.9,181.5,326.1,174.5,322.5,167z M324.4,164c0.1,0.2,0.2,0.3,0.2,0.5V164H324.4z M310.6,139h-27.2c2.7,7.4,6.2,15.8,10.6,25
			h27.1C317.3,156.1,313.8,147.7,310.6,139z M301.8,108.1h-27.1c0.6,3.5,2.6,13.5,7.6,27.9h27.3C306.5,127,303.8,117.7,301.8,108.1z
			 M210.2,108.1h-33c0.7,3.6,3,13.6,8.4,27.9h32C212.5,121.2,210.7,111.2,210.2,108.1z M240.5,108.1h-27.3
			c0.6,3.5,2.6,13.5,7.6,27.9h27.1C242.8,121.2,241,111.2,240.5,108.1z M271.7,108.1h-28.2c0.6,3.5,2.6,13.5,7.6,27.9h28
			C274,121.2,272.2,111.2,271.7,108.1z M174.1,108.1h-33.7c0.8,3.6,3.4,13.6,9,27.9h8.2c0.8-1,1.7-1.8,2.7-2.5
			c2.4-1.7,5.3-2.6,8.4-2.6c1.8,0,3.6,0.3,5.5,0.9c2.8,0.9,5.4,2.3,7.8,4.3h0.3C176.8,121.2,174.7,111.2,174.1,108.1z M173,135.5
			c-3.4-1.1-6.6-0.9-9.2,0.5h10.4C173.8,135.8,173.4,135.7,173,135.5z M274,190.8c0,0.1,0.1,0.1,0.1,0.2h0.3L274,190.8z M335.3,191
			h-26.5c4,6.5,8.4,13.2,13.4,20h25.7C344,205.2,339.7,198.5,335.3,191z M337.2,234.9c0.1,0.1,0.2,0.2,0.2,0.3l0.3-0.3H337.2z
			 M293.2,214c0.1,0.2,0.2,0.3,0.4,0.5c0-0.2,0.1-0.3,0.1-0.5H293.2z M306.1,235c0.1,0.1,0.1,0.1,0.2,0.2l0.2-0.2L306.1,235z
			 M307.5,232h-0.3l0.5,0.3C307.7,232.2,307.6,232.1,307.5,232z M349.6,213.5v0.5h-25.2c4.3,5.9,9.1,11.8,14.2,17.9l24.5-0.1
			C360.5,228.6,355.6,222.2,349.6,213.5z M305.3,191h-22.6l1.5,0.8c1,0.5,1.3,1.7,0.8,2.7c-0.4,0.7-1,1-1.8,1c-0.3,0-0.6-0.1-1-0.2
			l-3-1.6c3.5,5.6,7.4,11.4,11.7,17.3h4.6c0.1-0.1,0.2-0.2,0.3-0.3c2.2-1.6,5.3-1.4,7.7,0.3h14.8C313.6,204.1,309.2,197.4,305.3,191
			z M146,135.7c0,0.1,0.1,0.2,0.1,0.3h0.4L146,135.7z M172.6,167c0.3,0.1,0.5,0.2,0.8,0.3c3.2,1,6.3,0.9,8.8-0.3H172.6z
			 M221.2,145.8c-0.9-2.4-1.8-4.6-2.6-6.8h-31.9c0.6,1.6,1.3,3.3,2,5c0.8,1.9,1.6,3.9,2.5,5.9v0c1.9,4.5,4.1,9.2,6.6,14.1h26.9
			l-0.1,0c-1-0.5-1.3-1.8-0.8-2.7c0.5-1,1.7-1.3,2.7-0.8l1.2,0.6C225.2,155.5,223,150.4,221.2,145.8z M230.6,167h-0.3l0.5,0.2
			C230.7,167.2,230.6,167.1,230.6,167z M242,191l0.1,0.1l0-0.1H242z M247.2,190.8L247,191h0.3C247.3,190.9,247.2,190.8,247.2,190.8z
			 M235.4,169.8c2.8,5.5,5.9,11.2,9.5,17.2l5.8-8.8L235.4,169.8z M254.2,180l-5.2,8h19.9L254.2,180z M275.9,235.1
			C275.9,235.1,275.9,235.2,275.9,235.1h0.2H275.9z M259.2,214h-30.3c4.5,6,9.3,12,14.5,18.2l29.9-0.1
			C268.2,226,263.5,219.9,259.2,214z M113.7,144.9c-0.9-2-1.7-4-2.5-5.9H77.3c3.4,7.9,7.5,16.8,12.3,26.1V164h33.5
			C119.3,156.9,116.2,150.5,113.7,144.9z M124.7,167H90.6c3.6,6.9,7.7,14,12.1,21h34.5C132.4,180.5,128.2,173.5,124.7,167z M174,191
			h-9.3c2.4,3.4,1.9,7.8-1,9.9c-3,2.1-7.3,1.1-9.8-2.3c-1.7-2.4-2-5.3-1-7.6h-10.1c4.3,6.5,9.1,13.1,14.4,20h30.3
			C182.5,204.1,178,197.4,174,191z M139.2,191h-34.6c4.4,6.8,9.2,13.5,14.4,20h34.4C148.2,204.1,143.5,197.4,139.2,191z M189.8,214
			h-30.2c4.7,6,9.9,12.2,15.4,18.4l29.2-0.1C199,226.1,194.2,220,189.8,214z M155.8,214h-34.3c5.5,6.6,11.4,12.8,17.7,18.5l31.8-0.1
			C165.5,226.1,160.4,220,155.8,214z M209.5,191h-32c4.1,6.5,8.7,13.2,13.7,20H223C218,204.1,213.5,197.4,209.5,191z M225.1,214
			h-31.6c4.5,6,9.4,12.1,14.7,18.3l31.3-0.1C234.3,226,229.5,220,225.1,214z M160.2,167h-32c3.7,6.6,7.9,13.7,12.7,21h15
			c1.6-0.8,3.5-0.7,5.2,0h11.1C167.6,180.6,163.6,173.5,160.2,167z M238.6,167l14.3,7.8l5.1-7.8H238.6z M261.7,168.6l-5.3,8
			l13.6,7.4C266.9,178.7,264.1,173.5,261.7,168.6z M251.5,145.8c-0.9-2.4-1.8-4.6-2.6-6.8h-27c2.6,7.3,6,15.5,10.4,24.5l0.8,0.5
			h26.3C256.2,157.3,253.6,151.2,251.5,145.8z M264.7,164h25.9c-3.2-6.7-5.8-12.8-7.9-18.2c-0.9-2.4-1.8-4.6-2.6-6.8h-27.9
			c2.5,6.7,5.5,14.3,9.4,22.5l0.2-0.4c0.6-0.9,1.8-1.2,2.8-0.6c0.9,0.6,1.2,1.8,0.6,2.8L264.7,164z M292.1,167h-27.8
			c3.1,6.3,6.7,13,10.8,19.9l2.1,1.1h26.3C299.1,180.6,295.3,173.5,292.1,167z M322.5,167h-27c3.3,6.7,7.1,13.7,11.5,21h26.6
			C329.9,181.5,326.1,174.5,322.5,167z M324.4,164c0.1,0.2,0.2,0.3,0.2,0.5V164H324.4z M310.6,139h-27.2c2.7,7.4,6.2,15.8,10.6,25
			h27.1C317.3,156.1,313.8,147.7,310.6,139z M301.8,108.1h-27.1c0.6,3.5,2.6,13.5,7.6,27.9h27.3C306.5,127,303.8,117.7,301.8,108.1z
			 M210.2,108.1h-33c0.7,3.6,3,13.6,8.4,27.9h32C212.5,121.2,210.7,111.2,210.2,108.1z M240.5,108.1h-27.3
			c0.6,3.5,2.6,13.5,7.6,27.9h27.1C242.8,121.2,241,111.2,240.5,108.1z M271.7,108.1h-28.2c0.6,3.5,2.6,13.5,7.6,27.9h28
			C274,121.2,272.2,111.2,271.7,108.1z M174.1,108.1h-33.7c0.8,3.6,3.4,13.6,9,27.9h8.2c0.8-1,1.7-1.8,2.7-2.5
			c2.4-1.7,5.3-2.6,8.4-2.6c1.8,0,3.6,0.3,5.5,0.9c2.8,0.9,5.4,2.3,7.8,4.3h0.3C176.8,121.2,174.7,111.2,174.1,108.1z M173,135.5
			c-3.4-1.1-6.6-0.9-9.2,0.5h10.4C173.8,135.8,173.4,135.7,173,135.5z M274,190.8c0,0.1,0.1,0.1,0.1,0.2h0.3L274,190.8z M335.3,191
			h-26.5c4,6.5,8.4,13.2,13.4,20h25.7C344,205.2,339.7,198.5,335.3,191z M337.2,234.9c0.1,0.1,0.2,0.2,0.2,0.3l0.3-0.3H337.2z
			 M293.2,214c0.1,0.2,0.2,0.3,0.4,0.5c0-0.2,0.1-0.3,0.1-0.5H293.2z M306.1,235c0.1,0.1,0.1,0.1,0.2,0.2l0.2-0.2L306.1,235z
			 M307.5,232h-0.3l0.5,0.3C307.7,232.2,307.6,232.1,307.5,232z M349.6,213.5v0.5h-25.2c4.3,5.9,9.1,11.8,14.2,17.9l24.5-0.1
			C360.5,228.6,355.6,222.2,349.6,213.5z M305.3,191h-22.6l1.5,0.8c1,0.5,1.3,1.7,0.8,2.7c-0.4,0.7-1,1-1.8,1c-0.3,0-0.6-0.1-1-0.2
			l-3-1.6c3.5,5.6,7.4,11.4,11.7,17.3h4.6c0.1-0.1,0.2-0.2,0.3-0.3c2.2-1.6,5.3-1.4,7.7,0.3h14.8C313.6,204.1,309.2,197.4,305.3,191
			z M146,135.7c0,0.1,0.1,0.2,0.1,0.3h0.4L146,135.7z M172.6,167c0.3,0.1,0.5,0.2,0.8,0.3c3.2,1,6.3,0.9,8.8-0.3H172.6z
			 M221.2,145.8c-0.9-2.4-1.8-4.6-2.6-6.8h-31.9c0.6,1.6,1.3,3.3,2,5c0.8,1.9,1.6,3.9,2.5,5.9v0c1.9,4.5,4.1,9.2,6.6,14.1h26.9
			l-0.1,0c-1-0.5-1.3-1.8-0.8-2.7c0.5-1,1.7-1.3,2.7-0.8l1.2,0.6C225.2,155.5,223,150.4,221.2,145.8z M230.6,167h-0.3l0.5,0.2
			C230.7,167.2,230.6,167.1,230.6,167z M242,191l0.1,0.1l0-0.1H242z M247.2,190.8L247,191h0.3C247.3,190.9,247.2,190.8,247.2,190.8z
			 M235.4,169.8c2.8,5.5,5.9,11.2,9.5,17.2l5.8-8.8L235.4,169.8z M254.2,180l-5.2,8h19.9L254.2,180z M275.9,235.1
			C275.9,235.1,275.9,235.2,275.9,235.1h0.2H275.9z M259.2,214h-30.3c4.5,6,9.3,12,14.5,18.2l29.9-0.1
			C268.2,226,263.5,219.9,259.2,214z M113.7,144.9c-0.9-2-1.7-4-2.5-5.9H77.3c3.4,7.9,7.5,16.8,12.3,26.1V164h33.5
			C119.3,156.9,116.2,150.5,113.7,144.9z M124.7,167H90.6c3.6,6.9,7.7,14,12.1,21h34.5C132.4,180.5,128.2,173.5,124.7,167z M174,191
			h-9.3c2.4,3.4,1.9,7.8-1,9.9c-3,2.1-7.3,1.1-9.8-2.3c-1.7-2.4-2-5.3-1-7.6h-10.1c4.3,6.5,9.1,13.1,14.4,20h30.3
			C182.5,204.1,178,197.4,174,191z M139.2,191h-34.6c4.4,6.8,9.2,13.5,14.4,20h34.4C148.2,204.1,143.5,197.4,139.2,191z M189.8,214
			h-30.2c4.7,6,9.9,12.2,15.4,18.4l29.2-0.1C199,226.1,194.2,220,189.8,214z M155.8,214h-34.3c5.5,6.6,11.4,12.8,17.7,18.5l31.8-0.1
			C165.5,226.1,160.4,220,155.8,214z M209.5,191h-32c4.1,6.5,8.7,13.2,13.7,20H223C218,204.1,213.5,197.4,209.5,191z M225.1,214
			h-31.6c4.5,6,9.4,12.1,14.7,18.3l31.3-0.1C234.3,226,229.5,220,225.1,214z M160.2,167h-32c3.7,6.6,7.9,13.7,12.7,21h15
			c1.6-0.8,3.5-0.7,5.2,0h11.1C167.6,180.6,163.6,173.5,160.2,167z M238.6,167l14.3,7.8l5.1-7.8H238.6z M261.7,168.6l-5.3,8
			l13.6,7.4C266.9,178.7,264.1,173.5,261.7,168.6z M251.5,145.8c-0.9-2.4-1.8-4.6-2.6-6.8h-27c2.6,7.3,6,15.5,10.4,24.5l0.8,0.5
			h26.3C256.2,157.3,253.6,151.2,251.5,145.8z M264.7,164h25.9c-3.2-6.7-5.8-12.8-7.9-18.2c-0.9-2.4-1.8-4.6-2.6-6.8h-27.9
			c2.5,6.7,5.5,14.3,9.4,22.5l0.2-0.4c0.6-0.9,1.8-1.2,2.8-0.6c0.9,0.6,1.2,1.8,0.6,2.8L264.7,164z M292.1,167h-27.8
			c3.1,6.3,6.7,13,10.8,19.9l2.1,1.1h26.3C299.1,180.6,295.3,173.5,292.1,167z M322.5,167h-27c3.3,6.7,7.1,13.7,11.5,21h26.6
			C329.9,181.5,326.1,174.5,322.5,167z M324.4,164c0.1,0.2,0.2,0.3,0.2,0.5V164H324.4z M310.6,139h-27.2c2.7,7.4,6.2,15.8,10.6,25
			h27.1C317.3,156.1,313.8,147.7,310.6,139z M301.8,108.1h-27.1c0.6,3.5,2.6,13.5,7.6,27.9h27.3C306.5,127,303.8,117.7,301.8,108.1z
			 M210.2,108.1h-33c0.7,3.6,3,13.6,8.4,27.9h32C212.5,121.2,210.7,111.2,210.2,108.1z M240.5,108.1h-27.3
			c0.6,3.5,2.6,13.5,7.6,27.9h27.1C242.8,121.2,241,111.2,240.5,108.1z M271.7,108.1h-28.2c0.6,3.5,2.6,13.5,7.6,27.9h28
			C274,121.2,272.2,111.2,271.7,108.1z M174.1,108.1h-33.7c0.8,3.6,3.4,13.6,9,27.9h8.2c0.8-1,1.7-1.8,2.7-2.5
			c2.4-1.7,5.3-2.6,8.4-2.6c1.8,0,3.6,0.3,5.5,0.9c2.8,0.9,5.4,2.3,7.8,4.3h0.3C176.8,121.2,174.7,111.2,174.1,108.1z M173,135.5
			c-3.4-1.1-6.6-0.9-9.2,0.5h10.4C173.8,135.8,173.4,135.7,173,135.5z M274,190.8c0,0.1,0.1,0.1,0.1,0.2h0.3L274,190.8z M335.3,191
			h-26.5c4,6.5,8.4,13.2,13.4,20h25.7C344,205.2,339.7,198.5,335.3,191z M337.2,234.9c0.1,0.1,0.2,0.2,0.2,0.3l0.3-0.3H337.2z
			 M293.2,214c0.1,0.2,0.2,0.3,0.4,0.5c0-0.2,0.1-0.3,0.1-0.5H293.2z M242,191l0.1,0.1l0-0.1H242z M275.9,235.1
			C275.9,235.1,275.9,235.2,275.9,235.1h0.2H275.9z M146,135.7c0,0.1,0.1,0.2,0.1,0.3h0.4L146,135.7z M221.2,145.8
			c-0.9-2.4-1.8-4.6-2.6-6.8h-31.9c0.6,1.6,1.3,3.3,2,5c0.8,1.9,1.6,3.9,2.5,5.9v0c1.9,4.5,4.1,9.2,6.6,14.1h26.9l-0.1,0
			c-1-0.5-1.3-1.8-0.8-2.7c0.5-1,1.7-1.3,2.7-0.8l1.2,0.6C225.2,155.5,223,150.4,221.2,145.8z M230.6,167h-0.3l0.5,0.2
			C230.7,167.2,230.6,167.1,230.6,167z M238.6,167l14.3,7.8l5.1-7.8H238.6z M310.6,139h-27.2c2.7,7.4,6.2,15.8,10.6,25h27.1
			C317.3,156.1,313.8,147.7,310.6,139z M301.8,108.1h-27.1c0.6,3.5,2.6,13.5,7.6,27.9h27.3C306.5,127,303.8,117.7,301.8,108.1z
			 M251.5,145.8c-0.9-2.4-1.8-4.6-2.6-6.8h-27c2.6,7.3,6,15.5,10.4,24.5l0.8,0.5h26.3C256.2,157.3,253.6,151.2,251.5,145.8z
			 M264.7,164h25.9c-3.2-6.7-5.8-12.8-7.9-18.2c-0.9-2.4-1.8-4.6-2.6-6.8h-27.9c2.5,6.7,5.5,14.3,9.4,22.5l0.2-0.4
			c0.6-0.9,1.8-1.2,2.8-0.6c0.9,0.6,1.2,1.8,0.6,2.8L264.7,164z M210.2,108.1h-33c0.7,3.6,3,13.6,8.4,27.9h32
			C212.5,121.2,210.7,111.2,210.2,108.1z M240.5,108.1h-27.3c0.6,3.5,2.6,13.5,7.6,27.9h27.1C242.8,121.2,241,111.2,240.5,108.1z
			 M271.7,108.1h-28.2c0.6,3.5,2.6,13.5,7.6,27.9h28C274,121.2,272.2,111.2,271.7,108.1z M172.6,167c0.3,0.1,0.5,0.2,0.8,0.3
			c3.2,1,6.3,0.9,8.8-0.3H172.6z M259.2,214h-30.3c4.5,6,9.3,12,14.5,18.2l29.9-0.1C268.2,226,263.5,219.9,259.2,214z M113.7,144.9
			c-0.9-2-1.7-4-2.5-5.9H77.3c3.4,7.9,7.5,16.8,12.3,26.1V164h33.5C119.3,156.9,116.2,150.5,113.7,144.9z M124.7,167H90.6
			c3.6,6.9,7.7,14,12.1,21h34.5C132.4,180.5,128.2,173.5,124.7,167z M174,191h-9.3c2.4,3.4,1.9,7.8-1,9.9c-3,2.1-7.3,1.1-9.8-2.3
			c-1.7-2.4-2-5.3-1-7.6h-10.1c4.3,6.5,9.1,13.1,14.4,20h30.3C182.5,204.1,178,197.4,174,191z M139.2,191h-34.6
			c4.4,6.8,9.2,13.5,14.4,20h34.4C148.2,204.1,143.5,197.4,139.2,191z M189.8,214h-30.2c4.7,6,9.9,12.2,15.4,18.4l29.2-0.1
			C199,226.1,194.2,220,189.8,214z M155.8,214h-34.3c5.5,6.6,11.4,12.8,17.7,18.5l31.8-0.1C165.5,226.1,160.4,220,155.8,214z
			 M209.5,191h-32c4.1,6.5,8.7,13.2,13.7,20H223C218,204.1,213.5,197.4,209.5,191z M225.1,214h-31.6c4.5,6,9.4,12.1,14.7,18.3
			l31.3-0.1C234.3,226,229.5,220,225.1,214z M160.2,167h-32c3.7,6.6,7.9,13.7,12.7,21h15c1.6-0.8,3.5-0.7,5.2,0h11.1
			C167.6,180.6,163.6,173.5,160.2,167z M174.1,108.1h-33.7c0.8,3.6,3.4,13.6,9,27.9h8.2c0.8-1,1.7-1.8,2.7-2.5
			c2.4-1.7,5.3-2.6,8.4-2.6c1.8,0,3.6,0.3,5.5,0.9c2.8,0.9,5.4,2.3,7.8,4.3h0.3C176.8,121.2,174.7,111.2,174.1,108.1z M173,135.5
			c-3.4-1.1-6.6-0.9-9.2,0.5h10.4C173.8,135.8,173.4,135.7,173,135.5z M324.4,164c0.1,0.2,0.2,0.3,0.2,0.5V164H324.4z M275.9,235.1
			C275.9,235.1,275.9,235.2,275.9,235.1h0.2H275.9z M146,135.7c0,0.1,0.1,0.2,0.1,0.3h0.4L146,135.7z M221.2,145.8
			c-0.9-2.4-1.8-4.6-2.6-6.8h-31.9c0.6,1.6,1.3,3.3,2,5c0.8,1.9,1.6,3.9,2.5,5.9v0c1.9,4.5,4.1,9.2,6.6,14.1h26.9l-0.1,0
			c-1-0.5-1.3-1.8-0.8-2.7c0.5-1,1.7-1.3,2.7-0.8l1.2,0.6C225.2,155.5,223,150.4,221.2,145.8z M230.6,167h-0.3l0.5,0.2
			C230.7,167.2,230.6,167.1,230.6,167z M238.6,167l14.3,7.8l5.1-7.8H238.6z M310.6,139h-27.2c2.7,7.4,6.2,15.8,10.6,25h27.1
			C317.3,156.1,313.8,147.7,310.6,139z M301.8,108.1h-27.1c0.6,3.5,2.6,13.5,7.6,27.9h27.3C306.5,127,303.8,117.7,301.8,108.1z
			 M251.5,145.8c-0.9-2.4-1.8-4.6-2.6-6.8h-27c2.6,7.3,6,15.5,10.4,24.5l0.8,0.5h26.3C256.2,157.3,253.6,151.2,251.5,145.8z
			 M264.7,164h25.9c-3.2-6.7-5.8-12.8-7.9-18.2c-0.9-2.4-1.8-4.6-2.6-6.8h-27.9c2.5,6.7,5.5,14.3,9.4,22.5l0.2-0.4
			c0.6-0.9,1.8-1.2,2.8-0.6c0.9,0.6,1.2,1.8,0.6,2.8L264.7,164z M210.2,108.1h-33c0.7,3.6,3,13.6,8.4,27.9h32
			C212.5,121.2,210.7,111.2,210.2,108.1z M240.5,108.1h-27.3c0.6,3.5,2.6,13.5,7.6,27.9h27.1C242.8,121.2,241,111.2,240.5,108.1z
			 M271.7,108.1h-28.2c0.6,3.5,2.6,13.5,7.6,27.9h28C274,121.2,272.2,111.2,271.7,108.1z M172.6,167c0.3,0.1,0.5,0.2,0.8,0.3
			c3.2,1,6.3,0.9,8.8-0.3H172.6z M259.2,214h-30.3c4.5,6,9.3,12,14.5,18.2l29.9-0.1C268.2,226,263.5,219.9,259.2,214z M113.7,144.9
			c-0.9-2-1.7-4-2.5-5.9H77.3c3.4,7.9,7.5,16.8,12.3,26.1V164h33.5C119.3,156.9,116.2,150.5,113.7,144.9z M124.7,167H90.6
			c3.6,6.9,7.7,14,12.1,21h34.5C132.4,180.5,128.2,173.5,124.7,167z M174,191h-9.3c2.4,3.4,1.9,7.8-1,9.9c-3,2.1-7.3,1.1-9.8-2.3
			c-1.7-2.4-2-5.3-1-7.6h-10.1c4.3,6.5,9.1,13.1,14.4,20h30.3C182.5,204.1,178,197.4,174,191z M139.2,191h-34.6
			c4.4,6.8,9.2,13.5,14.4,20h34.4C148.2,204.1,143.5,197.4,139.2,191z M189.8,214h-30.2c4.7,6,9.9,12.2,15.4,18.4l29.2-0.1
			C199,226.1,194.2,220,189.8,214z M155.8,214h-34.3c5.5,6.6,11.4,12.8,17.7,18.5l31.8-0.1C165.5,226.1,160.4,220,155.8,214z
			 M209.5,191h-32c4.1,6.5,8.7,13.2,13.7,20H223C218,204.1,213.5,197.4,209.5,191z M225.1,214h-31.6c4.5,6,9.4,12.1,14.7,18.3
			l31.3-0.1C234.3,226,229.5,220,225.1,214z M160.2,167h-32c3.7,6.6,7.9,13.7,12.7,21h15c1.6-0.8,3.5-0.7,5.2,0h11.1
			C167.6,180.6,163.6,173.5,160.2,167z M174.1,108.1h-33.7c0.8,3.6,3.4,13.6,9,27.9h8.2c0.8-1,1.7-1.8,2.7-2.5
			c2.4-1.7,5.3-2.6,8.4-2.6c1.8,0,3.6,0.3,5.5,0.9c2.8,0.9,5.4,2.3,7.8,4.3h0.3C176.8,121.2,174.7,111.2,174.1,108.1z M173,135.5
			c-3.4-1.1-6.6-0.9-9.2,0.5h10.4C173.8,135.8,173.4,135.7,173,135.5z M324.4,164c0.1,0.2,0.2,0.3,0.2,0.5V164H324.4z M275.9,235.1
			C275.9,235.1,275.9,235.2,275.9,235.1h0.2H275.9z M146,135.7c0,0.1,0.1,0.2,0.1,0.3h0.4L146,135.7z M221.2,145.8
			c-0.9-2.4-1.8-4.6-2.6-6.8h-31.9c0.6,1.6,1.3,3.3,2,5c0.8,1.9,1.6,3.9,2.5,5.9v0c1.9,4.5,4.1,9.2,6.6,14.1h26.9l-0.1,0
			c-1-0.5-1.3-1.8-0.8-2.7c0.5-1,1.7-1.3,2.7-0.8l1.2,0.6C225.2,155.5,223,150.4,221.2,145.8z M230.6,167h-0.3l0.5,0.2
			C230.7,167.2,230.6,167.1,230.6,167z M238.6,167l14.3,7.8l5.1-7.8H238.6z M310.6,139h-27.2c2.7,7.4,6.2,15.8,10.6,25h27.1
			C317.3,156.1,313.8,147.7,310.6,139z M301.8,108.1h-27.1c0.6,3.5,2.6,13.5,7.6,27.9h27.3C306.5,127,303.8,117.7,301.8,108.1z
			 M251.5,145.8c-0.9-2.4-1.8-4.6-2.6-6.8h-27c2.6,7.3,6,15.5,10.4,24.5l0.8,0.5h26.3C256.2,157.3,253.6,151.2,251.5,145.8z
			 M264.7,164h25.9c-3.2-6.7-5.8-12.8-7.9-18.2c-0.9-2.4-1.8-4.6-2.6-6.8h-27.9c2.5,6.7,5.5,14.3,9.4,22.5l0.2-0.4
			c0.6-0.9,1.8-1.2,2.8-0.6c0.9,0.6,1.2,1.8,0.6,2.8L264.7,164z M210.2,108.1h-33c0.7,3.6,3,13.6,8.4,27.9h32
			C212.5,121.2,210.7,111.2,210.2,108.1z M240.5,108.1h-27.3c0.6,3.5,2.6,13.5,7.6,27.9h27.1C242.8,121.2,241,111.2,240.5,108.1z
			 M271.7,108.1h-28.2c0.6,3.5,2.6,13.5,7.6,27.9h28C274,121.2,272.2,111.2,271.7,108.1z M172.6,167c0.3,0.1,0.5,0.2,0.8,0.3
			c3.2,1,6.3,0.9,8.8-0.3H172.6z M259.2,214h-30.3c4.5,6,9.3,12,14.5,18.2l29.9-0.1C268.2,226,263.5,219.9,259.2,214z M113.7,144.9
			c-0.9-2-1.7-4-2.5-5.9H77.3c3.4,7.9,7.5,16.8,12.3,26.1V164h33.5C119.3,156.9,116.2,150.5,113.7,144.9z M124.7,167H90.6
			c3.6,6.9,7.7,14,12.1,21h34.5C132.4,180.5,128.2,173.5,124.7,167z M174,191h-9.3c2.4,3.4,1.9,7.8-1,9.9c-3,2.1-7.3,1.1-9.8-2.3
			c-1.7-2.4-2-5.3-1-7.6h-10.1c4.3,6.5,9.1,13.1,14.4,20h30.3C182.5,204.1,178,197.4,174,191z M139.2,191h-34.6
			c4.4,6.8,9.2,13.5,14.4,20h34.4C148.2,204.1,143.5,197.4,139.2,191z M189.8,214h-30.2c4.7,6,9.9,12.2,15.4,18.4l29.2-0.1
			C199,226.1,194.2,220,189.8,214z M155.8,214h-34.3c5.5,6.6,11.4,12.8,17.7,18.5l31.8-0.1C165.5,226.1,160.4,220,155.8,214z
			 M209.5,191h-32c4.1,6.5,8.7,13.2,13.7,20H223C218,204.1,213.5,197.4,209.5,191z M225.1,214h-31.6c4.5,6,9.4,12.1,14.7,18.3
			l31.3-0.1C234.3,226,229.5,220,225.1,214z M160.2,167h-32c3.7,6.6,7.9,13.7,12.7,21h15c1.6-0.8,3.5-0.7,5.2,0h11.1
			C167.6,180.6,163.6,173.5,160.2,167z M174.1,108.1h-33.7c0.8,3.6,3.4,13.6,9,27.9h8.2c0.8-1,1.7-1.8,2.7-2.5
			c2.4-1.7,5.3-2.6,8.4-2.6c1.8,0,3.6,0.3,5.5,0.9c2.8,0.9,5.4,2.3,7.8,4.3h0.3C176.8,121.2,174.7,111.2,174.1,108.1z M173,135.5
			c-3.4-1.1-6.6-0.9-9.2,0.5h10.4C173.8,135.8,173.4,135.7,173,135.5z M324.4,164c0.1,0.2,0.2,0.3,0.2,0.5V164H324.4z M275.9,235.1
			C275.9,235.1,275.9,235.2,275.9,235.1h0.2H275.9z M146,135.7c0,0.1,0.1,0.2,0.1,0.3h0.4L146,135.7z M221.2,145.8
			c-0.9-2.4-1.8-4.6-2.6-6.8h-31.9c0.6,1.6,1.3,3.3,2,5c0.8,1.9,1.6,3.9,2.5,5.9v0c1.9,4.5,4.1,9.2,6.6,14.1h26.9l-0.1,0
			c-1-0.5-1.3-1.8-0.8-2.7c0.5-1,1.7-1.3,2.7-0.8l1.2,0.6C225.2,155.5,223,150.4,221.2,145.8z M230.6,167h-0.3l0.5,0.2
			C230.7,167.2,230.6,167.1,230.6,167z M238.6,167l14.3,7.8l5.1-7.8H238.6z M310.6,139h-27.2c2.7,7.4,6.2,15.8,10.6,25h27.1
			C317.3,156.1,313.8,147.7,310.6,139z M301.8,108.1h-27.1c0.6,3.5,2.6,13.5,7.6,27.9h27.3C306.5,127,303.8,117.7,301.8,108.1z
			 M251.5,145.8c-0.9-2.4-1.8-4.6-2.6-6.8h-27c2.6,7.3,6,15.5,10.4,24.5l0.8,0.5h26.3C256.2,157.3,253.6,151.2,251.5,145.8z
			 M264.7,164h25.9c-3.2-6.7-5.8-12.8-7.9-18.2c-0.9-2.4-1.8-4.6-2.6-6.8h-27.9c2.5,6.7,5.5,14.3,9.4,22.5l0.2-0.4
			c0.6-0.9,1.8-1.2,2.8-0.6c0.9,0.6,1.2,1.8,0.6,2.8L264.7,164z M210.2,108.1h-33c0.7,3.6,3,13.6,8.4,27.9h32
			C212.5,121.2,210.7,111.2,210.2,108.1z M240.5,108.1h-27.3c0.6,3.5,2.6,13.5,7.6,27.9h27.1C242.8,121.2,241,111.2,240.5,108.1z
			 M271.7,108.1h-28.2c0.6,3.5,2.6,13.5,7.6,27.9h28C274,121.2,272.2,111.2,271.7,108.1z M172.6,167c0.3,0.1,0.5,0.2,0.8,0.3
			c3.2,1,6.3,0.9,8.8-0.3H172.6z M259.2,214h-30.3c4.5,6,9.3,12,14.5,18.2l29.9-0.1C268.2,226,263.5,219.9,259.2,214z M113.7,144.9
			c-0.9-2-1.7-4-2.5-5.9H77.3c3.4,7.9,7.5,16.8,12.3,26.1V164h33.5C119.3,156.9,116.2,150.5,113.7,144.9z M124.7,167H90.6
			c3.6,6.9,7.7,14,12.1,21h34.5C132.4,180.5,128.2,173.5,124.7,167z M174,191h-9.3c2.4,3.4,1.9,7.8-1,9.9c-3,2.1-7.3,1.1-9.8-2.3
			c-1.7-2.4-2-5.3-1-7.6h-10.1c4.3,6.5,9.1,13.1,14.4,20h30.3C182.5,204.1,178,197.4,174,191z M139.2,191h-34.6
			c4.4,6.8,9.2,13.5,14.4,20h34.4C148.2,204.1,143.5,197.4,139.2,191z M189.8,214h-30.2c4.7,6,9.9,12.2,15.4,18.4l29.2-0.1
			C199,226.1,194.2,220,189.8,214z M155.8,214h-34.3c5.5,6.6,11.4,12.8,17.7,18.5l31.8-0.1C165.5,226.1,160.4,220,155.8,214z
			 M209.5,191h-32c4.1,6.5,8.7,13.2,13.7,20H223C218,204.1,213.5,197.4,209.5,191z M225.1,214h-31.6c4.5,6,9.4,12.1,14.7,18.3
			l31.3-0.1C234.3,226,229.5,220,225.1,214z M160.2,167h-32c3.7,6.6,7.9,13.7,12.7,21h15c1.6-0.8,3.5-0.7,5.2,0h11.1
			C167.6,180.6,163.6,173.5,160.2,167z M174.1,108.1h-33.7c0.8,3.6,3.4,13.6,9,27.9h8.2c0.8-1,1.7-1.8,2.7-2.5
			c2.4-1.7,5.3-2.6,8.4-2.6c1.8,0,3.6,0.3,5.5,0.9c2.8,0.9,5.4,2.3,7.8,4.3h0.3C176.8,121.2,174.7,111.2,174.1,108.1z M173,135.5
			c-3.4-1.1-6.6-0.9-9.2,0.5h10.4C173.8,135.8,173.4,135.7,173,135.5z M324.4,164c0.1,0.2,0.2,0.3,0.2,0.5V164H324.4z M275.9,235.1
			C275.9,235.1,275.9,235.2,275.9,235.1h0.2H275.9z M146,135.7c0,0.1,0.1,0.2,0.1,0.3h0.4L146,135.7z M221.2,145.8
			c-0.9-2.4-1.8-4.6-2.6-6.8h-31.9c0.6,1.6,1.3,3.3,2,5c0.8,1.9,1.6,3.9,2.5,5.9v0c1.9,4.5,4.1,9.2,6.6,14.1h26.9l-0.1,0
			c-1-0.5-1.3-1.8-0.8-2.7c0.5-1,1.7-1.3,2.7-0.8l1.2,0.6C225.2,155.5,223,150.4,221.2,145.8z M230.6,167h-0.3l0.5,0.2
			C230.7,167.2,230.6,167.1,230.6,167z M238.6,167l14.3,7.8l5.1-7.8H238.6z M310.6,139h-27.2c2.7,7.4,6.2,15.8,10.6,25h27.1
			C317.3,156.1,313.8,147.7,310.6,139z M301.8,108.1h-27.1c0.6,3.5,2.6,13.5,7.6,27.9h27.3C306.5,127,303.8,117.7,301.8,108.1z
			 M251.5,145.8c-0.9-2.4-1.8-4.6-2.6-6.8h-27c2.6,7.3,6,15.5,10.4,24.5l0.8,0.5h26.3C256.2,157.3,253.6,151.2,251.5,145.8z
			 M264.7,164h25.9c-3.2-6.7-5.8-12.8-7.9-18.2c-0.9-2.4-1.8-4.6-2.6-6.8h-27.9c2.5,6.7,5.5,14.3,9.4,22.5l0.2-0.4
			c0.6-0.9,1.8-1.2,2.8-0.6c0.9,0.6,1.2,1.8,0.6,2.8L264.7,164z M210.2,108.1h-33c0.7,3.6,3,13.6,8.4,27.9h32
			C212.5,121.2,210.7,111.2,210.2,108.1z M240.5,108.1h-27.3c0.6,3.5,2.6,13.5,7.6,27.9h27.1C242.8,121.2,241,111.2,240.5,108.1z
			 M271.7,108.1h-28.2c0.6,3.5,2.6,13.5,7.6,27.9h28C274,121.2,272.2,111.2,271.7,108.1z M172.6,167c0.3,0.1,0.5,0.2,0.8,0.3
			c3.2,1,6.3,0.9,8.8-0.3H172.6z M259.2,214h-30.3c4.5,6,9.3,12,14.5,18.2l29.9-0.1C268.2,226,263.5,219.9,259.2,214z M113.7,144.9
			c-0.9-2-1.7-4-2.5-5.9H77.3c3.4,7.9,7.5,16.8,12.3,26.1V164h33.5C119.3,156.9,116.2,150.5,113.7,144.9z M124.7,167H90.6
			c3.6,6.9,7.7,14,12.1,21h34.5C132.4,180.5,128.2,173.5,124.7,167z M174,191h-9.3c2.4,3.4,1.9,7.8-1,9.9c-3,2.1-7.3,1.1-9.8-2.3
			c-1.7-2.4-2-5.3-1-7.6h-10.1c4.3,6.5,9.1,13.1,14.4,20h30.3C182.5,204.1,178,197.4,174,191z M139.2,191h-34.6
			c4.4,6.8,9.2,13.5,14.4,20h34.4C148.2,204.1,143.5,197.4,139.2,191z M189.8,214h-30.2c4.7,6,9.9,12.2,15.4,18.4l29.2-0.1
			C199,226.1,194.2,220,189.8,214z M155.8,214h-34.3c5.5,6.6,11.4,12.8,17.7,18.5l31.8-0.1C165.5,226.1,160.4,220,155.8,214z
			 M209.5,191h-32c4.1,6.5,8.7,13.2,13.7,20H223C218,204.1,213.5,197.4,209.5,191z M225.1,214h-31.6c4.5,6,9.4,12.1,14.7,18.3
			l31.3-0.1C234.3,226,229.5,220,225.1,214z M160.2,167h-32c3.7,6.6,7.9,13.7,12.7,21h15c1.6-0.8,3.5-0.7,5.2,0h11.1
			C167.6,180.6,163.6,173.5,160.2,167z M174.1,108.1h-33.7c0.8,3.6,3.4,13.6,9,27.9h8.2c0.8-1,1.7-1.8,2.7-2.5
			c2.4-1.7,5.3-2.6,8.4-2.6c1.8,0,3.6,0.3,5.5,0.9c2.8,0.9,5.4,2.3,7.8,4.3h0.3C176.8,121.2,174.7,111.2,174.1,108.1z M173,135.5
			c-3.4-1.1-6.6-0.9-9.2,0.5h10.4C173.8,135.8,173.4,135.7,173,135.5z M324.4,164c0.1,0.2,0.2,0.3,0.2,0.5V164H324.4z M275.9,235.1
			C275.9,235.1,275.9,235.2,275.9,235.1h0.2H275.9z M146,135.7c0,0.1,0.1,0.2,0.1,0.3h0.4L146,135.7z M221.2,145.8
			c-0.9-2.4-1.8-4.6-2.6-6.8h-31.9c0.6,1.6,1.3,3.3,2,5c0.8,1.9,1.6,3.9,2.5,5.9v0c1.9,4.5,4.1,9.2,6.6,14.1h26.9l-0.1,0
			c-1-0.5-1.3-1.8-0.8-2.7c0.5-1,1.7-1.3,2.7-0.8l1.2,0.6C225.2,155.5,223,150.4,221.2,145.8z M230.6,167h-0.3l0.5,0.2
			C230.7,167.2,230.6,167.1,230.6,167z M238.6,167l14.3,7.8l5.1-7.8H238.6z M310.6,139h-27.2c2.7,7.4,6.2,15.8,10.6,25h27.1
			C317.3,156.1,313.8,147.7,310.6,139z M301.8,108.1h-27.1c0.6,3.5,2.6,13.5,7.6,27.9h27.3C306.5,127,303.8,117.7,301.8,108.1z
			 M251.5,145.8c-0.9-2.4-1.8-4.6-2.6-6.8h-27c2.6,7.3,6,15.5,10.4,24.5l0.8,0.5h26.3C256.2,157.3,253.6,151.2,251.5,145.8z
			 M264.7,164h25.9c-3.2-6.7-5.8-12.8-7.9-18.2c-0.9-2.4-1.8-4.6-2.6-6.8h-27.9c2.5,6.7,5.5,14.3,9.4,22.5l0.2-0.4
			c0.6-0.9,1.8-1.2,2.8-0.6c0.9,0.6,1.2,1.8,0.6,2.8L264.7,164z M210.2,108.1h-33c0.7,3.6,3,13.6,8.4,27.9h32
			C212.5,121.2,210.7,111.2,210.2,108.1z M240.5,108.1h-27.3c0.6,3.5,2.6,13.5,7.6,27.9h27.1C242.8,121.2,241,111.2,240.5,108.1z
			 M271.7,108.1h-28.2c0.6,3.5,2.6,13.5,7.6,27.9h28C274,121.2,272.2,111.2,271.7,108.1z M172.6,167c0.3,0.1,0.5,0.2,0.8,0.3
			c3.2,1,6.3,0.9,8.8-0.3H172.6z M259.2,214h-30.3c4.5,6,9.3,12,14.5,18.2l29.9-0.1C268.2,226,263.5,219.9,259.2,214z M113.7,144.9
			c-0.9-2-1.7-4-2.5-5.9H77.3c3.4,7.9,7.5,16.8,12.3,26.1V164h33.5C119.3,156.9,116.2,150.5,113.7,144.9z M124.7,167H90.6
			c3.6,6.9,7.7,14,12.1,21h34.5C132.4,180.5,128.2,173.5,124.7,167z M174,191h-9.3c2.4,3.4,1.9,7.8-1,9.9c-3,2.1-7.3,1.1-9.8-2.3
			c-1.7-2.4-2-5.3-1-7.6h-10.1c4.3,6.5,9.1,13.1,14.4,20h30.3C182.5,204.1,178,197.4,174,191z M139.2,191h-34.6
			c4.4,6.8,9.2,13.5,14.4,20h34.4C148.2,204.1,143.5,197.4,139.2,191z M189.8,214h-30.2c4.7,6,9.9,12.2,15.4,18.4l29.2-0.1
			C199,226.1,194.2,220,189.8,214z M155.8,214h-34.3c5.5,6.6,11.4,12.8,17.7,18.5l31.8-0.1C165.5,226.1,160.4,220,155.8,214z
			 M209.5,191h-32c4.1,6.5,8.7,13.2,13.7,20H223C218,204.1,213.5,197.4,209.5,191z M225.1,214h-31.6c4.5,6,9.4,12.1,14.7,18.3
			l31.3-0.1C234.3,226,229.5,220,225.1,214z M160.2,167h-32c3.7,6.6,7.9,13.7,12.7,21h15c1.6-0.8,3.5-0.7,5.2,0h11.1
			C167.6,180.6,163.6,173.5,160.2,167z M174.1,108.1h-33.7c0.8,3.6,3.4,13.6,9,27.9h8.2c0.8-1,1.7-1.8,2.7-2.5
			c2.4-1.7,5.3-2.6,8.4-2.6c1.8,0,3.6,0.3,5.5,0.9c2.8,0.9,5.4,2.3,7.8,4.3h0.3C176.8,121.2,174.7,111.2,174.1,108.1z M173,135.5
			c-3.4-1.1-6.6-0.9-9.2,0.5h10.4C173.8,135.8,173.4,135.7,173,135.5z M324.4,164c0.1,0.2,0.2,0.3,0.2,0.5V164H324.4z"/>
		<path class="st2" d="M0.9,54.2c0,0,0-0.1,0.1-0.1C1,54,1,53.9,1,53.9C1,54,0.9,54.1,0.9,54.2z M0.5,56.1c0,0,0,0.1,0,0.1
			c0,0.1,0,0.2,0,0.2V55c0-0.1,0-0.2,0-0.2C0.5,55.2,0.5,55.7,0.5,56.1z"/>
		<path class="st1" d="M343.3,124.9c-11.1-34.2-13.5-60.9-14-68.2h-39.1c-0.1,1.4-0.4,2.9-0.9,4.2c-1.2,3.3-4.4,6.4-8.1,7.7
			c-1.4,0.5-3.1,0.9-5.1,0.9c-2.7,0-5.8-0.7-9.3-2.8c-0.7-0.4-1-1.3-0.5-2c0.4-0.7,1.3-1,2-0.5c5.2,3,9.3,2.6,11.9,1.6
			c3.6-1.3,5.7-4,6.4-5.9c0.4-1,0.6-2.1,0.7-3.2h-72.1c-0.1,1.4-0.4,2.9-0.9,4.2c-1.2,3.3-4.4,6.4-8.1,7.7c-1.4,0.5-3.1,0.9-5.1,0.9
			c-2.6,0-5.8-0.7-9.3-2.8c-0.7-0.4-1-1.3-0.5-2c0.4-0.7,1.3-1,2-0.5c5.2,3,9.3,2.6,11.9,1.6c3.6-1.3,5.7-4,6.4-5.9
			c0.4-1,0.6-2.1,0.7-3.2H140c-0.1,1.4-0.4,2.9-0.9,4.2c-1.2,3.3-4.4,6.4-8.1,7.7c-1.4,0.5-3.1,0.9-5.1,0.9c-2.7,0-5.8-0.7-9.3-2.8
			c-0.7-0.4-0.9-1.3-0.5-2c0.4-0.7,1.3-1,2-0.5c5.2,3,9.3,2.6,11.9,1.6c3.6-1.3,5.7-4,6.4-5.9c0.4-1,0.6-2.1,0.7-3.2H65
			c-0.1,1.4-0.4,2.9-0.9,4.2c-1.2,3.3-4.4,6.4-8.1,7.7c-1.4,0.5-3.1,0.9-5.1,0.9c-2.7,0-5.8-0.7-9.3-2.8c-0.7-0.4-0.9-1.3-0.5-2
			c0.4-0.7,1.3-1,2-0.5c5.2,3,9.3,2.6,11.9,1.6c3.6-1.3,5.7-4,6.4-5.9c0.4-1,0.6-2.1,0.7-3.2H4.8C4.9,57.1,5,57.6,5.1,58
			c10.5,45.1,30.7,108.2,68.1,158.3c20.8,27.8,37.9,39.5,40.9,41.4h312.8C379,212.8,355,160.9,343.3,124.9z M217.7,81.5h5.8
			c0.6,0,1.2,0.1,1.7,0.4c0.5,0.2,1,0.6,1.3,1c0.4,0.4,0.7,0.9,0.9,1.4c0.2,0.5,0.3,1,0.3,1.6c0,0.9-0.2,1.6-0.6,2.3
			c-0.4,0.7-1,1.2-1.7,1.5l3.1,5h-2.9l-2.8-4.4h-2.5v4.4h-2.6V81.5z M206.5,81.5h9v2.2H209v3.2h5.5v2.1H209v3.4h6.6v2.2h-9.1V81.5z
			 M193.9,81.5h7c0.5,0,0.9,0.1,1.2,0.3s0.7,0.5,0.9,0.8c0.3,0.3,0.5,0.7,0.6,1.1c0.1,0.4,0.2,0.8,0.2,1.2c0,0.6-0.2,1.2-0.5,1.8
			s-0.8,1-1.4,1.2c0.8,0.2,1.4,0.6,1.8,1.2c0.4,0.6,0.7,1.3,0.7,2.2c0,0.6-0.1,1-0.3,1.5c-0.2,0.4-0.5,0.8-0.9,1.1
			c-0.4,0.3-0.8,0.5-1.4,0.7c-0.5,0.1-1.1,0.2-1.6,0.2h-6.4V81.5z M177.8,81.5h2.7l3.9,7.5l3.9-7.5h2.7v13.2h-2.6v-8.7l-3.4,6.5
			h-1.4l-3.4-6.5v8.7h-2.6V81.5z M166.6,81.5h9v2.2h-6.4v3.2h5.5v2.1h-5.5v3.4h6.6v2.2h-9.1V81.5z M155.5,81.5l3.6,10l3.5-10h2.7
			l-5.1,13.2H158l-5.2-13.2H155.5z M140.6,85.5c0.3-0.8,0.8-1.5,1.3-2.1c0.6-0.6,1.2-1.1,2-1.5c0.8-0.4,1.6-0.6,2.5-0.6
			c0.9,0,1.8,0.2,2.5,0.6c0.8,0.4,1.4,0.9,2,1.5c0.5,0.6,1,1.3,1.3,2.2c0.3,0.8,0.5,1.6,0.5,2.5c0,0.9-0.2,1.7-0.5,2.5
			c-0.3,0.8-0.8,1.5-1.3,2.1c-0.6,0.6-1.2,1.1-2,1.5c-0.8,0.4-1.6,0.5-2.5,0.5c-0.9,0-1.8-0.2-2.5-0.6c-0.8-0.4-1.4-0.9-2-1.5
			c-0.5-0.6-1-1.3-1.3-2.2c-0.3-0.8-0.4-1.6-0.4-2.5C140.1,87.2,140.3,86.3,140.6,85.5z M126.8,81.5h2l6.9,8.6v-8.6h2.6v13.1h-2.1
			l-6.8-8.4v8.4h-2.6V81.5z M367.7,233.9c-0.2,0.5-0.8,0.9-1.4,0.9l-28.5,0.1l-0.3,0.3c-0.1-0.1-0.2-0.2-0.2-0.3l-18.8,0.1l-3,0
			l-3,0l-5.9,0l-0.2,0.2c0-0.1-0.1-0.1-0.2-0.2l-30,0.1l-0.1,0.1c0,0-0.1-0.1-0.1-0.1l-137.3,0.4c-0.4,0-0.7-0.1-1-0.4
			c-49.2-44-73.4-121.7-75.2-127.8c-0.1-0.2-0.2-0.5-0.2-0.7v-0.1c0-0.8,0.5-1.4,1.3-1.5c0.3,0,0.5,0,0.8,0.1H303
			c0.7,0,1.3,0.5,1.5,1.2c4.2,20.6,11.6,40.3,19.9,57.7h0.2v0.5c19,39.6,42.5,67.4,42.8,67.8C367.8,232.8,367.9,233.4,367.7,233.9z"
			/>
		<path class="st1" d="M207.7,188h-32c-4.5-7.3-8.5-14.3-12-21h1c2.3,1.8,4.9,3.2,7.6,4.1c1.9,0.6,3.7,0.9,5.5,0.9
			c3.1,0,6-0.9,8.4-2.6c0.9-0.7,1.8-1.5,2.5-2.3h7.4c0,0,0,0.1,0,0.1c0.2,0.4,0.4,0.8,0.6,1.2C199.8,174.5,203.5,181.1,207.7,188z"
			/>
	</g>
	<g>
		<path class="st2" d="M307.5,232h-0.3l0.5,0.3C307.7,232.2,307.6,232.1,307.5,232z"/>
		<path class="st1" d="M303.5,232l-26.3,0.1c-5.2-6.1-10-12.1-14.4-18.1h26.6c1.8,2.5,3.7,5,5.7,7.6c0.8,1,1.6,2.1,2.5,3.2
			c0.8,1.1,1.7,2.2,2.6,3.2C301.3,229.3,302.4,230.6,303.5,232z"/>
		<path class="st1" d="M334.7,231.9l-21.5,0.1l-3,0l-2.7,0c-0.9-1-1.7-2-2.6-3c-0.9-1.1-1.8-2.2-2.7-3.3c-0.4-0.5-0.8-1-1.2-1.5
			c1.3,0.1,2.7-0.3,3.8-1.1c2.7-1.9,3.3-5.8,1.5-9.1h14.3C324.9,219.9,329.6,225.8,334.7,231.9z"/>
		<path class="st1" d="M287.3,211h-26.6c-2.4-3.3-4.6-6.5-6.7-9.7c-0.6-0.9-1.3-1.9-1.9-2.8c-0.6-0.9-1.2-1.8-1.8-2.8
			c-1-1.6-2-3.2-3-4.8h26.8C278,197.4,282.4,204.1,287.3,211z"/>
		<path class="st1" d="M257,211h-30.3c-5-6.8-9.5-13.5-13.6-20h29l0.1,0.1l-0.8,1.2l-0.1,0.2c-0.3,0.4-0.4,0.9-0.3,1.3
			c0.1,0.6,0.4,1.1,0.9,1.5c0.3,0.2,0.7,0.3,1.1,0.3c0.3,0,0.6-0.1,0.8-0.2c0.3-0.1,0.6-0.4,0.9-0.7l0.2-0.4l0.5-0.8
			c0.3,0.6,0.7,1.1,1.1,1.7c0.6,0.9,1.2,1.8,1.8,2.7C250.9,202.2,253.8,206.6,257,211z"/>
		<path class="st1" d="M242,188h-30.8c-3.6-5.8-6.8-11.5-9.7-16.9c-0.4-0.8-0.9-1.7-1.3-2.5c-0.3-0.6-0.6-1.1-0.9-1.7h30.9l0.5,0.2
			C233.9,173.7,237.6,180.7,242,188z"/>
		<path class="st1" d="M194.4,164h-3.9c0.1-0.2,0.2-0.5,0.3-0.8c0.2-0.5,0.4-0.9,0.5-1.4c0.3-0.9,0.5-1.9,0.6-2.9
			c0.7,1.5,1.4,3,2.2,4.5C194.2,163.6,194.3,163.8,194.4,164z"/>
		<path class="st1" d="M155.8,139c-0.3,0.6-0.5,1.2-0.7,1.9c-0.2,0.5-0.3,1-0.4,1.5c-0.1,0.5-0.2,1-0.3,1.6
			c-0.2,1.2-0.2,2.5-0.1,3.7c-0.8-1.7-1.5-3.4-2.2-5.1h0c-0.3-0.8-0.6-1.5-0.9-2.3h0c-0.2-0.5-0.4-0.9-0.5-1.4H155.8z"/>
		<path class="st1" d="M146.1,136h-32.8c-3.2-8-5.4-14.7-6.8-19.6h0c-0.2-0.7-0.4-1.4-0.6-2.1c-0.2-0.7-0.4-1.4-0.5-2
			c-0.5-1.8-0.8-3.2-1-4.2h33c0.6,3,3,12.9,8.6,27.6C146,135.8,146,135.9,146.1,136z"/>
		<path class="st1" d="M110,136H76.1c-5.6-13.4-9-23.7-10.3-27.9h35.5c0.1,0.5,0.2,1.2,0.5,2.1c0.1,0.6,0.3,1.2,0.5,2h0
			c0.2,0.6,0.3,1.3,0.5,2c0,0,0,0,0,0C104,119.2,106.3,126.6,110,136z"/>
	</g>
	<g>
		<path class="st2" d="M337.8,234.9l-0.3,0.3c-0.1-0.1-0.2-0.2-0.2-0.3H337.8z"/>
	</g>
	<g>
		<path class="st2" d="M274.3,191h-0.3c0-0.1-0.1-0.1-0.1-0.2L274.3,191z"/>
		<path class="st2" d="M306.5,235l-0.2,0.2c0-0.1-0.1-0.1-0.2-0.2L306.5,235z"/>
		<path class="st2" d="M307.8,232.3l-0.5-0.3h0.3C307.6,232.1,307.7,232.2,307.8,232.3z"/>
	</g>
	<g>
		<path class="st2" d="M247.3,191H247l0.2-0.2C247.2,190.8,247.3,190.9,247.3,191z"/>
		<path class="st2" d="M276.1,235.1l-0.1,0.1c0,0-0.1-0.1-0.1-0.1H276.1z"/>
	</g>
	<g>
		<path class="st2" d="M146.5,136h-0.4c0-0.1-0.1-0.2-0.1-0.3L146.5,136z"/>
	</g>
	<g>
		<path class="st2" d="M324.6,164v0.5c-0.1-0.2-0.2-0.3-0.2-0.5H324.6z"/>
	</g>
	<g>
		<path class="st2" d="M247.3,191H247l0.2-0.2C247.2,190.8,247.3,190.9,247.3,191z"/>
		<path class="st2" d="M274.3,191h-0.3c0-0.1-0.1-0.1-0.1-0.2L274.3,191z"/>
	</g>
	<g>
		<path class="st2" d="M367.4,232.3c-0.3-0.4-23.9-28.2-42.8-67.8c-0.1-0.2-0.2-0.3-0.2-0.5c-8.3-17.4-15.7-37.1-19.9-57.7
			c-0.1-0.7-0.8-1.2-1.5-1.2H64.2c-0.2-0.1-0.5-0.1-0.8-0.1c-0.7,0.1-1.3,0.7-1.3,1.5v0.1c0,0.2,0.1,0.5,0.2,0.7
			c1.9,6.2,26,83.9,75.2,127.8c0.3,0.2,0.6,0.4,1,0.4l137.3-0.4h0.2l30-0.1l0.4,0l5.9,0l3,0l3,0l18.8-0.1h0.6l28.5-0.1
			c0.6,0,1.1-0.3,1.4-0.9C367.9,233.4,367.8,232.8,367.4,232.3z M347.9,211h-25.7c-5-6.8-9.4-13.5-13.4-20h26.5
			C339.7,198.5,344,205.2,347.9,211z M291,211c-4.3-5.9-8.1-11.7-11.7-17.3l3,1.6c0.3,0.2,0.6,0.2,1,0.2c0.7,0,1.4-0.4,1.8-1
			c0.5-1,0.2-2.2-0.8-2.7l-1.5-0.8h22.6c3.9,6.4,8.3,13.1,13.2,20h-14.8c-2.4-1.7-5.5-1.9-7.7-0.3c-0.1,0.1-0.2,0.2-0.3,0.3H291z
			 M293.7,214c0,0.2-0.1,0.3-0.1,0.5c-0.1-0.2-0.3-0.3-0.4-0.5H293.7z M154.3,147.7c-0.8-1.7-1.5-3.4-2.2-5.1h0
			c-0.3-0.8-0.6-1.5-0.9-2.3h0c-0.2-0.5-0.4-0.9-0.5-1.4h5.2c-0.3,0.6-0.5,1.2-0.7,1.9c-0.2,0.5-0.3,1-0.4,1.5
			c-0.1,0.5-0.2,1-0.3,1.6C154.2,145.2,154.2,146.5,154.3,147.7z M158.6,164h-32.1c-5-9.2-8.9-17.6-12-25h32.7
			c0.1,0.4,0.3,0.8,0.5,1.2c0.8,1.8,1.5,3.8,2.4,5.7C152.4,151.2,155.2,157.3,158.6,164z M179.3,139c1.7,1.3,3.2,2.9,4.5,4.8
			c2.9,4,4.4,8.6,4.3,12.9c0,1.1-0.2,2.1-0.4,3.1c-0.1,0.5-0.3,1-0.4,1.5c-0.2,0.5-0.4,0.9-0.6,1.4c-0.3,0.5-0.5,1-0.9,1.4h-18.6
			c-1.8-1.4-3.4-3-4.7-5c-3-4.1-4.4-8.8-4.3-12.9c0-0.6,0-1.1,0.1-1.7c0.1-0.5,0.1-1.1,0.3-1.6c0.4-1.5,0.9-2.8,1.8-4H179.3z
			 M163.8,136c2.6-1.3,5.8-1.5,9.2-0.5c0.4,0.1,0.9,0.3,1.3,0.5H163.8z M177.7,172c3.1,0,6-0.9,8.4-2.6c0.9-0.7,1.8-1.5,2.5-2.3h7.4
			c0,0,0,0.1,0,0.1c0.2,0.4,0.4,0.8,0.6,1.2c3.2,6.2,6.8,12.8,11.1,19.7h-32c-4.5-7.3-8.5-14.3-12-21h1c2.3,1.8,4.9,3.2,7.6,4.1
			C174.1,171.7,175.9,172,177.7,172z M172.6,167h9.6c-2.5,1.2-5.6,1.3-8.8,0.3C173.1,167.2,172.9,167.1,172.6,167z M190.5,164
			c0.1-0.2,0.2-0.5,0.3-0.8c0.2-0.5,0.4-0.9,0.5-1.4c0.3-0.9,0.5-1.9,0.6-2.9c0.7,1.5,1.4,3,2.2,4.5c0.1,0.2,0.2,0.4,0.3,0.6H190.5z
			 M201.5,171.1c-0.4-0.8-0.9-1.7-1.3-2.5c-0.3-0.6-0.6-1.1-0.9-1.7h31.2c0,0.1,0.1,0.2,0.1,0.2c3.2,6.5,6.9,13.4,11.3,20.8h-30.8
			C207.6,182.2,204.4,176.5,201.5,171.1z M235.4,169.8l15.3,8.3l-5.8,8.8C241.3,181,238.2,175.3,235.4,169.8z M238.6,167H258
			l-5.1,7.8L238.6,167z M254.2,180l14.6,8H249L254.2,180z M256.4,176.7l5.3-8c2.5,4.9,5.2,10.1,8.3,15.4L256.4,176.7z M264.3,167
			h27.8c3.2,6.5,7,13.6,11.4,21h-26.3l-2.1-1.1C271,180,267.4,173.3,264.3,167z M264.7,164l0.5-0.7c0.6-0.9,0.4-2.2-0.6-2.8
			c-0.9-0.6-2.2-0.4-2.8,0.6l-0.2,0.4c-3.9-8.2-7-15.8-9.4-22.5h27.9c0.8,2.2,1.6,4.5,2.6,6.8c2.1,5.4,4.7,11.5,7.9,18.2H264.7z
			 M259.4,164h-26.3l-0.8-0.5c-4.3-9-7.7-17.3-10.4-24.5h27c0.8,2.2,1.6,4.5,2.6,6.8C253.6,151.2,256.2,157.3,259.4,164z
			 M227.7,161.1l-1.2-0.6c-1-0.5-2.2-0.2-2.7,0.8c-0.5,1-0.2,2.2,0.8,2.7l0.1,0h-26.9c-2.5-4.9-4.7-9.7-6.6-14.1v0
			c-0.9-2-1.7-4-2.5-5.9c-0.7-1.7-1.4-3.4-2-5h31.9c0.8,2.2,1.6,4.5,2.6,6.8C223,150.4,225.2,155.5,227.7,161.1z M160.2,167
			c3.4,6.5,7.4,13.6,11.9,21h-11.1c-1.7-0.7-3.6-0.8-5.2,0h-15c-4.8-7.3-9-14.4-12.7-21H160.2z M152.9,191c-1,2.3-0.7,5.2,1,7.6
			c2.5,3.4,6.8,4.4,9.8,2.3c2.9-2.1,3.4-6.5,1-9.9h9.3c4,6.4,8.5,13.1,13.5,20h-30.3c-5.3-6.9-10.1-13.5-14.4-20H152.9z M177.6,191
			h32c4,6.4,8.4,13.1,13.4,20h-31.7C186.2,204.2,181.7,197.5,177.6,191z M213.1,191h29.1l0,0.1l-0.8,1.2l-0.1,0.2
			c-0.3,0.4-0.4,0.9-0.3,1.3c0.1,0.6,0.4,1.1,0.9,1.5c0.3,0.2,0.7,0.3,1.1,0.3c0.3,0,0.6-0.1,0.8-0.2c0.3-0.1,0.6-0.4,0.9-0.7
			l0.2-0.4l0.5-0.8c0.3,0.6,0.7,1.1,1.1,1.7c0.6,0.9,1.2,1.8,1.8,2.7c2.7,4.2,5.7,8.6,8.8,13h-30.3
			C221.7,204.2,217.2,197.5,213.1,191z M254,201.3c-0.6-0.9-1.3-1.9-1.9-2.8c-0.6-0.9-1.2-1.8-1.8-2.8c-1-1.6-2-3.2-3-4.8H247
			l0.2-0.2c0.1,0.1,0.1,0.2,0.2,0.2h26.8c0-0.1-0.1-0.1-0.1-0.2l0.4,0.2h-0.3c3.9,6.4,8.3,13.1,13.2,20h-26.6
			C258.3,207.7,256.1,204.5,254,201.3z M333.6,188H307c-4.4-7.3-8.2-14.3-11.5-21h27C326.1,174.5,329.9,181.5,333.6,188z M321.1,164
			H294c-4.5-9.2-7.9-17.6-10.6-25h27.2C313.8,147.7,317.3,156.1,321.1,164z M301.8,108.1c2,9.6,4.7,18.9,7.8,27.9h-27.3
			c-5-14.4-7-24.4-7.6-27.9H301.8z M271.7,108.1c0.5,3.1,2.3,13.1,7.4,27.9h-28c-5-14.4-7-24.4-7.6-27.9H271.7z M240.5,108.1
			c0.5,3.1,2.3,13.1,7.4,27.9h-27.1c-5-14.4-7-24.4-7.6-27.9H240.5z M210.2,108.1c0.5,3.1,2.3,13.1,7.4,27.9h-32
			c-5.4-14.3-7.7-24.3-8.4-27.9H210.2z M174.1,108.1c0.6,3.1,2.7,13.1,8.2,27.9H182c-2.4-2-5-3.4-7.8-4.3c-1.9-0.6-3.7-0.9-5.5-0.9
			c-3.1,0-6,0.9-8.4,2.6c-1,0.7-1.9,1.6-2.7,2.5h-8.2c-5.6-14.3-8.1-24.3-9-27.9H174.1z M137.3,108.1c0.6,3,3,12.9,8.6,27.6l0.6,0.3
			h-33.2c-3.2-8-5.4-14.7-6.8-19.6h0c-0.2-0.7-0.4-1.4-0.6-2.1c-0.2-0.7-0.4-1.4-0.5-2c-0.5-1.8-0.8-3.2-1-4.2H137.3z M65.8,108.1
			h35.5c0.1,0.5,0.2,1.2,0.5,2.1c0.1,0.6,0.3,1.2,0.5,2h0c0.2,0.6,0.3,1.3,0.5,2c0,0,0,0,0,0c1.3,5,3.5,12.4,7.3,21.7H76.1
			C70.5,122.6,67.1,112.3,65.8,108.1z M89.6,165.1c-4.8-9.3-8.9-18.2-12.3-26.1h33.9c0.8,1.9,1.6,3.8,2.5,5.9
			c2.5,5.6,5.5,12,9.3,19.1H89.6V165.1z M90.6,167h34.1c3.6,6.5,7.7,13.5,12.6,21h-34.5C98.3,181,94.2,173.9,90.6,167z M104.6,191
			h34.6c4.2,6.4,9,13.1,14.2,20H119C113.8,204.5,109,197.8,104.6,191z M139.2,232.5c-6.3-5.7-12.2-11.9-17.7-18.5h34.3
			c4.7,6,9.7,12.1,15.2,18.4L139.2,232.5z M175,232.4c-5.6-6.2-10.7-12.4-15.4-18.4h30.2c4.4,6,9.2,12.1,14.5,18.3L175,232.4z
			 M208.2,232.3c-5.3-6.2-10.2-12.3-14.7-18.3h31.6c4.4,6,9.2,12,14.3,18.2L208.2,232.3z M243.4,232.2c-5.2-6.1-10.1-12.2-14.5-18.2
			h30.3c4.3,5.9,9,12,14.2,18.1L243.4,232.2z M277.3,232.1c-5.2-6.1-10-12.1-14.4-18.1h26.6c1.8,2.5,3.7,5,5.7,7.6
			c0.8,1,1.6,2.1,2.5,3.2c0.8,1.1,1.7,2.2,2.6,3.2c1.1,1.3,2.2,2.7,3.3,4L277.3,232.1z M313.2,232l-3,0l-2.7,0
			c0.1,0.1,0.2,0.2,0.3,0.3l-0.5-0.3h0.3c-0.9-1-1.7-2-2.6-3c-0.9-1.1-1.8-2.2-2.7-3.3c-0.4-0.5-0.8-1-1.2-1.5
			c1.3,0.1,2.7-0.3,3.8-1.1c2.7-1.9,3.3-5.8,1.5-9.1h14.3c4.3,5.9,8.9,11.8,14,17.9L313.2,232z M338.6,231.9
			c-5.1-6-9.9-12-14.2-17.9h25.2v-0.5c6,8.8,10.9,15.1,13.5,18.4L338.6,231.9z"/>
		<path class="st1" d="M158.6,164h-32.1c-5-9.2-8.9-17.6-12-25h32.7c0.1,0.4,0.3,0.8,0.5,1.2c0.8,1.8,1.5,3.8,2.4,5.7
			C152.4,151.2,155.2,157.3,158.6,164z"/>
	</g>
	<g>
		<path class="st2" d="M188.7,144c0.8,1.9,1.6,3.9,2.5,5.9C190.6,147.9,189.8,145.9,188.7,144z"/>
		<path class="st1" d="M188.1,156.7c0,1.1-0.2,2.1-0.4,3.1c-0.1,0.5-0.3,1-0.4,1.5c-0.2,0.5-0.4,0.9-0.6,1.4c-0.3,0.5-0.5,1-0.9,1.4
			h-18.6c-1.8-1.4-3.4-3-4.7-5c-3-4.1-4.4-8.8-4.3-12.9c0-0.6,0-1.1,0.1-1.7c0.1-0.5,0.1-1.1,0.3-1.6c0.4-1.5,0.9-2.8,1.8-4h19
			c1.7,1.3,3.2,2.9,4.5,4.8C186.7,147.8,188.2,152.3,188.1,156.7z"/>
	</g>
	<g>
		<path class="st2" d="M230.7,167.2l-0.5-0.2h0.3C230.6,167.1,230.7,167.2,230.7,167.2z"/>
	</g>
	<g>
		<path class="st2" d="M433.3,258.2c-49.7-45.1-74.3-98-86.2-134.5c-12.9-39.6-14-68.8-14-69.1c0-1.1-0.9-1.9-2-1.9H290
			c-0.1-0.7-0.3-1.3-0.5-1.9c-1.8-5-5.6-7.5-8.5-8.6c-5.3-2.2-11.5-1.2-15.6,2.5c-3,2.7-4.1,6-4.5,8h-46.1c-0.1-0.7-0.3-1.3-0.5-1.9
			c-1.8-5-5.6-7.5-8.4-8.6c-5.4-2.2-11.5-1.2-15.6,2.5c-3,2.7-4.1,6-4.5,8h-46.1c-0.1-0.7-0.3-1.3-0.5-1.9c-1.8-5-5.6-7.5-8.5-8.6
			c-5.3-2.2-11.5-1.2-15.6,2.5c-3,2.7-4.1,6-4.5,8h-46c-0.1-0.7-0.3-1.3-0.5-1.9c-1.8-5-5.6-7.5-8.5-8.6C50.5,40,44.4,41,40.3,44.7
			c-3,2.7-4.1,6-4.5,8H3.3c-0.8,0-1.6,0.4-2.1,1v0c0,0-0.1,0.1-0.1,0.2C1,53.9,1,54,1,54c0,0-0.1,0.1-0.1,0.1c0,0.1-0.1,0.1-0.1,0.2
			c0,0,0,0,0,0c0,0.1-0.1,0.2-0.1,0.2c0,0,0,0,0,0.1c0,0,0,0,0,0.1c0,0,0,0,0,0c0,0.1,0,0.1,0,0.2v259c0,0.8,0.7,1.5,1.5,1.5
			c0.8,0,1.5-0.7,1.5-1.5V107.4l7.8,206.9c0,0.8,0.7,1.4,1.5,1.4H13c0.8,0,1.5-0.7,1.4-1.6l-7.3-194l18.4,194.2
			c0.1,0.8,0.7,1.4,1.5,1.4c0,0,0.1,0,0.1,0c0.8-0.1,1.4-0.8,1.3-1.6L10.2,120.8L37,310.3c0.4,3.1,3.1,5.5,6.3,5.5H366
			c0.4,0,0.8-0.2,1.1-0.5c0.3-0.3,0.4-0.8,0.4-1.2l-7.5-52.4h72c0.8,0,1.6-0.5,1.9-1.3C434.2,259.7,434,258.8,433.3,258.2z
			 M267.5,46.9c3.2-2.9,8.1-3.7,12.4-1.9c3.3,1.3,5.6,3.6,6.7,6.8c0.1,0.3,0.2,0.6,0.3,0.9h-22.9C264.5,51.1,265.4,48.8,267.5,46.9z
			 M192.4,46.9c3.2-2.9,8.1-3.7,12.4-1.9c3.3,1.3,5.6,3.6,6.7,6.8c0.1,0.3,0.2,0.6,0.3,0.9H189C189.4,51.1,190.3,48.8,192.4,46.9z
			 M117.3,46.9c3.2-2.9,8.1-3.7,12.4-1.9c3.3,1.3,5.6,3.6,6.7,6.8c0.1,0.3,0.2,0.6,0.3,0.9h-22.9C114.3,51.1,115.2,48.8,117.3,46.9z
			 M42.3,46.9c3.2-2.9,8.1-3.7,12.4-1.9c3.3,1.3,5.6,3.6,6.7,6.8c0.1,0.3,0.2,0.6,0.3,0.9H38.9C39.3,51.1,40.2,48.8,42.3,46.9z
			 M364.3,312.8h-321c-1.6,0-3.1-1.3-3.3-2.9L8.4,87c14.2,49.8,32,86.2,47.8,111.6c4.8,7.7,9.4,14.4,13.8,20.2
			c23.2,31,41.7,42.3,42.5,42.7c0.3,0.2,0.7,0.3,1,0.3H357L364.3,312.8z M114.1,257.7c-3-1.9-20.1-13.7-40.9-41.4
			C35.7,166.2,15.5,103.1,5.1,58c-0.1-0.4-0.2-0.9-0.3-1.3H62c-0.1,1.1-0.4,2.2-0.7,3.2c-0.7,1.9-2.8,4.6-6.4,5.9
			c-2.5,0.9-6.7,1.4-11.9-1.6c-0.7-0.4-1.6-0.2-2,0.5c-0.4,0.7-0.2,1.6,0.5,2c3.5,2.1,6.7,2.8,9.3,2.8c2,0,3.7-0.4,5.1-0.9
			c3.8-1.4,7-4.4,8.1-7.7c0.5-1.3,0.8-2.8,0.9-4.2h72c-0.1,1.1-0.4,2.2-0.7,3.2c-0.7,1.9-2.8,4.6-6.4,5.9c-2.5,0.9-6.7,1.4-11.9-1.6
			c-0.7-0.4-1.6-0.2-2,0.5c-0.4,0.7-0.2,1.6,0.5,2c3.5,2.1,6.7,2.8,9.3,2.8c2,0,3.7-0.4,5.1-0.9c3.8-1.4,7-4.4,8.1-7.7
			c0.5-1.3,0.8-2.8,0.9-4.2h72.1c-0.1,1.1-0.3,2.2-0.7,3.2c-0.7,1.9-2.8,4.6-6.4,5.9c-2.6,0.9-6.7,1.4-11.9-1.6
			c-0.7-0.4-1.6-0.2-2,0.5c-0.4,0.7-0.2,1.6,0.5,2c3.5,2.1,6.7,2.8,9.3,2.8c2,0,3.7-0.4,5.1-0.9c3.8-1.4,7-4.4,8.1-7.7
			c0.5-1.3,0.8-2.8,0.9-4.2h72.1c-0.1,1.1-0.3,2.2-0.7,3.2c-0.7,1.9-2.8,4.6-6.4,5.9c-2.5,0.9-6.7,1.4-11.9-1.6
			c-0.7-0.4-1.6-0.2-2,0.5c-0.4,0.7-0.2,1.6,0.5,2c3.5,2.1,6.7,2.8,9.3,2.8c2,0,3.7-0.4,5.1-0.9c3.8-1.4,7-4.4,8.1-7.7
			c0.5-1.3,0.8-2.8,0.9-4.2h39.1c0.5,7.2,2.9,33.9,14,68.2c11.7,36,35.6,87.9,83.6,132.8H114.1z"/>
	</g>
	<g class="st4">
		<path class="st2" d="M135.6,81.5v8.6l-6.9-8.6h-2v13.2h2.6v-8.4l6.8,8.4h2.1V81.5H135.6z"/>
		<path class="st2" d="M152.2,85.6c-0.3-0.8-0.7-1.5-1.3-2.2c-0.5-0.6-1.2-1.1-2-1.5c-0.8-0.4-1.6-0.6-2.5-0.6
			c-0.9,0-1.7,0.2-2.5,0.6c-0.8,0.4-1.4,0.9-2,1.5c-0.6,0.6-1,1.3-1.3,2.1c-0.3,0.8-0.5,1.6-0.5,2.5c0,0.8,0.1,1.7,0.4,2.5
			c0.3,0.8,0.7,1.5,1.3,2.2c0.6,0.6,1.2,1.1,2,1.5c0.8,0.4,1.6,0.6,2.5,0.6c0.9,0,1.7-0.2,2.5-0.5c0.8-0.4,1.4-0.9,2-1.5
			c0.5-0.6,1-1.3,1.3-2.1c0.3-0.8,0.5-1.6,0.5-2.5C152.6,87.2,152.5,86.4,152.2,85.6z M149.8,89.6c-0.2,0.5-0.4,1-0.7,1.4
			c-0.3,0.4-0.7,0.8-1.1,1c-0.4,0.3-1,0.4-1.6,0.4c-0.6,0-1.1-0.1-1.6-0.4c-0.5-0.2-0.8-0.6-1.2-1c-0.3-0.4-0.6-0.9-0.7-1.4
			c-0.2-0.5-0.2-1.1-0.2-1.6c0-0.6,0.1-1.1,0.2-1.6c0.2-0.5,0.4-1,0.7-1.4c0.3-0.4,0.7-0.8,1.2-1c0.5-0.2,1-0.4,1.6-0.4
			c0.6,0,1.1,0.1,1.5,0.4c0.5,0.2,0.8,0.6,1.2,1c0.3,0.4,0.6,0.9,0.7,1.4c0.2,0.5,0.3,1.1,0.3,1.7C150.1,88.6,150,89.1,149.8,89.6z"
			/>
		<path class="st2" d="M162.6,81.5l-3.5,10l-3.6-10h-2.7l5.2,13.2h2.1l5.1-13.2H162.6z"/>
		<path class="st2" d="M169.2,92.4v-3.4h5.5v-2.1h-5.5v-3.2h6.4v-2.2h-9v13.2h9.1v-2.2H169.2z"/>
		<path class="st2" d="M188.4,81.5l-3.9,7.5l-3.9-7.5h-2.7v13.2h2.6v-8.7l3.4,6.5h1.4l3.4-6.5v8.7h2.6V81.5H188.4z"/>
		<path class="st2" d="M203.8,89.1c-0.4-0.6-1-1-1.8-1.2c0.6-0.3,1.1-0.7,1.4-1.2s0.5-1.2,0.5-1.8c0-0.4-0.1-0.8-0.2-1.2
			c-0.1-0.4-0.3-0.8-0.6-1.1c-0.3-0.3-0.6-0.6-0.9-0.8s-0.8-0.3-1.2-0.3h-7v13.2h6.4c0.6,0,1.1-0.1,1.6-0.2c0.5-0.2,1-0.4,1.4-0.7
			c0.4-0.3,0.7-0.6,0.9-1.1c0.2-0.4,0.3-0.9,0.3-1.5C204.5,90.3,204.3,89.6,203.8,89.1z M196.4,83.6h3.5c0.4,0,0.8,0.2,1,0.5
			c0.3,0.3,0.4,0.7,0.4,1.2c0,0.5-0.1,0.9-0.5,1.2c-0.3,0.3-0.7,0.4-1.1,0.4h-3.4V83.6z M201.8,91.4c-0.1,0.2-0.2,0.4-0.4,0.5
			c-0.1,0.1-0.3,0.3-0.5,0.4c-0.2,0.1-0.4,0.1-0.7,0.1h-3.8V89h3.9c0.2,0,0.4,0.1,0.6,0.1c0.2,0.1,0.4,0.2,0.5,0.4
			c0.1,0.2,0.2,0.4,0.3,0.6c0.1,0.2,0.1,0.4,0.1,0.7C201.9,91,201.9,91.2,201.8,91.4z"/>
		<path class="st2" d="M209,92.4v-3.4h5.5v-2.1H209v-3.2h6.4v-2.2h-9v13.2h9.1v-2.2H209z"/>
		<path class="st2" d="M225.3,89.7c0.7-0.3,1.3-0.8,1.7-1.5c0.4-0.7,0.6-1.5,0.6-2.3c0-0.5-0.1-1.1-0.3-1.6c-0.2-0.5-0.5-1-0.9-1.4
			c-0.4-0.4-0.8-0.8-1.3-1c-0.5-0.3-1.1-0.4-1.7-0.4h-5.8v13.2h2.6v-4.4h2.5l2.8,4.4h2.9L225.3,89.7z M225,86.7
			c-0.1,0.3-0.2,0.5-0.4,0.7c-0.1,0.2-0.3,0.3-0.5,0.5c-0.2,0.1-0.4,0.2-0.7,0.2h-3.2v-4.3h3.1c0.2,0,0.4,0,0.7,0.2
			c0.2,0.1,0.4,0.2,0.6,0.4c0.2,0.2,0.3,0.4,0.4,0.7c0.1,0.3,0.2,0.5,0.2,0.9C225.1,86.1,225.1,86.4,225,86.7z"/>
	</g>
</g>
</svg>
