<?xml version="1.0" encoding="utf-8"?>
<!-- Generator: Adobe Illustrator 19.2.0, SVG Export Plug-In . SVG Version: 6.00 Build 0)  -->
<!DOCTYPE svg PUBLIC "-//W3C//DTD SVG 1.1//EN" "http://www.w3.org/Graphics/SVG/1.1/DTD/svg11.dtd">
<svg version="1.1" id="Layer_1" xmlns="http://www.w3.org/2000/svg" xmlns:xlink="http://www.w3.org/1999/xlink" x="0px" y="0px"
	 viewBox="0 0 148.1 156.6" style="enable-background:new 0 0 148.1 156.6;" xml:space="preserve">
<style type="text/css">
	.st0{fill:#231F20;}
</style>
<g>
	<g>
		<g>
			<path class="st0" d="M64.4,96.3c-2,19.5-4.7,39-7.1,58.4c-0.1,0.6-0.4,1-0.8,1.4c0,0,0,0,0,0c-0.8,0.8-2.7,0.8-3.3-0.7
				c-4.3-10.8-7.2-21.9-8.7-33.4c-2.5,9.8-5.4,19.5-8.6,29.1c0,0,0,0,0,0.1c0,0,0,0,0,0c-0.4,1-1.5,1.3-2.3,1.1c0,0-0.1,0-0.1,0
				c-0.5-0.2-1-0.6-1.2-1.2c0,0,0,0,0,0c-0.1-0.1-0.1-0.3-0.1-0.5c-2.1-17.7-3.5-35.6-4.3-53.5c-2.6,3.6-6.5,5.6-11.4,2.5
				c-2-1.3-0.1-4.5,1.8-3.2c5.9,3.8,8.8-4.2,9.3-8.5c0.3-2.3,3.7-2.5,3.8,0c0.5,18.2,1.7,36.3,3.7,54.3c3.3-10.5,6.2-21.2,8.5-32
				c0-0.1,0.1-0.3,0.1-0.4c0.1-0.6,0.4-1,0.8-1.2c0,0,0,0,0,0c0.1,0,0.1-0.1,0.2-0.1c0.1,0,0.2-0.1,0.3-0.1c0.1,0,0.1,0,0.2,0
				c0.2,0,0.3,0,0.5,0c0.4,0.1,0.7,0.2,1,0.5c0,0,0.1,0.1,0.1,0.1c0.1,0.1,0.1,0.2,0.2,0.2c0.2,0.3,0.2,0.6,0.3,1c0,0.1,0,0.3,0,0.4
				c0.5,12.8,3,25.3,7.1,37.3c2.2-17.2,4.5-34.3,6.2-51.5C60.9,93.9,64.6,93.9,64.4,96.3z"/>
			<path class="st0" d="M35.9,151.2c-0.2,1-1.4,1.4-2.3,1.1C34.4,152.5,35.5,152.2,35.9,151.2z"/>
		</g>
	</g>
	<g>
		<g>
			<path class="st0" d="M33.5,152.3c-0.6-0.2-1.1-0.6-1.2-1.2C32.5,151.7,32.9,152.1,33.5,152.3z"/>
			<path class="st0" d="M47.2,110.6c0-0.1,0-0.3,0-0.4c0-0.4-0.1-0.7-0.3-1C47.2,109.6,47.3,110.1,47.2,110.6z"/>
		</g>
	</g>
	<g>
		<g>
			<path class="st0" d="M44.4,108.5c-0.4,0.2-0.7,0.6-0.8,1.2c0,0.2-0.1,0.3-0.1,0.4C43.5,109.3,43.9,108.8,44.4,108.5z"/>
			<path class="st0" d="M46.6,108.8c-0.3-0.2-0.6-0.4-1-0.5C46,108.4,46.3,108.6,46.6,108.8z"/>
		</g>
	</g>
	<g>
		<g>
			<path class="st0" d="M87.3,71.3v0.2c0,0,0,0,0,0c0,0,0,0.1,0,0.1C87.3,71.5,87.3,71.4,87.3,71.3z"/>
		</g>
	</g>
	<g>
		<g>
			<path class="st0" d="M148,118.4c-5.4,11.1-19.8,8.5-26.2,0.1c-4.4-5.7-5.6-12.9-6.1-19.9c-0.3-4.4-0.5-8.8-0.7-13.1
				c-2.6,10.4-5.6,20.7-9,30.8c-0.5,1.5-2.2,1.6-3.1,0.9c0,0,0,0-0.1,0c-0.4-0.2-0.7-0.5-0.9-1c-2.8-7.8-5.5-15.5-8.2-23.3
				c-1.1-2.9-2.5-6.1-3.8-9.4c0,2.6,0,5.1-0.1,7.7c-0.2,11-0.5,22.1-0.7,33.1c-0.1,2.4-3.9,2.4-3.8,0c0.3-11.6,0.6-23.3,0.8-35
				c0-2.4,0-4.9,0.1-7.3c-3,3.3-7.1,5.3-11.5,3.9c-2.3-0.7-1.3-4.3,1-3.6c5.3,1.7,10-4.2,11.1-9.1c0,0,0,0,0,0
				c0.1-0.5,0.1-1,0.2-1.5c0,0,0-0.1,0-0.1c0,0,0,0,0,0v-0.2c0-0.3,0.1-0.6,0.2-0.8c0,0,0,0,0,0c0.3-1,1.3-1.2,2.1-0.9
				c0.8,0.1,1.5,0.7,1.5,1.8c0,4.1,2.2,8.4,3.5,12.2c1.2,3.4,2.4,6.8,3.6,10.2c2,5.5,3.9,11.2,5.9,16.7c4-12.8,7.5-25.8,10.5-38.9
				c0,0,0,0,0-0.1c0.3-2,3.7-1.9,3.8,0.4c0.4,11.6-0.6,24.6,2.4,35.9c1.5,5.7,5.1,12,11.1,13.9c5,1.6,10.6-0.3,12.9-5.1
				C145.8,114.3,149.1,116.2,148,118.4z"/>
		</g>
	</g>
	<g>
		<g>
			<path class="st0" d="M57.6,29.4c-2.3-0.7-1.3-4.4,1-3.6c3.5,1.2,5.7-3,3.4-5.7c-0.8-1-3.1-1.7-4.4-1.7c-3.4,0-6.1,3.4-7.7,6
				c-3.2,5.1-3.9,11.3-4.2,17.2c-0.7,12,0,24.1,0.8,36.2c0.1,2.4-3.2,1.7-3.9-0.1c0-0.1-13.8-26.9-19.3-40.8c-0.4,6-1,12-1.7,18
				c-0.9,7.3-1.2,15.7-3.9,22.6c-1.8,4.7-6.2,9.4-11.8,8.3c-4.4-0.9-7-5.5-5.5-9.6c0.8-2.3,4.4-1.3,3.6,1C3.2,80.4,4.7,82,8.6,82
				c1.8-0.6,3.2-1.7,4.3-3.3c1.5-2.1,2-4.7,2.5-7.2c1-4.9,1.6-9.9,2.2-14.8c1.2-9.6,2-19.2,2.4-28.8c0,0,0,0,0,0
				c0.1-1.6,1.9-2.1,3-1.5c0,0,0,0,0.1,0c0.3,0.2,0.5,0.5,0.7,0.9c0,0.1,0,0.1,0.1,0.2c4.9,14.1,11.6,27.4,18.3,40.7
				c-0.5-9.2-0.8-18.4-0.2-27.6c0.6-8.5,2.3-18.3,9.5-23.8c4.7-3.5,12.7-2.7,15.1,3.3C68.6,25.4,62.9,31.1,57.6,29.4z"/>
		</g>
	</g>
	<g>
		<g>
			<path class="st0" d="M87.4,6.8c0-0.2-0.1-0.3-0.2-0.5c0,0.1,0.1,0.1,0.1,0.2C87.3,6.7,87.4,6.7,87.4,6.8z"/>
		</g>
	</g>
	<g>
		<g>
			<path class="st0" d="M87.2,6.4c-0.4-0.5-1.2-0.8-1.9-0.6C85.9,5.5,86.7,5.6,87.2,6.4z"/>
			<path class="st0" d="M105,52.1c-0.6,0.2-1.3,0.2-1.8-0.4C103.7,52.1,104.4,52.2,105,52.1z"/>
		</g>
	</g>
	<g>
		<g>
			<path class="st0" d="M125.8,7.5c-2.6-7.2-10.9-3-14,1.1c-2.9,3.8-4.1,8.3-4.7,12.9c-1.2,9.4-0.8,19.3-0.7,28.8
				c0,1-0.6,1.5-1.4,1.7c0,0,0,0,0,0c-0.6,0.1-1.3,0-1.8-0.4c0,0,0,0,0,0c-0.1-0.1-0.2-0.2-0.2-0.4c-0.1-0.2-0.2-0.4-0.3-0.6
				C97,39,92.3,26.9,87.1,15.1c-0.4,6.5-1,12.9-1.8,19.3c-0.9,7.4-1.2,15.8-4,22.7c-1.9,4.7-6.4,9.3-11.9,8.2
				c-4.4-0.9-7.1-5.5-5.6-9.7c0.8-2.3,4.4-1.3,3.6,1c-0.9,3.3,0.7,5,4.7,4.9c1.8-0.6,3.3-1.7,4.4-3.4c1.5-2.1,2-4.8,2.5-7.3
				c0.9-4.8,1.6-9.7,2.2-14.5c1.3-9.6,2.1-19.2,2.5-28.8c0.1-1,0.8-1.6,1.6-1.8c0.7-0.1,1.4,0.1,1.9,0.6c0,0,0,0,0,0
				c0,0.1,0.1,0.1,0.1,0.2c0,0.1,0.1,0.1,0.1,0.2c0,0,0,0,0,0c5.4,11.5,9.9,23.2,15.1,34.8c0-5.6,0.1-11.3,0.5-16.8
				c0.4-6.2,1.6-12.5,5.2-17.7c5-7.2,17.4-11.1,21.2-0.6C130.2,8.8,126.6,9.7,125.8,7.5z"/>
			<path class="st0" d="M103.2,51.6c-0.3-0.2-0.5-0.6-0.5-1c0.1,0.2,0.2,0.4,0.3,0.6C103,51.4,103,51.5,103.2,51.6z"/>
		</g>
	</g>
</g>
</svg>
