<?xml version="1.0" encoding="utf-8"?>
<!-- Generator: Adobe Illustrator 19.2.1, SVG Export Plug-In . SVG Version: 6.00 Build 0)  -->
<!DOCTYPE svg PUBLIC "-//W3C//DTD SVG 1.1//EN" "http://www.w3.org/Graphics/SVG/1.1/DTD/svg11.dtd">
<svg version="1.1" id="Layer_1" xmlns="http://www.w3.org/2000/svg" xmlns:xlink="http://www.w3.org/1999/xlink" x="0px" y="0px"
	 width="310.3px" height="158px" viewBox="0 0 310.3 158" style="enable-background:new 0 0 310.3 158;" xml:space="preserve">
<style type="text/css">
	.st0{fill:#231F20;}
</style>
<g>
	<g>
		<path class="st0" d="M0.6,120.8c-2.2,5.6,2,11.8,7.8,12.5c7.3,0.9,12.8-5.3,15-11.6c3.1-8.9,3.7-19,4.8-28.3
			c1.4-11.1,2.3-22.2,2.8-33.4c0.1-3.2-4.9-3.2-5,0c-0.6,13.8-1.9,27.6-3.8,41.3c-0.8,5.8-1.4,11.9-3.1,17.6
			c-1.1,3.5-2.8,7.1-6.3,8.7c-3.7,1.7-9.3-0.5-7.3-5.4C6.6,119.1,1.8,117.8,0.6,120.8L0.6,120.8z"/>
	</g>
</g>
<g>
	<g>
		<path class="st0" d="M26,59.2c7.7,22.3,18.1,43.6,28.5,64.7c1.4,2.9,5.7,0.4,4.3-2.5c-10.3-20.8-20.5-41.6-28-63.5
			C29.8,54.8,25,56.1,26,59.2L26,59.2z"/>
	</g>
</g>
<g>
	<g>
		<path class="st0" d="M60.2,123c-1-16.3-2-32.8-0.9-49.2c0.5-7.2,1.7-15,6.1-20.9c2.4-3.2,6.3-6.3,10.5-5.5
			c1.6,0.3,3.6,1.3,4.4,2.8c1.8,3.2-1.2,6.9-4.6,5.7c-3-1.1-4.3,3.7-1.3,4.8c7.6,2.7,14.2-6.3,10.2-13c-5-8.4-16.3-5.8-21.8,0.4
			c-7.5,8.4-8.4,20.4-8.9,31.1c-0.6,14.6,0.2,29.2,1.1,43.8C55.4,126.2,60.4,126.2,60.2,123L60.2,123z"/>
	</g>
</g>
<g>
	<g>
		<path class="st0" d="M80.5,77.5c-2.2-3.6-6.8-3.5-9.6-0.6c-3.2,3.4-4.3,9.5-3.3,13.9c1,4,4.6,7.3,8.9,5.7
			c4.3-1.6,6.3-6.7,6.7-10.9c0.3-3.2-4.7-3.2-5,0c-0.2,1.6-0.6,3.2-1.6,4.6c-0.5,0.8-2.2,2-3.2,1.4c-0.8-0.4-1-2-1-2.8
			c-0.2-1.8,0-3.6,0.6-5.3c0.2-0.6,2.2-5.1,3.2-3.5C77.9,82.7,82.2,80.2,80.5,77.5L80.5,77.5z"/>
	</g>
</g>
<g>
	<g>
		<path class="st0" d="M77.8,85.8c0.5,2.7,1.4,6,4.2,6.9c2.8,0.9,5.5-0.9,7.1-3.1c5.5-7.2,7.8-18.3,9.1-27c0.5-3.1-4.4-4.5-4.8-1.3
			c-0.8,5.3-2,10.5-3.8,15.6c-0.9,2.6-1.9,5.2-3.2,7.6c-0.5,0.9-1.1,2.9-2.3,3c-1.1,0.2-1.3-2-1.5-3.2
			C82.1,81.3,77.3,82.6,77.8,85.8L77.8,85.8z"/>
	</g>
</g>
<g>
	<g>
		<path class="st0" d="M89,80.1c-0.7,6.7,6.2,12.7,12.6,9.2c6.5-3.5,7.4-13.4,7.5-19.9c0-3.2-5-3.2-5,0c0,4.1-0.5,8.6-2.2,12.3
			c-0.6,1.2-1.5,2.7-2.8,3.3c-3.4,1.5-5.4-2-5.1-4.9C94.3,76.9,89.3,77,89,80.1L89,80.1z"/>
	</g>
</g>
<g>
	<g>
		<path class="st0" d="M81.2,74.9c6.5,8,21,2.3,26.8-3.6c2.3-2.3-1.3-5.8-3.5-3.5c-4,4-15,9.4-19.7,3.6
			C82.7,68.9,79.2,72.4,81.2,74.9L81.2,74.9z"/>
	</g>
</g>
<g>
	<g>
		<path class="st0" d="M106.5,65.3c3.2,0,3.2-5,0-5C103.3,60.3,103.3,65.3,106.5,65.3L106.5,65.3z"/>
	</g>
</g>
<g>
	<g>
		<path class="st0" d="M121.8,65.8c-3.4-2-8.1-1.7-10.2,2c-1.9,3.2-1.7,8.3,1.7,10.4c3,1.9,7.1,1,9.4-1.6c2.5-3,2.1-7.1-0.4-10
			c-2.1-2.4-5.7,1.1-3.5,3.5c1.5,1.7-0.2,5.1-2.6,4c-1-0.5-0.8-2.3-0.4-3.2c0.7-1.7,2.2-1.5,3.6-0.7
			C122.1,71.8,124.6,67.5,121.8,65.8L121.8,65.8z"/>
	</g>
</g>
<g>
	<g>
		<path class="st0" d="M122.1,69.3c1-1.5,2.5-0.5,2.9,0.8c0.6,1.8,0.5,4,0.4,5.9c-0.1,3.2,4.9,3.2,5,0c0.1-3.7,0.1-8.7-3.1-11.2
			c-3.2-2.4-7.4-1.3-9.5,1.9C115.9,69.5,120.3,72,122.1,69.3L122.1,69.3z"/>
	</g>
</g>
<g>
	<g>
		<path class="st0" d="M128.8,69.3c0.9-2.5,2.6-2.8,5-0.9c0.1,0.8,0.3,1.6,0.4,2.4c0.2,1.2,0.3,2.4,0.6,3.6c0.6,2.3,1.9,4.4,3.9,5.7
			c3.7,2.5,8.5,1.7,11.9-0.8c2.6-1.9,0.1-6.2-2.5-4.3c-2,1.5-4.8,2.6-7,0.6c-1.7-1.5-1.7-4.3-2-6.3c-0.4-2.3-1-4.6-2.8-6.2
			c-4.3-3.7-9.3-0.2-11.8,3.8C122.7,69.5,127.1,72,128.8,69.3L128.8,69.3z"/>
	</g>
</g>
<g>
	<g>
		<path class="st0" d="M151.7,55.6c-7-4.7-13.3,4.9-11.4,11.2c0.9,3.1,3.8,5.5,7.1,5.4c4-0.2,5.9-3.9,6.7-7.3
			c0.7-3.1-4.1-4.5-4.8-1.3c-0.3,1.1-0.7,3.3-2,3.6c-1.4,0.4-2.2-1.4-2.4-2.4c-0.3-2.2,1.5-6.7,4.3-4.8
			C151.9,61.7,154.4,57.4,151.7,55.6L151.7,55.6z"/>
	</g>
</g>
<g>
	<g>
		<path class="st0" d="M148.2,56.9c-0.7,5.2,1.7,10.4,7.4,11.2c5.6,0.8,10.9-3.9,14-8c3.7-4.9,5.9-11.4,5.1-17.6
			c-0.6-4.7-3.7-10.5-9.3-8.8c-5.9,1.7-8.4,10-9.6,15.2c-1.5,6.6-2.3,14.3,0,20.8c4.4,12.7,20.4,14.1,29.6,5.6
			c5.4-5.1,9.5-13.9,11.1-21.1c1.9-8.8,1.2-18.5,0.1-27.4c-0.4-3.2-5.4-3.2-5,0c1.3,10.9,2.2,22.9-2.4,33.2c-2,4.4-4.1,9.2-7.9,12.3
			c-4.7,4-12.5,5.2-17.4,0.8c-4.4-3.8-4.5-10-4.2-15.4c0.3-4.7,0.9-11.5,3.8-15.4c1.4-1.9,4.3-3.6,6-0.8c0.6,1,0.4,2.8,0.4,3.9
			c-0.1,2.8-0.8,5.7-2.1,8.2c-1,2.1-2.4,4-4.1,5.6c-1.1,1.1-2.3,2.2-3.7,2.9c-2.7,1.2-7.8,2-6.9-4C153.5,55.1,148.7,53.8,148.2,56.9
			L148.2,56.9z"/>
	</g>
</g>
<g>
	<g>
		<path class="st0" d="M191.9,28.1c3.8,6.5,5.9,14.2,9,21.1c3.5,7.7,7.6,15.1,10.1,23.1c1,3.1,5.8,1.8,4.8-1.3
			c-2.5-7.9-6.4-15.2-9.9-22.7c-3.4-7.4-5.6-15.6-9.7-22.7C194.6,22.8,190.3,25.3,191.9,28.1L191.9,28.1z"/>
	</g>
</g>
<g>
	<g>
		<path class="st0" d="M216.4,71.4c-0.1-10-0.5-20.3,0.6-30.2c0.5-4.8,1.7-9.7,4.5-13.8c3-4.3,12.1-10,14.9-2.1
			c1.1,3,5.9,1.7,4.8-1.3c-4.7-12.8-19.7-6.7-24.9,2.3c-3.2,5.6-4.3,12.1-4.7,18.4c-0.6,8.9-0.4,17.9-0.4,26.8
			C211.4,74.6,216.4,74.6,216.4,71.4L216.4,71.4z"/>
	</g>
</g>
<g>
	<g>
		<path class="st0" d="M230.8,38.7c-10.2-4.8-16.2,13.4-6,17.2c4.3,1.7,9-1.1,10.4-5.4c1.3-4-0.4-10.8-5-12.1
			c-3.1-0.8-4.4,4-1.3,4.8c1.5,0.4,1.9,3.9,1.7,5.1c-0.3,1.7-1.8,3.6-3.8,3c-4.3-1.3-1.8-9.9,1.5-8.3
			C231.1,44.4,233.7,40.1,230.8,38.7L230.8,38.7z"/>
	</g>
</g>
<g>
	<g>
		<path class="st0" d="M227.4,42.9c5.6,0.5,11.3-1.8,13.8-7.1c-1.5-0.2-3-0.4-4.6-0.6c1.3,7,2.7,14,4,21c0.4,2,3.7,2.5,4.6,0.6
			c2.3-5.1,3.8-10.4,5.2-15.7c0.8-3.1-4-4.4-4.8-1.3c-1.3,4.9-2.5,9.9-4.7,14.5c1.5,0.2,3,0.4,4.6,0.6c-1.3-7-2.7-14-4-21
			c-0.4-2-3.7-2.5-4.6-0.6c-1.8,3.8-5.5,5-9.5,4.6C224.2,37.6,224.3,42.6,227.4,42.9L227.4,42.9z"/>
	</g>
</g>
<g>
	<g>
		<path class="st0" d="M246.3,41.7c4.2,4.6,12.5,5.1,16.8,0c2.7-3.2,3-11.7-2.4-12.4c-6.9-0.9-9.1,5.7-9,11.1
			c0.2,6.3,2.6,10.8,9.7,9.2c7.7-1.7,12.4-9.3,15-16.1c1.7-4.4,3-9,3.8-13.7c0.8-4.5,2.2-10.1,1.6-14.6c-0.7-5.7-7.6-7.1-10.4-2.1
			c-4.4,7.8-5.7,18.8-6.3,27.6c-0.5,8.1,0.7,18.6,10.2,20.8c7.4,1.7,18.1-3,20.1-10.6c0.8-3.1-4-4.4-4.8-1.3
			c-1.5,5.5-11.3,9.1-16.1,6.3c-5.5-3.3-4.7-11.6-4.2-17c0.5-5.8,1.6-11.5,3.3-17c0.4-1.4,0.9-2.9,1.4-4.3c0.4-1.1,0.9-3.9,1.9-1.7
			c0.7,1.7-0.7,6.8-0.9,8.6c-1.2,9.3-3.7,24.2-12.8,29.2c-3.3,1.8-5.8,2.1-6.4-2.1c-0.3-2.2-0.2-5.2,1.6-6.5
			c2.6-1.8,1.9,2.3,0.8,3.6c-2.3,2.9-7.2,1.8-9.3-0.4C247.6,35.8,244.1,39.3,246.3,41.7L246.3,41.7z"/>
	</g>
</g>
<g>
	<g>
		<path class="st0" d="M68.2,115.2c7.3,4.3,12.1-3.4,12.8-9.7c-1.7,0-3.3,0-5,0c0.5,15.7,1.6,31.4,3.4,46.9c0.4,3.2,5.4,3.2,5,0
			c-1.8-15.6-3-31.2-3.4-46.9c-0.1-3.3-4.6-3.1-5,0c-0.3,2.1-1.5,7.6-5.3,5.4C68,109.3,65.5,113.6,68.2,115.2L68.2,115.2z"/>
	</g>
</g>
<g>
	<g>
		<path class="st0" d="M84.2,153c3.4-9.8,6.6-19.7,7.9-30c0.4-3.2-4.6-3.2-5,0c-1.3,9.9-4.5,19.3-7.7,28.7
			C78.3,154.7,83.2,156,84.2,153L84.2,153z"/>
	</g>
</g>
<g>
	<g>
		<path class="st0" d="M88,122.2c0.5,11.8,3,23.2,7.3,34.1c1.2,2.9,6,1.7,4.8-1.3c-4.2-10.5-6.6-21.5-7.2-32.8
			C92.8,119,87.8,119,88,122.2L88,122.2z"/>
	</g>
</g>
<g>
	<g>
		<path class="st0" d="M100,154.7c1.8-14.6,3.8-29.1,5.3-43.7c0.3-3.2-4.7-3.2-5,0c-1.5,14.6-3.5,29.2-5.3,43.7
			C94.6,157.9,99.6,157.9,100,154.7L100,154.7z"/>
	</g>
</g>
<g>
	<g>
		<path class="st0" d="M100.9,111.1c-0.4,3.3,2,6.4,5.5,5.9c4.1-0.6,5.2-4.6,4.1-8.2c-1.2,0.9-2.4,1.9-3.7,2.8
			c3.9,2.2,8.5,1,10.8-2.9c-1.5-0.6-3-1.3-4.6-1.9c-1.2,4.9-4,16.3,2.4,18.8c7.4,2.9,8.7-8.1,9.4-12.6c0.5-3.1-4.3-4.5-4.8-1.3
			c-0.3,1.7-0.5,3.4-0.9,5.1c-0.2,1-0.4,4.9-2.4,3c-0.6-0.6,0-4.6,0.1-5.5c0.2-2.1,0.6-4.1,1.1-6.1c0.7-2.7-3.1-4.4-4.6-1.9
			c-0.9,1.5-2.4,2-3.9,1.1c-1.8-1.1-4.3,0.7-3.7,2.8c0.3,1,0,2.6,0.2,0.9C106.3,107.9,101.3,107.9,100.9,111.1L100.9,111.1z"/>
	</g>
</g>
<g>
	<g>
		<path class="st0" d="M119.8,112.4c0,3.5-0.4,8.3,2.2,11.1c2.2,2.2,5.6,2,7.8-0.2c2.9-2.9,3.3-7.9,3.8-11.6
			c0.9-6.6,0.9-13.2,0.8-19.8c0-3.2-5-3.2-5,0c0,6,0.1,12.1-0.6,18.1c-0.3,2.2-0.3,7-1.9,8.6c-1.6,1.6-1.7-0.5-2-2
			c-0.3-1.3-0.1-2.8-0.1-4.1C124.8,109.2,119.8,109.2,119.8,112.4L119.8,112.4z"/>
	</g>
</g>
<g>
	<g>
		<path class="st0" d="M128.1,116.9c-0.3,5.2,5.6,8.8,10.2,6.3c2.5-1.3,3.7-4.5,4.6-7c1.1-3.2,1.5-6.7,1.2-10.1
			c-0.3-3.2-5.3-3.2-5,0c0.2,2.8,0,5.6-0.8,8.3c-0.3,1.1-0.8,3-1.7,3.8c-1.5,1.4-3.6,0.9-3.4-1.2
			C133.3,113.7,128.3,113.7,128.1,116.9L128.1,116.9z"/>
	</g>
</g>
<g>
	<g>
		<path class="st0" d="M144.9,106.5c-0.1,4.1-0.1,8.2-0.2,12.4c0,3.2,5,3.2,5,0c0.1-4.1,0.1-8.2,0.2-12.4
			C149.9,103.3,144.9,103.3,144.9,106.5L144.9,106.5z"/>
	</g>
</g>
<g>
	<g>
		<path class="st0" d="M149.9,111.5c0.6-0.7,2-2.8,3.2-2.3c1.3,0.5,1.3,3.6,1.5,4.6c0.6,2.8,2.1,5.2,5,6c3.1,0.9,4.4-3.9,1.3-4.8
			c-1.9-0.5-1.6-4.1-2-5.6c-0.5-1.7-1.4-3.4-3-4.4c-3.6-2.3-7.2,0.2-9.5,3C144.3,110.4,147.8,113.9,149.9,111.5L149.9,111.5z"/>
	</g>
</g>
<g>
	<g>
		<path class="st0" d="M175.3,99.8c-5.5-7.1-14.6-0.6-15,6.9c-0.2,3.5,1.6,7,4.9,8.4c3.7,1.5,7.4-0.3,10-3c2.3-2.3-1.3-5.8-3.5-3.5
			c-2.1,2.1-6.1,3.1-6.4-1c-0.2-2.2,3.4-8.3,5.7-5.3C173,104.8,177.3,102.3,175.3,99.8L175.3,99.8z"/>
	</g>
</g>
<g>
	<g>
		<path class="st0" d="M171.6,100.8c-2.6,10.7-3.3,21.5-2,32.5c0.4,3.2,5.4,3.2,5,0c-1.2-10.5-0.6-20.9,1.9-31.2
			C177.2,99,172.4,97.7,171.6,100.8L171.6,100.8z"/>
	</g>
</g>
<g>
	<g>
		<path class="st0" d="M173.9,132.2c-8-7.8-21.3-12.7-31.9-7.3c-7.9,4-13.9,16.2-3.2,20.7c9.2,3.9,16.9-7.5,9.3-14.4
			c-3.7-3.4-9.6-4.6-14.3-2.8c-3.1,1.2-5.6,3.5-8.8,4.6c-4.6,1.5-10.2,0.7-11.7-4.6c-0.9-3.1-5.7-1.8-4.8,1.3
			c1.5,5,5.6,8.3,10.7,8.9c3.2,0.4,6.4-0.4,9.3-1.6c5.1-2.2,9.3-6.6,15.1-2.9c7.9,5-4.3,10.8-5.6,4.1c-0.8-4.1,4.5-8.2,7.8-9.4
			c8.6-3.2,18.5,0.9,24.7,6.9C172.7,138,176.2,134.5,173.9,132.2L173.9,132.2z"/>
	</g>
</g>
<g>
	<g>
		<path class="st0" d="M122.7,102.5C122.7,102.5,122.6,102.5,122.7,102.5c1.1,0.3,2.2,0.6,3.3,0.9c0,0,0-0.1-0.1-0.1
			c-0.3,1.1-0.6,2.3-0.9,3.4c0.5-0.3,2.4-0.3,3-0.3c1-0.1,2-0.3,3-0.4c2-0.3,4-0.5,6-0.7c3.2-0.4,3.2-5.4,0-5c-2.7,0.3-5.4,0.6-8,1
			c-2,0.3-4.8,0.1-6.5,1.1c-1.1,0.6-1.7,2.3-0.9,3.4c0,0,0,0.1,0.1,0.1c0.8,1.2,2.1,1.5,3.4,0.9c0,0,0.1,0,0.1,0
			C128.1,105.4,125.6,101,122.7,102.5L122.7,102.5z"/>
	</g>
</g>
<g>
	<g>
		<path class="st0" d="M141.2,99.4c3.2,0,3.2-5,0-5C138,94.4,138,99.4,141.2,99.4L141.2,99.4z"/>
	</g>
</g>
<g>
	<g>
		<path class="st0" d="M119.7,102.6c3.2,0,3.2-5,0-5C116.5,97.6,116.5,102.6,119.7,102.6L119.7,102.6z"/>
	</g>
</g>
<g>
	<g>
		<path class="st0" d="M186.2,93.8c6.6,0.9,10.8-9,11.9-14c0.7-3.1-4.1-4.5-4.8-1.3c-0.5,2.1-1.2,4.1-2.3,6c-1,1.6-2.7,4.7-4.8,4.4
			C183,88.4,183,93.4,186.2,93.8L186.2,93.8z"/>
	</g>
</g>
<g>
	<g>
		<path class="st0" d="M193.3,78.6c0,5.6,3.2,11.5,5,16.7c2.2,6.4,4.5,12.8,6.7,19.2c1.1,3,5.9,1.7,4.8-1.3
			c-2-5.8-4.1-11.6-6.1-17.4c-1.8-5.1-5.5-11.7-5.5-17.2C198.3,75.4,193.3,75.4,193.3,78.6L193.3,78.6z"/>
	</g>
</g>
<g>
	<g>
		<path class="st0" d="M210.2,114.7c3.7-11.5,6.9-23.1,9.6-34.9c0.7-3.1-4.1-4.5-4.8-1.3c-2.7,11.8-5.9,23.4-9.6,34.9
			C204.4,116.4,209.2,117.7,210.2,114.7L210.2,114.7z"/>
	</g>
</g>
<g>
	<g>
		<path class="st0" d="M215,79c0.3,7.4,0.3,15,0.9,22.4c0.5,5.5,1.6,11,5,15.4c5.6,7.3,17.7,9.1,22.4-0.2c1.5-2.9-2.9-5.4-4.3-2.5
			c-2.1,4.2-7.2,5-11,2.6c-3.7-2.3-5.6-6.6-6.5-10.8c-1.9-8.6-1.2-18.2-1.6-27C219.9,75.8,214.9,75.8,215,79L215,79z"/>
	</g>
</g>
<g>
	<g>
		<path class="st0" d="M192,85.9c1.3,5.4,0.5,11.5,0.3,16.9c-0.1,6-0.3,12-0.4,17.9c-0.1,3.2,4.9,3.2,5,0c0.1-6.6,0.3-13.3,0.4-19.9
			c0.1-5.4,0.7-11-0.6-16.3C196.1,81.5,191.2,82.8,192,85.9L192,85.9z"/>
	</g>
</g>
<g>
	<g>
		<path class="st0" d="M239.2,89.1c-4.5-2.7-9.5-1.3-11.5,3.6c-1.7,4.1-1.9,10.7,2,13.7c3.9,3,8.9,0.3,11.1-3.5
			c2.7-4.6,1.7-10.2-2.1-13.8c-2.3-2.3-5.8,1.3-3.5,3.5c1.6,1.6,2.6,3.7,2,6c-0.4,1.6-2.3,4.8-4.4,3.9c-1.8-0.8-1.3-4.8-1-6.2
			c0.5-2.7,2-4.6,4.9-2.9C239.4,95.1,241.9,90.8,239.2,89.1L239.2,89.1z"/>
	</g>
</g>
<g>
	<g>
		<path class="st0" d="M237.1,94.1c1.3,0.4,2.6,0.5,3.9,0.1c0.5-0.2,3.1-1.6,2.5-1.9c-0.6-0.2,0.1,1.1,0.2,1.5c0.3,1,0.4,2,0.4,3
			c0.1,1.9,0,3.8,0,5.6c-0.1,3.2,4.9,3.2,5,0c0.2-4.1,0.6-9.5-1.8-13c-1-1.4-2.5-2.3-4.2-2.1c-1.8,0.2-3,2.5-4.6,2
			C235.4,88.3,234,93.1,237.1,94.1L237.1,94.1z"/>
	</g>
</g>
<g>
	<g>
		<path class="st0" d="M249.2,93.3c0.1-3.2,2.7-5.3,4-1.6c0.6,1.7,0.4,3.9,0.4,5.7c0,2.9,0,5.9,1.3,8.6c2.4,4.7,8,6.7,12.8,4.7
			c2.9-1.2,1.7-6-1.3-4.8c-6.2,2.5-7.8-3.6-7.8-8.5c0-3.6,0.1-7.8-2.4-10.7c-2-2.4-5.2-2.7-7.9-1.4c-3.2,1.6-4,4.7-4.1,8
			C244.1,96.5,249.1,96.5,249.2,93.3L249.2,93.3z"/>
	</g>
</g>
<g>
	<g>
		<path class="st0" d="M263.6,67.6c-3.6,6.9-5.1,16.8-3,24.5c1.7,5.8,8.5,9.7,13.2,4.7c2.2-2.4-1.3-5.9-3.5-3.5
			c-3.4,3.6-5.1-3.2-5.3-5c-0.2-1.9-0.1-3.9-0.1-5.8c0.2-4.3,0.9-8.3,2.9-12.2C269.4,67.3,265.1,64.7,263.6,67.6L263.6,67.6z"/>
	</g>
</g>
<g>
	<g>
		<path class="st0" d="M252.2,77c7.5,15.3,35.2,7.6,32.7-9.7c-1-6.6-8.4-8.7-11.6-2.3c-4.4,9.1,2.2,20.9-3.9,29.3
			c-1.9,2.6,2.4,5.1,4.3,2.5c6.2-8.4,0.8-19,3.6-28.2c1.4-4.5,3,0.1,2.4,2.7c-0.7,2.8-2.7,5.4-5.2,7c-5.7,3.6-14.8,2.8-18-3.7
			C255,71.6,250.7,74.1,252.2,77L252.2,77z"/>
	</g>
</g>
<g>
	<g>
		<path class="st0" d="M275.8,92.4c1.3-3.7,3.2-5.5,6.7-0.9c0.9,1.2,1.3,2.7,2.4,3.9c1.7,1.9,4.1,3.2,6.5,3.8
			c5.6,1.5,11.4-0.9,14.9-5.4c4.1-5.2,4.9-12.9,1-18.5c-3-4.3-10.4-7.7-15.5-4.8c-4.2,2.4-3.8,8.8,0.2,11c4.6,2.6,10.9,1.5,14.7-2
			c4.1-3.8,4.5-9.7,1.8-14.5c-3.4-6-9.7-7.2-16-6c-3.2,0.6-1.8,5.4,1.3,4.8c5.4-1,11.9,1.4,11.4,7.9c-0.3,3.7-5.7,8-9.5,5.9
			c-5.2-2.9,1.4-3.1,2.9-2.7c3.1,0.8,5.3,3.5,6,6.6c1,5-2,10.7-6.9,12.5c-4,1.4-8.4-0.3-10.4-3.9c-1.5-2.7-2-5.5-5.2-6.7
			c-5.7-2.1-9.6,2.7-11.2,7.5C270,94.2,274.8,95.5,275.8,92.4L275.8,92.4z"/>
	</g>
</g>
</svg>
