<svg xmlns="http://www.w3.org/2000/svg" width="430" height="385" viewBox="0 0 430 385"><defs><style>.a,.d{fill:#fff;}.b,.c{fill:none;stroke-miterlimit:10;}.b{stroke:#005352;}.b,.c,.d{stroke-linecap:round;}.b,.d{stroke-width:3px;}.c{stroke:#dd1945;stroke-width:4px;}.d{stroke:#fdc46e;stroke-linejoin:round;}</style></defs><title>icons</title><path class="a" d="M117,15V14.85c-16,20.19-17.82,51-3.59,72.76a8.66,8.66,0,0,0,2.78,2.91,9.1,9.1,0,0,0,4.55.77l39.68-.19,20.93-.1q28.92-.14,57.83-0.31,27.06-.17,54.11-0.43a56.41,56.41,0,0,1-15.61-39,54.6,54.6,0,0,1,16.37-38Z"/><path class="a" d="M134,191.17V191c-20,22.2-21.67,56.12-4.46,80a9.82,9.82,0,0,0,3.31,3.2,11.87,11.87,0,0,0,5.48.85l48-.21,25.32-.11q35-.15,70-0.34,32.74-.19,65.46-0.47c-11.93-11.13-19.14-27.39-18.89-42.93s7.63-30.94,19.91-41.75Z"/><path class="a" d="M98,288.17V288c-20,22.2-21.67,56.12-4.46,80a9.82,9.82,0,0,0,3.31,3.2,11.87,11.87,0,0,0,5.48.85l48-.21,25.32-.11q35-.15,70-0.34,32.74-.19,65.46-0.47c-11.93-11.13-19.14-27.39-18.89-42.93s7.63-30.94,19.91-41.75Z"/><path class="a" d="M155,104v-0.15c-16,20.19-17.6,51-3.65,72.76a8.41,8.41,0,0,0,2.66,2.91,8.63,8.63,0,0,0,4.43.77l38.88-.19,20.51-.1q28.34-.14,56.68-0.31,26.52-.17,53-0.43a57,57,0,0,1-15.3-39,55.27,55.27,0,0,1,16.17-38Z"/><polyline class="b" points="343.79 260.13 137.4 260.4 135.72 208.53 341.63 206.04"/><line class="b" x1="136.58" y1="235.18" x2="332.29" y2="233.61"/><line class="b" x1="136.27" y1="221.24" x2="336.8" y2="220.43"/><line class="b" x1="137.61" y1="247.87" x2="338.14" y2="247.05"/><polyline class="b" points="307.88 356.8 101.48 356.24 99.99 304.36 305.9 302.69"/><line class="b" x1="100.76" y1="331.02" x2="296.47" y2="330.23"/><line class="b" x1="100.51" y1="317.08" x2="301.04" y2="317.06"/><line class="b" x1="101.72" y1="343.71" x2="302.26" y2="343.69"/><polyline class="b" points="323.84 166.44 158.9 166.7 158.85 119.07 323.46 116.77"/><line class="b" x1="158.88" y1="143.54" x2="315.31" y2="142.09"/><line class="b" x1="159.08" y1="131.09" x2="319.35" y2="130.33"/><line class="b" x1="159.28" y1="154.85" x2="319.55" y2="154.09"/><polyline class="b" points="289.83 77.66 120.85 77.92 120.8 30.28 289.44 27.98"/><line class="b" x1="120.82" y1="54.76" x2="281.09" y2="53.3"/><line class="b" x1="121.03" y1="42.3" x2="285.23" y2="41.54"/><line class="b" x1="121.23" y1="66.06" x2="285.43" y2="65.3"/><path class="c" d="M349.83,274.22l-216.51.85s-37.35-36-2.38-83.94l216.51-.85"/><path class="c" d="M313.87,370.9H97.35s-37.22-36.15-2.09-83.95H311.78"/><path class="c" d="M328.31,179.38l-173,.8s-29-33.06.19-77.08l173-.8"/><path class="c" d="M294.42,90.59l-177.28.8s-29.66-33.06.2-77.08l177.28-.8"/><path class="d" d="M156.17,114.34s20.8,24.85.43,57"/><path class="d" d="M118.17,24.34s20.8,24.85.43,57"/><path class="d" d="M134.17,205.34s20.8,24.85.43,57"/><path class="d" d="M98,297.08s30.38,28.56.63,65.54"/></svg>