<?xml version="1.0" encoding="utf-8"?>
<!-- Generator: Adobe Illustrator 19.2.0, SVG Export Plug-In . SVG Version: 6.00 Build 0)  -->
<!DOCTYPE svg PUBLIC "-//W3C//DTD SVG 1.1//EN" "http://www.w3.org/Graphics/SVG/1.1/DTD/svg11.dtd">
<svg version="1.1" id="Layer_1" xmlns="http://www.w3.org/2000/svg" xmlns:xlink="http://www.w3.org/1999/xlink" x="0px" y="0px"
	 viewBox="0 0 430 385" style="enable-background:new 0 0 430 385;" xml:space="preserve">
<style type="text/css">
	.st0{fill:#FFFFFF;}
	.st1{fill:#FDC46E;}
	.st2{fill:#005352;}
	.st3{display:none;}
</style>
<g>
	<path class="st0" d="M87.1,136.5c-2.4,0.7-5.1,0.4-7.7-0.8c-3.1-1.5-5.7-4.3-7.3-7.7c-1.6-3.5-1.9-7.2-1-10.6
		c0.5-1.6,1.2-3.1,2.1-4.2c0.2-0.3,0.5-0.5,0.7-0.8c2.3,5.1,5.2,11.1,8.9,17.3C84.1,132,85.6,134.3,87.1,136.5z"/>
	<path class="st0" d="M89.8,135.2c-1.6-2.3-3-4.6-4.4-6.9c0,0,0,0,0,0c-0.2-0.3-0.4-0.6-0.5-0.9c0,0,0,0,0,0
		c-3.5-6-6.4-11.9-8.5-16.8c0.1,0,0.2-0.1,0.3-0.1c1.3-0.6,2.6-0.8,4-0.8c1.6,0,3.3,0.4,5,1.2c0.2,0.1,0.4,0.2,0.6,0.3
		c0.1,0.1,0.3,0.1,0.4,0.2c0.5,0.3,0.9,0.6,1.4,0.9c0.1,0.1,0.2,0.2,0.4,0.3c0,0,0.1,0.1,0.1,0.1c1.8,1.5,3.4,3.5,4.4,5.9
		C95.9,124.9,94.4,132,89.8,135.2z"/>
	<path class="st0" d="M118.3,91.1c-7.8,0-14.1,6.3-14.1,14.1c0,7.8,6.3,14.1,14.1,14.1c7.8,0,14.1-6.3,14.1-14.1
		C132.4,97.4,126.1,91.1,118.3,91.1z M118.3,91.1c-7.8,0-14.1,6.3-14.1,14.1c0,7.8,6.3,14.1,14.1,14.1c7.8,0,14.1-6.3,14.1-14.1
		C132.4,97.4,126.1,91.1,118.3,91.1z M108.3,160.1c-0.1-0.1-0.2-0.2-0.3-0.2c0.1,0.4,0.3,0.8,0.5,1.2
		C108.5,160.7,108.4,160.4,108.3,160.1z M118.3,91.1c-7.8,0-14.1,6.3-14.1,14.1c0,7.8,6.3,14.1,14.1,14.1c7.8,0,14.1-6.3,14.1-14.1
		C132.4,97.4,126.1,91.1,118.3,91.1z M190.3,95.7c-25-14.4-22.6-41.2-20.5-52c0-0.2,0.1-0.4,0.1-0.5c1.2-6.9-0.9-14.3-5.7-19.9
		c-8.8-10.4-23.3-13.7-43.2-9.8c-15.1,2.9-27.7,9.1-27.8,9.1c-0.6,0.3-1.2,0.3-1.8,0l-0.1,0c-13.1-4.4-22.2-0.1-22.2,0
		c-0.1,0-0.1,0.1-0.2,0.1c-12,4.4-10.4,21.5-10.4,21.7c0.1,0.9-0.5,1.8-1.3,2.1c-0.1,0-13.9,5.2-16.7,18.8c-1.9,9,1.5,18.1,8.7,23.1
		c0.5,0.4,1.1,0.7,1.5,1c0,0,0.1,0,0.1,0.1c3.4,1.9,4.6,2.6,6.2,4.4c1.6,1.8,3.1,3.8,4,8.9c0.9,4.9-0.4,10.1-3.5,14.4
		c-1.5,2-3.2,3.8-5.1,5.4c-3.4,2.8-6,6-7.8,9.3c-4.8,8.9-7.4,21.7,8.1,31.7c0.8,0.5,1.1,1.4,0.8,2.2c8.5-5,24-10,51.3-8.7
		c-5.5-4.9-10.9-10.9-15.9-18c-1.4,0.5-3,0.8-4.5,0.8c-2.1,0-4.2-0.5-6.3-1.5c-3.8-1.8-6.9-5.1-8.7-9.2c-1.9-4.1-2.3-8.6-1.2-12.6
		c0.8-3,2.4-5.4,4.5-7.2c-2.9-6.8-4.4-11.5-4.4-11.6c-0.2-0.8,0.2-1.6,1-1.9c0.8-0.2,1.6,0.2,1.9,1c0,0.1,1.4,4.4,4.1,10.8
		c0.1,0,0.2-0.1,0.2-0.1c3.6-1.6,7.7-1.5,11.5,0.4c1.5,0.7,2.9,1.6,4.1,2.8c1,0.9,1.9,1.9,2.7,3c0.1-0.1,0.1-0.3,0.2-0.4
		c0.4-0.8,1-1.5,1.8-2.2c1.5-1.3,3.6-1.9,6-1.7c-0.4-1.4-0.5-2.8-0.5-4.3c0-9.4,7.7-17.1,17.1-17.1s17.1,7.7,17.1,17.1
		s-7.7,17.1-17.1,17.1c-6.8,0-12.6-4-15.4-9.7c-2.3-0.4-4.1-0.1-5.3,0.9c-0.8,0.6-1.2,1.5-1.5,2.3c4.7,5.6,9.5,14.4,8.4,26.6
		l6.8-5.9c0.6-0.5,1.6-0.5,2.1,0.1c0.5,0.6,0.5,1.6-0.1,2.1l-9.8,8.6c-0.3,0.2-0.6,0.4-1,0.4c-0.2,0-0.5-0.1-0.7-0.2
		c-0.6-0.3-0.9-1-0.7-1.6c1.9-10.3-0.5-18.1-3.8-23.7c1,6.2-1.1,12.3-5.7,15.4c5.3,7.5,11.5,14.7,18.8,20.2h0
		c3.1,2.4,6.3,4.4,9.8,6.1c2.7,1.4,5.4,2.6,7.4,2.9c0.1,0,0.1,0,0.2,0.1c0,0,0,0,0.1,0c3.1-0.9,20.9-7.5,23.1-35.6
		c0.1-0.8,0.8-1.4,1.6-1.4c0.8,0.1,1.4,0.8,1.4,1.6c-1.3,16.9-8.2,26.4-13.8,31.4c-1.2,1.1-2.4,2.1-3.6,2.9
		c6.3-0.6,17.3-3.3,24.2-14.6c-0.6-0.6-1.2-1.3-1.6-2.2c-2.6-4.8-3.9-14.7-3.7-29.4c-0.4-0.1-0.8-0.2-1.1-0.4
		c-0.8-0.3-1.2-1.2-0.9-1.9c0.3-0.8,1.2-1.2,1.9-0.9c3.1,1.2,5.8,1.2,8,0.1c3.5-1.8,4.5-5.9,4.6-6c1.6-6.2-2.3-8.7-4-9.5
		c-4.5,4.2-10.1,5.1-13.5,5.1c-3.2,0-6.1-0.6-8.7-1.9c-6.7-3.3-10.4-10.1-10.7-19.6c-0.3-7,1.3-13,1.4-13.2c0.2-0.8,1-1.3,1.8-1
		c0.8,0.2,1.3,1,1,1.8c-0.1,0.2-6,22.6,7.7,29.4c2.1,1,4.6,1.5,7.3,1.5c3.6-0.1,8.2-1,11.8-4.7c0.1-0.1,0.3-0.3,0.4-0.5
		c0.9-1,1.7-2.1,2.4-3.5c0.4-0.7,1.3-1,2-0.6c0.7,0.4,1,1.3,0.6,2c-0.5,1-1.1,1.9-1.8,2.8c2.7,1.5,6.8,5.1,4.9,12.5
		c0,0.2-1.4,5.5-6.1,7.9c-1.5,0.8-3.1,1.2-4.9,1.2c-0.5,0-0.9,0-1.4-0.1c-0.2,17.1,1.7,24.3,3.3,27.3c0.4,0.9,1,1.5,1.7,2
		c0.2,0.1,0.3,0.3,0.5,0.5c0.1,0.1,0.6,1,1,2.3c1.8-0.1,6-0.1,11.3,0.5c5.9,0.7,11.4,2.4,16.6,4.8c10.4-5.6,14.7-19.9,14.7-20.1
		C215,113.1,198,100.2,190.3,95.7z M136.4,135.7c-0.3,0.3-0.7,0.5-1.1,0.5c-0.4,0-0.7-0.1-1-0.4c-0.8-0.8-1.8-1.3-2.9-1.7
		c0.8,3.7,0.5,7.2-0.9,10.1c-1.8,3.5-5.5,5.7-9,5.7c-0.6,0-1.2-0.1-1.7-0.2c-0.8-0.2-1.3-1-1.1-1.8c0.2-0.8,1-1.3,1.8-1.1
		c2.9,0.7,6-1.5,7.3-3.9c1.2-2.4,1.3-5.6,0.3-9c-1.7,0.2-3.3,0.9-4.5,2c-0.6,0.6-1.5,0.5-2.1-0.1c-0.6-0.6-0.5-1.5,0.1-2.1
		c2-1.8,4.6-2.9,7.3-2.9s5.4,1.1,7.3,2.9C136.9,134.2,137,135.1,136.4,135.7z M162.3,154.2c-5.6,8.2-13.5,11.8-19.8,13.4
		c2.7,1.3,4.7,3.1,5.9,5.3c0.9,1.7,1.3,3.3,1.4,4.7C162.6,166.8,163.1,158.3,162.3,154.2z M133.1,168.8c-1,0-1.6,0-1.6-0.1l0-0.2
		c-2,0.9-3.3,1.2-3.4,1.3c-0.1,0-0.2,0-0.3,0c-0.1,0-0.3,0-0.4-0.1c-0.2,0-0.3-0.1-0.5-0.1c-2.7-0.8-5.4-1.8-8.1-3.2
		c-2.5-1.3-5-2.8-6.8-4c0,0.1,0,0.1,0,0.2c3.3,11.9,12.1,16.3,15.9,17.6c0.5-5.7,3.1-9.3,5.4-11.5H133.1z M118.3,91.1
		c-7.8,0-14.1,6.3-14.1,14.1c0,7.8,6.3,14.1,14.1,14.1c7.8,0,14.1-6.3,14.1-14.1C132.4,97.4,126.1,91.1,118.3,91.1z"/>
</g>
<g>
	<path class="st0" d="M403,323.1c-0.5,2.2-0.7,4.3-0.7,6.4L265.7,330l-0.2-6.8L403,323.1z"/>
	<path class="st0" d="M403.5,339H265.9l-0.2-6l136.6-0.5C402.5,334.8,402.9,337,403.5,339z"/>
	<path class="st0" d="M406.7,312.9c-1.3,2.5-2.2,4.9-3,7.2l-138.3,0.1l-0.2-6.1L406.7,312.9z"/>
	<path class="st0" d="M407.4,348.3l-141.2-0.4L266,342h138.4C405.3,344.3,406.3,346.4,407.4,348.3z"/>
	<path class="st0" d="M408.4,309.9l-146.2,1.2l0.4,16.1c-0.2-0.7-0.3-1.1-0.3-1.1l-5.2-17.1c1.2-2.2,2.6-4.5,4.2-6.8h152.6
		c0.1,0,0.2,0,0.3,0C411.9,304.8,410,307.4,408.4,309.9z"/>
	<path class="st0" d="M414.8,357.8H262.7c-1.1-1.2-3.8-4.4-6.2-9c3.8-2.6,5.7-6.3,6.4-9.9l0.3,12l146,0.4
		C411.5,354.6,413.8,356.8,414.8,357.8z"/>
</g>
<g>
	<path class="st0" d="M413.5,254.6c-0.5,2.2-0.7,4.3-0.8,6.3L276.1,262l-0.2-6.8L413.5,254.6z"/>
	<path class="st0" d="M414,270.5L276.4,271l-0.2-6l136.7-1.1C413,266.2,413.4,268.4,414,270.5z"/>
	<path class="st0" d="M417.3,244.4c-1.3,2.5-2.3,4.9-3,7.2l-138.6,0.6l-0.2-6.1L417.3,244.4z"/>
	<path class="st0" d="M417.8,279.7l-141.1,0.2l-0.2-5.9l138.4-0.5C415.7,275.8,416.7,277.8,417.8,279.7z"/>
	<path class="st0" d="M425,289.2l-151.9,0.6c-3.6-3.9-22.3-26.1-1.5-55.6l152.6-0.6c0.4,0,0.7-0.1,1-0.3c-2.5,2.8-4.5,5.5-6.1,8.1
		l-146.6,1.7l0.7,20.2l0,0.4c0,0,0,0,0,0.1l0.6,19.1l145.9-0.2C421.8,285.8,423.9,288.1,425,289.2z"/>
</g>
<g>
	<path class="st0" d="M370.7,191.5c-0.2,1.5-0.4,3-0.4,4.5L261,197l0-5L370.7,191.5z"/>
	<path class="st0" d="M371.2,204.5L261,205l0-5l109.4-1C370.5,200.9,370.8,202.8,371.2,204.5z"/>
	<path class="st0" d="M373.9,181c-1.2,2.6-2,5.1-2.6,7.5L260.9,189l0-6.3L373.9,181z"/>
	<path class="st0" d="M374.4,213.3L261,213.5l0-5.5l111-0.5C372.7,209.6,373.5,211.6,374.4,213.3z"/>
	<path class="st0" d="M380.5,222c-0.2-0.1-0.5-0.1-0.8-0.1h0l-121.8,0.6c-3.1-4-16.7-24.2,0.2-50.7l121.7-0.6c0,0,0.1,0,0.1,0
		c-1.8,2.3-3.3,4.6-4.5,6.8l-117.5,1.7l0,18.4v0.8l0,17.6l118.1-0.2C377.8,219.1,379.5,221.1,380.5,222z"/>
</g>
<g>
	<path class="st1" d="M417.4,359.8c0,1.1-0.9,2-2,2H261l-0.6-0.6c-0.1-0.1-4-4-7.4-10.6c-0.4,0.2-0.8,0.3-1.3,0.5
		c0,0-21.5,4.8-43.5-4.4l-0.3,0c0.1-0.1,0.1-0.3,0.2-0.4c0.2-0.8-0.4-1.6-1.2-1.8c-15.5-3-65.6-28.1-71.5-31.1
		c1.6-1.5,2.6-3.8,2.5-6.1c0-0.7-0.1-1.3-0.2-2c-0.6-3.1-2.3-6-4.8-8c11.5-1.9,73.6-10.6,108.2,20.2c0.3,0.3,0.6,0.4,1,0.4
		c0.4,0,0.8-0.2,1.1-0.5c0.6-0.6,0.5-1.6-0.1-2.1c-9.1-8.1-19.9-13.5-31-17.1c-13.6-24.4-25.6-77.2-25.7-77.8
		c-0.2-0.8-1-1.3-1.8-1.1c-0.8,0.2-1.3,1-1.1,1.8c0.5,2.1,11.4,50.2,24.6,75.9c-12.7-3.6-25.5-4.9-36.2-5.3
		c-22.9-0.7-41.2,2.9-41.4,3c-0.8,0.2-1.3,0.9-1.2,1.6c-6.1-0.3-11.8-0.7-18-1.1c-1.1,0-2.2-0.1-3.3,0.2c-1.7,0.5-3,1.6-4.2,2.8
		c-4.4,4.2-7.9,9.2-11.5,14.1l4.1-36.5c0.1-1.1-0.7-2.1-1.8-2.2c-1.1-0.1-2.1,0.7-2.2,1.8l-4.6,40.7c-0.1,0.6,0.1,1.1,0.5,1.5
		c-0.6,0.8-1.3,1.6-2,2.4c-10.6-3.8-19.3-5.7-26-6.5c3-12.3,12-67.5,16-92.5c0.1-0.8-0.4-1.6-1.2-1.7s-1.6,0.4-1.7,1.2
		c-5.4,33.8-13.8,84.2-16,92.7c-8.6-0.8-13.2,0.3-13.7,0.4c-0.8,0.2-1.3,1-1.1,1.8c0.2,0.8,1,1.3,1.8,1.1c0.1,0,4.6-1,13.1-0.2
		c0.2,0.2,0.5,0.2,0.8,0.2c0.2,0,0.4,0,0.5-0.1c6.4,0.7,14.8,2.4,25.2,6.1c-0.5,0.5-1,1.1-1.6,1.6c-2.2,2.3-4.7,4.3-7,6.6
		c-0.6,0.6-1.3,1.6-0.9,2.4c0.1,0.2,0.4,0.4,0.6,0.6c0.5,0.4,1.2,0.6,1.9,0.6c1.2,0.1,2.3-0.2,3.4-0.6c1.3-0.5,2.6-1.1,4-1.3
		c0.6-0.1,1.2-0.1,1.8-0.1c0,0,0,0,0,0.1l0,0.2l-0.8,7.4c-2-0.1-4.2,0.1-6.6,0.4l-0.2,0c-0.6,0.1-1.3,0.2-1.8,0.4
		c-1.9,0.5-12.2,3.2-23.3,3.8c-13,0.7-22.4-1.7-27.2-7c-0.6-0.6-1.5-0.7-2.1-0.1c-0.5,0.4-0.6,1.1-0.4,1.7l0.2,0.8l-4.4-2.1
		c0,0-8-2.1-6.3-15.9c0,0,15.5-122.3,30-147.1c0-0.1,1.7-3.8,7.7-7.8c0.1,0,0.2,0,0.3,0c0,0,0,0,0.1,0c0.7,0,1.3-0.3,1.7-0.9
		c0.1-0.2,0.2-0.4,0.2-0.5v0c8.5-5,24-10,51.3-8.7c1.1,1,2.2,1.9,3.3,2.7c0.1,0.4,0.3,0.8,0.5,1.2c0,0,0,0,0,0
		c3.9,18.8,20.3,22.6,20.5,22.7c0.1,0,0.2,0,0.3,0c0.3,0,0.7-0.1,0.9-0.3c0.4-0.3,0.6-0.7,0.6-1.2c0-8.7,5.5-12.3,7.2-13.2
		c3.8,1.1,6.5,2.9,7.8,5.3c1.7,3,0.8,6.1,0.8,6.2c-0.2,0.6,0,1.3,0.6,1.7c0.5,0.4,1.3,0.4,1.8,0c18.1-13.9,17.5-25.1,16.1-29.8
		c1.8-0.1,6-0.1,11.3,0.5c5.9,0.7,11.4,2.4,16.6,4.8c-1.2,0.6-2.5,1.2-3.8,1.5c-1.1,0.3-1.7,1.4-1.4,2.5c0.3,1.1,1.4,1.7,2.5,1.4
		c2.3-0.6,4.4-1.6,6.3-2.8c0.2-0.1,0.4-0.2,0.6-0.4c11.3,6.7,19.9,17.5,23.9,30.6l34.6,113.4c1-1.6,2-3.2,3.2-4.8l0.6-0.8h154.6
		c1.1,0,2,0.9,2,2c0,1-0.8,1.8-1.7,2c-0.1,0-0.2,0-0.3,0H261.3c-1.7,2.3-3,4.6-4.2,6.8l5.2,17.1c0,0,0.1,0.4,0.3,1.1v0
		c0.2,0.8,0.4,1.9,0.6,3.2c0.1,0.7,0.2,1.5,0.2,2.3c0.1,1.9,0,4-0.5,6.1v0c-0.8,3.6-2.6,7.3-6.4,9.9c2.4,4.7,5,7.8,6.2,9h152.7
		C416.5,357.8,417.4,358.7,417.4,359.8z"/>
	<path class="st1" d="M51.4,167.2c-0.1,0-0.2,0-0.3,0c0,0,0.1,0,0.1-0.1C51.3,167.1,51.4,167.2,51.4,167.2z"/>
	<path class="st1" d="M197,159.8c-0.2,0.1-0.4,0.2-0.6,0.4l0-0.7C196.6,159.6,196.8,159.7,197,159.8z"/>
	<path class="st1" d="M58.9,316.5c-0.2,0.1-0.4,0.1-0.5,0.1c-0.3,0-0.6-0.1-0.8-0.2C58,316.4,58.5,316.4,58.9,316.5z"/>
	<path class="st1" d="M96.4,275.9l-4.1,36.5c-1.3,1.8-2.6,3.5-4,5.3c-0.4-0.4-0.5-1-0.5-1.5l4.6-40.7c0.1-1.1,1.1-1.9,2.2-1.8
		C95.7,273.8,96.5,274.8,96.4,275.9z"/>
	<path class="st1" d="M120.6,340.1c-10.2,0.5-15.1,5.6-16.9,8.1c-0.1,0.1-0.1,0.2-0.2,0.2c-0.1-0.1-0.1-0.1-0.2-0.2
		c-1.3-1.8-5.3-6.4-13.7-7.8l0.8-7.5c0-0.2,0-0.4,0-0.5c0.1,0,0.2,0,0.3-0.1c0.8-0.2,1.5-0.5,2.1-0.8c0.4-0.1,0.8-0.3,1.2-0.3
		c0.8-0.1,1.6,0,2.4,0.1c0.6,0.1,1.3,0.1,2,0.1c1.7,0,3.4-0.2,5.1-0.6C108.8,333.4,114.5,336.4,120.6,340.1z"/>
	<path class="st1" d="M25.1,340.6l-1-0.5l-0.2-0.8c0.1,0.2,0.2,0.3,0.3,0.5C24.6,340,24.8,340.3,25.1,340.6z"/>
	<path class="st1" d="M86.8,332.4c-0.1,0.1-0.3,0.2-0.4,0.2l0-0.2c0,0,0,0,0-0.1C86.5,332.4,86.7,332.4,86.8,332.4z"/>
	<path class="st1" d="M126.8,343.4c-0.1,0-0.2,0-0.3,0c-0.2,0-0.5-0.1-0.7-0.2c0.1,0,0.3,0,0.4,0.1
		C126.4,343.3,126.6,343.3,126.8,343.4z"/>
	<path class="st1" d="M180.2,338c-4.8,5.1-13.7,7.3-26.2,6.8c-10.6-0.5-20.7-2.9-23.6-3.7c-1.1-0.3-2.3-0.5-3.6-0.7
		c-6.8-4.2-13.2-7.9-19.2-10.9c0.5-0.2,1-0.4,1.4-0.6c4-1.8,7.5-4.3,10.9-7c2.4-1.8,4.7-3.7,7.4-5c1.2-0.6,2.4-1,3.7-1.2
		c0.6-0.1,1.2-0.3,1.8-0.5c0.1,0.3,0.4,0.6,0.7,0.7C135,316.6,159.2,328.9,180.2,338z"/>
	<path class="st1" d="M182.9,338.7l0,0.4c-0.1,0-0.2-0.1-0.3-0.1C182.7,338.9,182.8,338.8,182.9,338.7z"/>
</g>
<g>
	<path class="st1" d="M427.9,291.2c0,1.1-0.9,2-2,2l-154.4,0.6l-0.6-0.6c-0.3-0.3-27.5-27.1-1.9-62.2l0.6-0.8l154.6-0.6c0,0,0,0,0,0
		c1.1,0,2,0.9,2,2c0,0.7-0.4,1.4-1,1.7c-0.3,0.2-0.6,0.3-1,0.3l-152.6,0.6c-20.8,29.5-2.1,51.7,1.5,55.6l151.9-0.6h0.8c0,0,0,0,0,0
		C427,289.2,427.9,290.1,427.9,291.2z"/>
</g>
<g>
	<path class="st1" d="M381.7,223.9c0,1.1-0.9,2-2,2L256,226.5l-0.6-0.7c-0.2-0.2-21.2-25-0.1-57.1l0.6-0.9l123.9-0.6
		c1.1,0,2,0.9,2,2c0,1.1-0.8,1.9-1.9,2c0,0-0.1,0-0.1,0l-121.7,0.6c-16.9,26.5-3.3,46.7-0.2,50.7l121.8-0.6h0c0.3,0,0.5,0,0.8,0.1
		C381.2,222.3,381.7,223,381.7,223.9z"/>
</g>
<g>
	<path class="st2" d="M423.1,281.2c0,0.8-0.7,1.5-1.5,1.5h-1.9l-145.9,0.2l-0.6-19.1c0,0,0,0,0-0.1l0-0.4l-0.7-20.2l146.6-1.7l1,0
		c0.9,0,1.5,0.6,1.5,1.5c0,0.8-0.6,1.5-1.5,1.5l-2.8,0l-141.8,1.7l0.2,6.1l138.6-0.6l2.3,0c0,0,0,0,0,0c0.8,0,1.5,0.7,1.5,1.5
		c0,0.8-0.7,1.5-1.5,1.5l-3.2,0l-137.7,0.6l0.2,6.8l136.7-1.1l0.7,0h0c0.8,0,1.5,0.7,1.5,1.5c0,0.8-0.7,1.5-1.5,1.5l-0.6,0
		L276.2,265l0.2,6l137.6-0.5l3.6,0c0,0,0,0,0,0c0.8,0,1.5,0.7,1.5,1.5c0,0.8-0.7,1.5-1.5,1.5l-2.7,0L276.5,274l0.2,5.9l141.1-0.2
		l3.8,0C422.4,279.7,423.1,280.4,423.1,281.2z"/>
</g>
<g>
	<path class="st2" d="M273.1,263.8c0-0.1,0-0.2,0-0.2c0,0,0-0.1,0-0.1L273.1,263.8z"/>
</g>
<g>
	<path class="st2" d="M412.7,349.8c0,0.8-0.7,1.5-1.5,1.5l-1.9,0l-146-0.4l-0.3-12v0c0.5-2.1,0.5-4.2,0.5-6.1c0-0.8-0.1-1.6-0.2-2.3
		c-0.2-1.3-0.4-2.4-0.6-3.2v0l-0.4-16.1l146.2-1.2l1.4,0h0c0.8,0,1.5,0.7,1.5,1.5c0,0.8-0.7,1.5-1.5,1.5l-3.1,0l-141.4,1.2l0.2,6.1
		l138.3-0.1h2.6c0.8,0,1.5,0.7,1.5,1.5c0,0.8-0.7,1.5-1.5,1.5H403l-137.5,0.1l0.2,6.8l136.6-0.5h0.9c0,0,0,0,0,0
		c0.8,0,1.5,0.7,1.5,1.5c0,0.8-0.7,1.5-1.5,1.5h-0.8L265.8,333l0.2,6h141.3c0.8,0,1.5,0.7,1.5,1.5s-0.7,1.5-1.5,1.5H266l0.2,5.9
		l141.2,0.4l3.8,0C412,348.3,412.7,349,412.7,349.8z"/>
</g>
<g>
	<path class="st2" d="M378,214.8c0,0.8-0.7,1.5-1.5,1.5h-0.4L258,216.5l0-17.6v-0.8l0-18.4l117.5-1.7l0.8,0c0,0,0,0,0,0
		c0.8,0,1.5,0.7,1.5,1.5c0,0.8-0.7,1.5-1.5,1.5l-2.4,0l-113,1.6l0,6.3l110.3-0.5l2.2,0c0,0,0,0,0,0c0.8,0,1.5,0.7,1.5,1.5
		c0,0.8-0.7,1.5-1.5,1.5l-2.8,0L260.9,192l0,5l109.3-1h0.1c0.8,0,1.5,0.7,1.5,1.5c0,0.8-0.7,1.5-1.5,1.5h-0.1L261,200l0,5l110.2-0.5
		l2.2,0c0,0,0,0,0,0c0.8,0,1.5,0.7,1.5,1.5c0,0.8-0.7,1.5-1.5,1.5l-1.4,0L261,208l0,5.5l113.4-0.2h2.1
		C377.3,213.3,378,214,378,214.8z"/>
</g>
<g>
	<path class="st2" d="M258,198.1v0.8c0-0.1,0-0.2,0-0.4S257.9,198.2,258,198.1z"/>
</g>
<g id="Layer_5">
	<g>
		<path class="st0" d="M85.3,343.1l-0.3,2.7c0,0.1,0,0.1,0,0.1c-3.2-0.3-6.9,0-11.1,1.1c-2.5,0.7-5.2,1.2-7.7,1.7
			c-4.3,0.8-11.7,1.8-19.9,2.1h0c-6.6,0.2-13.9-0.1-20.5-1.6l-1.6-9.1l1,0.5c3.3,3.2,7.8,5.1,12.7,6.1c15.9,3.4,36.9-2,40-2.8
			c0.4-0.1,1-0.2,1.5-0.3l0.2,0C81.6,343.2,83.5,343,85.3,343.1z"/>
		<path class="st0" d="M25.1,340.6l-1-0.5l-0.2-0.8c0.1,0.2,0.2,0.3,0.3,0.5C24.6,340,24.8,340.3,25.1,340.6z"/>
		<path class="st0" d="M126.8,343.4c-0.1,0-0.2,0-0.3,0c-0.2,0-0.5-0.1-0.7-0.2c0.1,0,0.3,0,0.4,0.1
			C126.4,343.3,126.6,343.3,126.8,343.4z"/>
		<path class="st0" d="M182.9,338.7l0,0.4c-0.1,0-0.2-0.1-0.3-0.1C182.7,338.9,182.8,338.8,182.9,338.7z"/>
		<path class="st0" d="M197.9,358.3l-5.8,9.1l-77.6-5.4c-0.6,0-1.1,0.2-1.5,0.6c-9.1,8.8-19.5,0.9-20,0.6c-0.4-0.3-0.9-0.5-1.4-0.4
			l-79,5.5l-5.1-9.9c0.2,0.2,0.4,0.3,0.6,0.4c6.8,2.1,14.8,2.9,23,2.9c10.8,0,22-1.4,31-2.9l0.6-0.1c2.5-0.5,5.2-1,7.6-1.6
			c3.6-0.9,6.8-1.2,9.7-1.2c10.1,0,15.7,4.3,15.8,4.4c0.7,0.5,1.6,0.4,2.1-0.2c0.5-0.6,0.4-1.6-0.2-2.1c-0.4-0.3-10.5-8.1-28.1-3.7
			c-2.3,0.6-4.9,1.1-7.4,1.6l-0.6,0.1c-10.5,1.8-28.6,4.1-43.7,2l-3.6-9.3c0.1,0.1,0.3,0.2,0.4,0.3c16.8,8,41.6,4.8,51.7,3h0
			c0.1,0,0.1,0,0.2,0c2.6-0.5,5.3-1,7.9-1.7c7.5-2.1,13.3-0.9,17.3,0.8c4.2,1.9,6.4,4.4,6.6,4.6c0.3,0.3,0.7,0.5,1.1,0.5
			c0.4,0,0.7-0.1,1-0.4c0.6-0.5,0.7-1.5,0.2-2.1c-0.1-0.1-1.2-1.4-3.2-2.8c-2-1.4-5-3.1-8.8-4c0-0.1,0.1-0.2,0.1-0.4l0.3-2.8
			c7.2,1.2,10.5,5,11.6,6.5c0,0,0,0,0.1,0.1c0.1,0.1,0.2,0.3,0.3,0.4l0,0c0.3,0.4,0.6,0.9,1.1,1.3l0.1,0.1c0.3,0.3,0.7,0.4,1.1,0.4
			s0.8-0.1,1.1-0.4l0.1-0.1c0,0,0.1-0.1,0.1-0.1c0.4-0.5,0.8-0.9,1.1-1.3c0.1-0.1,0.2-0.3,0.3-0.4c1.8-2.5,7.3-8,19.7-6.7
			c0.2,0.1,0.5,0.2,0.7,0.2c0.1,0,0.2,0,0.3,0c1,0.2,1.9,0.3,2.8,0.6c6.7,1.7,40.4,9.7,53.1-4.2c0-0.1,0.1-0.1,0.1-0.2l-0.5,8.1
			l-0.1,0.8c-13.5,3.5-29.6,2-38.9,0.6c0,0,0,0,0,0c-1.3-0.2-2.4-0.4-3.4-0.6c-2.5-0.5-5.1-1-7.7-1.7c-11.5-3.2-19.5,0.5-23.7,3.5
			c-2.1,1.5-3.2,2.8-3.3,2.9c-0.5,0.6-0.5,1.6,0.2,2.1c0.3,0.2,0.6,0.4,1,0.4c0.4,0,0.8-0.2,1.1-0.5c0.2-0.2,2.9-3.2,7.9-5.1
			c0,0,0,0,0,0c3.8-1.4,8.9-2.1,15.2-0.5h0c0.3,0.1,0.5,0.1,0.8,0.2c2.6,0.7,5.3,1.2,7.9,1.7c10,1.8,35,5,51.9-3
			c0.3-0.2,0.6-0.4,0.7-0.8l-1.9,9.7c-15.5,2.8-35.2,0.3-46.3-1.6l-0.6-0.1c-2.5-0.5-5-0.9-7.4-1.6c-17.6-4.4-27.7,3.3-28.1,3.7
			c-0.7,0.5-0.8,1.5-0.2,2.1c0.5,0.7,1.5,0.8,2.1,0.2c0.1-0.1,9.4-7.2,25.5-3.1c2.5,0.7,5.1,1.2,7.6,1.6l0.6,0.1
			c9,1.5,20.2,2.9,31,2.9c8.2,0,16.2-0.8,23-2.9C197.5,358.6,197.7,358.5,197.9,358.3z"/>
	</g>
</g>
<g>
	<path class="st2" d="M85.5,128.2c-0.2-0.3-0.4-0.6-0.5-0.9C85.1,127.6,85.3,127.9,85.5,128.2z"/>
	<path class="st2" d="M118.7,166.5c-2.3-1.1-4.5-2.4-6.7-3.9c0,0,0-0.1,0-0.2C113.8,163.7,116.2,165.2,118.7,166.5z"/>
	<path class="st2" d="M127.5,166.8c-2-0.3-4.7-1.4-7.4-2.9C122.5,165.1,125,166,127.5,166.8z"/>
</g>
<g>
	<path class="st2" d="M136.4,135.7c-0.3,0.3-0.7,0.5-1.1,0.5c-0.4,0-0.7-0.1-1-0.4c-0.8-0.8-1.8-1.3-2.9-1.7
		c0.8,3.7,0.5,7.2-0.9,10.1c-1.8,3.5-5.5,5.7-9,5.7c-0.6,0-1.2-0.1-1.7-0.2c-0.8-0.2-1.3-1-1.1-1.8c0.2-0.8,1-1.3,1.8-1.1
		c2.9,0.7,6-1.5,7.3-3.9c1.2-2.4,1.3-5.6,0.3-9c-1.7,0.2-3.3,0.9-4.5,2c-0.6,0.6-1.5,0.5-2.1-0.1c-0.6-0.6-0.5-1.5,0.1-2.1
		c2-1.8,4.6-2.9,7.3-2.9s5.4,1.1,7.3,2.9C136.9,134.2,137,135.1,136.4,135.7z"/>
</g>
<g>
	<path class="st2" d="M88,112.2c-0.6-0.4-1.1-0.8-1.4-0.9C87.1,111.5,87.6,111.8,88,112.2z"/>
	<path class="st2" d="M93.9,113.4c-0.1,0.1-0.1,0.3-0.2,0.4c-0.8-1.1-1.7-2.1-2.7-3C91.9,111.5,92.9,112.4,93.9,113.4z"/>
</g>
<g>
	
		<ellipse transform="matrix(0.8849 -0.4658 0.4658 0.8849 -37.7528 67.8084)" class="st2" cx="118.3" cy="110.3" rx="3.3" ry="3.3"/>
</g>
<g>
	<path class="st2" d="M90.1,127.3c-0.5,1.4-2,2.2-3.4,1.8c-0.5-0.2-0.9-0.4-1.2-0.8c0,0,0,0,0,0c-0.2-0.3-0.4-0.6-0.5-0.9
		c0,0,0,0,0,0c-0.2-0.5-0.2-1.1,0-1.6c0.4-1.4,2-2.2,3.4-1.8C89.7,124.3,90.5,125.8,90.1,127.3z"/>
</g>
<g>
	<path class="st2" d="M166,98.8c0.6-0.8,1.2-1.8,1.8-2.8c0.4-0.7,0.1-1.6-0.6-2c-0.7-0.4-1.6-0.1-2,0.6c-0.7,1.4-1.5,2.5-2.4,3.5
		c-0.1,0.2-0.3,0.3-0.4,0.5c-3.6,3.6-8.2,4.6-11.8,4.7c-2.7,0-5.2-0.5-7.3-1.5c-13.7-6.8-7.8-29.1-7.7-29.4c0.2-0.8-0.3-1.6-1-1.8
		c-0.8-0.2-1.6,0.3-1.8,1c-0.1,0.2-1.7,6.2-1.4,13.2c0.3,9.6,4,16.3,10.7,19.6c2.5,1.2,5.5,1.9,8.7,1.9c3.4-0.1,9-0.9,13.5-5.1
		c1.8,0.8,5.6,3.2,4,9.5c0,0-1.1,4.2-4.6,6c-2.2,1.1-4.8,1.1-8-0.1c-0.8-0.3-1.6,0.1-1.9,0.9c-0.3,0.8,0.1,1.6,0.9,1.9
		c0.4,0.1,0.8,0.3,1.1,0.4c-0.2,14.6,1,24.5,3.7,29.4c0.4,0.8,1,1.6,1.6,2.2c-6.9,11.3-17.9,14-24.2,14.6c1.2-0.8,2.4-1.8,3.6-2.9
		c5.5-5,12.4-14.6,13.8-31.4c0.1-0.8-0.6-1.5-1.4-1.6c-0.8-0.1-1.6,0.6-1.6,1.4c-2.2,28.1-20,34.7-23.1,35.6c0,0-0.1,0-0.1,0
		c-0.1,0-0.1,0-0.2-0.1c-2-0.3-4.7-1.4-7.4-2.9c-3.4-1.6-6.7-3.7-9.8-6.1h0c-7.3-5.6-13.6-12.7-18.8-20.2c4.6-3.2,6.7-9.2,5.7-15.4
		c3.4,5.6,5.8,13.5,3.8,23.7c-0.1,0.6,0.2,1.3,0.7,1.6c0.2,0.1,0.5,0.2,0.7,0.2c0.4,0,0.7-0.1,1-0.4l9.8-8.6
		c0.6-0.5,0.7-1.5,0.1-2.1c-0.5-0.6-1.5-0.7-2.1-0.1l-6.8,5.9c1.1-12.2-3.6-21-8.4-26.6c0.2-0.8,0.7-1.7,1.5-2.3
		c1.2-1,3-1.3,5.3-0.9c2.8,5.7,8.6,9.7,15.4,9.7c9.4,0,17.1-7.7,17.1-17.1s-7.7-17.1-17.1-17.1s-17.1,7.7-17.1,17.1
		c0,1.5,0.2,2.9,0.5,4.3c-2.5-0.1-4.5,0.5-6,1.7c-0.8,0.7-1.4,1.4-1.8,2.2c-0.1,0.1-0.1,0.3-0.2,0.4c-0.8-1.1-1.7-2.1-2.7-3
		c-1.2-1.1-2.6-2.1-4.1-2.8c-3.9-1.9-8-2-11.5-0.4c-0.1,0-0.2,0.1-0.2,0.1c-2.7-6.4-4.1-10.7-4.1-10.8c-0.2-0.8-1.1-1.2-1.9-1
		c-0.8,0.2-1.2,1.1-1,1.9c0,0.1,1.5,4.7,4.4,11.6c-2.1,1.8-3.7,4.2-4.5,7.2c-1.1,4-0.7,8.5,1.2,12.6c1.9,4.1,5,7.4,8.7,9.2
		c2.1,1,4.2,1.5,6.3,1.5c1.5,0,3-0.3,4.5-0.8c5,7.1,10.3,13.1,15.9,18c1.1,1,2.2,1.9,3.3,2.7c0.1,0.1,0.2,0.2,0.3,0.2
		c0,0.3,0.1,0.7,0.2,1c0,0,0,0,0,0c3.9,18.8,20.3,22.6,20.5,22.7c0.1,0,0.2,0,0.3,0c0.3,0,0.7-0.1,0.9-0.3c0.4-0.3,0.6-0.7,0.6-1.2
		c0-8.7,5.5-12.3,7.2-13.2c3.8,1.1,6.5,2.9,7.8,5.3c1.7,3,0.8,6.1,0.8,6.2c-0.2,0.6,0,1.3,0.6,1.7c0.5,0.4,1.3,0.4,1.8,0
		c18.1-13.9,17.5-25.1,16.1-29.8c-0.4-1.4-0.9-2.2-1-2.3c-0.1-0.2-0.3-0.3-0.5-0.5c-0.7-0.4-1.2-1.1-1.7-2c-1.6-3-3.5-10.2-3.3-27.3
		c0.5,0,1,0.1,1.4,0.1c1.8,0,3.4-0.4,4.9-1.2c4.6-2.4,6-7.7,6.1-7.9C172.8,103.9,168.7,100.3,166,98.8z M118.3,91.1
		c7.8,0,14.1,6.3,14.1,14.1c0,7.8-6.3,14.1-14.1,14.1c-7.8,0-14.1-6.3-14.1-14.1C104.2,97.4,110.5,91.1,118.3,91.1z M79.3,135.7
		c-3.1-1.5-5.7-4.3-7.3-7.7c-1.6-3.5-1.9-7.2-1-10.6c0.5-1.6,1.2-3.1,2.1-4.2c0.2-0.3,0.5-0.5,0.7-0.8c2.3,5.1,5.2,11.1,8.9,17.3
		c1.4,2.4,2.9,4.7,4.3,6.9C84.6,137.2,81.9,137,79.3,135.7z M89.8,135.2c-1.6-2.3-3-4.6-4.4-6.9c0,0,0,0,0,0
		c-0.2-0.3-0.4-0.6-0.5-0.9c0,0,0,0,0,0c-3.5-6-6.4-11.9-8.5-16.8c0.1,0,0.2-0.1,0.3-0.1c1.3-0.6,2.6-0.8,4-0.8c1.6,0,3.3,0.4,5,1.2
		c0.2,0.1,0.4,0.2,0.6,0.3c0.1,0.1,0.3,0.1,0.4,0.2c0.5,0.3,0.9,0.6,1.4,0.9c0.1,0.1,0.2,0.2,0.4,0.3c0,0,0.1,0.1,0.1,0.1
		c1.8,1.5,3.4,3.5,4.4,5.9C95.9,124.9,94.4,132,89.8,135.2z M127.9,180.3c-3.8-1.4-12.6-5.7-15.9-17.6c0,0,0-0.1,0-0.2
		c1.8,1.2,4.2,2.7,6.8,4c2.7,1.3,5.4,2.4,8.1,3.2c0.2,0,0.3,0.1,0.5,0.1c0.1,0,0.3,0.1,0.4,0.1c0.1,0,0.2,0,0.3,0
		c0.1,0,1.4-0.4,3.4-1.3l0,0.2c0,0,0.6,0.1,1.6,0.1h0.2C131,171,128.4,174.6,127.9,180.3z M162.3,154.2c0.8,4.1,0.3,12.6-12.5,23.4
		c-0.1-1.4-0.5-3-1.4-4.7c-1.2-2.2-3.2-4-5.9-5.3C148.9,166.1,156.7,162.4,162.3,154.2z"/>
</g>
<g>
	<path class="st2" d="M120.4,74.7c-3,0-5.4-0.8-7.4-2.5c-5.8-4.9-4.6-15-4.5-15.4c0.1-0.8,0.9-1.4,1.7-1.3c0.8,0.1,1.4,0.8,1.3,1.7
		c0,0.1-1,9,3.5,12.8c2.4,2,6.1,2.3,11.1,0.8c0.8-0.2,1.6,0.2,1.9,1c0.2,0.8-0.2,1.6-1,1.9C124.5,74.4,122.3,74.7,120.4,74.7z"/>
</g>
<g>
	<path class="st2" d="M162.7,98.1c-0.1,0.2-0.3,0.3-0.4,0.5C162.3,98.3,162.5,98.2,162.7,98.1z"/>
</g>
<g>
	<path class="st2" d="M120.2,163.9c-3.4-1.6-6.7-3.7-9.8-6.1c0.1,0,0.1,0.1,0.2,0.1C112.4,159.3,116.3,161.9,120.2,163.9z"/>
	<path class="st2" d="M126.8,169.7c-2.3-0.4-5.3-1.7-8.1-3.2C121.4,167.9,124.1,168.9,126.8,169.7z"/>
	<path class="st2" d="M127.8,166.8C127.8,166.8,127.7,166.8,127.8,166.8c-0.1,0-0.2,0-0.3,0C127.6,166.8,127.7,166.8,127.8,166.8
		C127.8,166.8,127.8,166.8,127.8,166.8z"/>
</g>
<g>
	<path class="st2" d="M106.9,86.7c-1.9,0-3.8-0.4-5.7-1.1C94.3,83,89.9,75.2,90.7,67.2c0.9-9,7-16,7.3-16.3c0.5-0.6,1.5-0.7,2.1-0.1
		c0.6,0.5,0.7,1.5,0.2,2.1c-0.1,0.1-5.7,6.7-6.5,14.7c-0.7,6.8,2.9,13.2,8.5,15.3c3.2,1.2,8,1.8,12.9-2.3c0.6-0.5,1.6-0.5,2.1,0.2
		c0.5,0.6,0.5,1.6-0.2,2.1C114,85.4,110.5,86.7,106.9,86.7z"/>
</g>
<g>
	<path class="st2" d="M162.4,144.4c-0.3,0-0.6-0.1-0.9-0.3c-0.7-0.5-0.8-1.4-0.3-2.1c6.2-8.1-0.8-17.9-0.9-18
		c-0.5-0.7-0.3-1.6,0.3-2.1c0.7-0.5,1.6-0.3,2.1,0.3c0.1,0.1,8.4,11.7,0.9,21.6C163.3,144.2,162.9,144.4,162.4,144.4z"/>
</g>
<g>
	<path class="st2" d="M175.5,149.1c-0.3,0-0.6-0.1-0.8-0.2c-0.7-0.4-0.9-1.4-0.5-2.1c10.3-16.2-1.2-27.6-1.7-28.1
		c-0.6-0.6-0.6-1.5,0-2.1c0.6-0.6,1.5-0.6,2.1,0c0.1,0.1,13.7,13.6,2.1,31.9C176.5,148.9,176,149.1,175.5,149.1z"/>
</g>
<g>
	<path class="st2" d="M92.4,98c-0.2,0-0.4,0-0.6,0c-5.7-0.2-10.9-3.1-14.4-7.9c-15.7-21.9,3.8-39.2,4-39.4c0.6-0.5,1.6-0.5,2.1,0.1
		c0.5,0.6,0.5,1.6-0.1,2.1c-0.7,0.7-17.7,15.8-3.6,35.4c2.9,4.1,7.3,6.5,12,6.7c3.9,0.1,7.2-1.2,9.6-3.9c0.6-0.6,1.5-0.7,2.1-0.1
		c0.6,0.6,0.7,1.5,0.1,2.1C100.8,96.4,97,98,92.4,98z"/>
</g>
<g>
	<path class="st2" d="M75.3,95C75.3,95,75.3,95,75.3,95c-6.4-0.3-11.5-3.4-15-8.9c-2.5-4.1-3.2-8.1-3.2-8.2
		c-5.6-24.9,15-33.2,15.2-33.2c0.8-0.3,1.6,0.1,1.9,0.9c0.3,0.8-0.1,1.6-0.9,1.9l0,0c-0.8,0.3-18.4,7.5-13.4,29.9
		c0.1,0.7,2.5,14.1,15.3,14.7c0.8,0,1.5,0.7,1.4,1.6C76.8,94.4,76.1,95,75.3,95z"/>
</g>
<g>
	<path class="st2" d="M120.5,43.1c-0.4,0-0.9-0.2-1.2-0.6c-8.9-11.4-24.2-7-24.4-7c-0.6,0.2-1.2,0-1.6-0.5c-0.4-0.5-0.4-1.2-0.1-1.7
		c8.3-13.6,22.9-11.3,23-11.3c0.8,0.1,1.4,0.9,1.2,1.7c-0.1,0.8-0.9,1.4-1.7,1.2c-0.5-0.1-10.6-1.6-17.8,6.9
		c5.7-0.7,16.5-0.6,23.8,8.8c0.5,0.7,0.4,1.6-0.3,2.1C121.1,43,120.8,43.1,120.5,43.1z"/>
</g>
<g>
	<path class="st2" d="M71.6,39.9c-0.3,0-0.6-0.1-0.9-0.3c-0.7-0.5-0.8-1.4-0.3-2.1c4.1-5.5,10-6.4,13.9-6.4c-1.6-1.5-3.3-2.5-5-2.8
		c-3.1-0.6-5.5,1-5.5,1c-0.7,0.5-1.6,0.3-2.1-0.4c-0.5-0.7-0.3-1.6,0.4-2.1c0.1-0.1,3.4-2.3,7.8-1.5c3.5,0.6,6.6,2.9,9.2,6.8
		c0.4,0.5,0.4,1.2,0,1.7c-0.4,0.5-1,0.8-1.6,0.6c-0.4-0.1-9.4-2.1-14.6,4.8C72.5,39.7,72.1,39.9,71.6,39.9z"/>
</g>
<g>
	<path class="st2" d="M211.4,138.7c-0.2,0.7-4.2,14.2-14.4,21.2c-0.2-0.1-0.3-0.2-0.5-0.3l0,0.7c-1.9,1.2-4,2.2-6.3,2.8
		c-1.1,0.3-2.2-0.3-2.5-1.4c-0.3-1.1,0.3-2.2,1.4-2.5c1.3-0.4,2.6-0.9,3.8-1.5c10.4-5.6,14.7-19.9,14.7-20.1
		c7.5-24.4-9.6-37.4-17.3-41.8c-25-14.4-22.6-41.2-20.5-52c0-0.2,0.1-0.4,0.1-0.5c1.2-6.9-0.9-14.3-5.7-19.9
		c-8.8-10.4-23.3-13.7-43.2-9.8c-15.1,2.9-27.7,9.1-27.8,9.1c-0.6,0.3-1.2,0.3-1.8,0l-0.1,0c-13.1-4.4-22.2-0.1-22.2,0
		c-0.1,0-0.1,0.1-0.2,0.1c-12,4.4-10.4,21.5-10.4,21.7c0.1,0.9-0.5,1.8-1.3,2.1c-0.1,0-13.9,5.2-16.7,18.8c-1.9,9,1.5,18.1,8.7,23.1
		c0.5,0.4,1.1,0.7,1.5,1c0,0,0.1,0,0.1,0.1c3.4,1.9,4.6,2.6,6.2,4.4c1.6,1.8,3.1,3.8,4,8.9c0.9,4.9-0.4,10.1-3.5,14.4
		c-1.5,2-3.2,3.8-5.1,5.4c-3.4,2.8-6,6-7.8,9.3c-4.8,8.9-7.4,21.7,8.1,31.7c0.8,0.5,1.1,1.4,0.8,2.2v0c0,0.2-0.1,0.4-0.2,0.5
		c-0.4,0.6-1,0.9-1.7,0.9c0,0,0,0-0.1,0c0,0-0.1-0.1-0.1-0.1c0,0-0.1,0.1-0.1,0.1c-0.2,0-0.5-0.1-0.7-0.3
		c-19-12.2-14.1-28.4-9.5-36.9c2.1-3.8,5-7.3,8.8-10.5c1.6-1.4,3.2-3.1,4.5-4.8c2.5-3.4,3.5-7.5,2.8-11.4c-0.7-4.1-1.7-5.4-3-6.9
		c-1.1-1.3-1.7-1.6-5.1-3.5c-0.7-0.3-1.3-0.8-2-1.2C38.4,85.7,34.3,75,36.5,64.4C39.3,51.2,50.4,45,54.4,43.2
		c-0.1-1.9,0-5.4,0.8-9.2c1.7-7.6,5.9-12.9,12.2-15.2c1.2-0.5,10.9-4.7,24.8-0.2c3-1.4,14.4-6.5,28-9.1c21.1-4.1,37.4-0.2,47,11.2
		c5.7,6.6,8.1,15,6.6,23.1c0,0.1-0.1,0.3-0.1,0.6c-2,10-4.2,34.7,18.5,47.8C198.9,96.1,219.9,110.8,211.4,138.7z"/>
	<path class="st2" d="M51.4,167.2c-0.1,0-0.2,0-0.3,0c0,0,0.1,0,0.1-0.1C51.3,167.1,51.4,167.2,51.4,167.2z"/>
	<path class="st2" d="M197,159.8c-0.2,0.1-0.4,0.2-0.6,0.4l0-0.7C196.6,159.6,196.8,159.7,197,159.8z"/>
</g>
<g>
	<path class="st2" d="M182.9,338.7l0,0.4c-0.1,0-0.2-0.1-0.3-0.1C182.7,338.9,182.8,338.8,182.9,338.7z"/>
	<path class="st2" d="M183,339.2c0,0.1-0.1,0.2-0.2,0.3l0-0.4C182.9,339.2,183,339.2,183,339.2z"/>
</g>
<g>
	<path class="st2" d="M192.2,347.3L192.2,347.3l-0.1,0.3c0,0,0,0,0,0c-0.1,0.3-0.4,0.6-0.7,0.8c-16.9,8-41.9,4.8-51.9,3
		c-2.6-0.5-5.3-1-7.9-1.7c-0.3-0.1-0.6-0.2-0.8-0.2h0c-6.3-1.6-11.4-0.9-15.2,0.5c0,0,0,0,0,0c-5,1.9-7.7,4.9-7.9,5.1
		c-0.3,0.3-0.7,0.5-1.1,0.5c-0.4,0-0.7-0.1-1-0.4c-0.6-0.5-0.7-1.5-0.2-2.1c0.1-0.2,1.3-1.4,3.3-2.9c4.2-3,12.2-6.7,23.7-3.5
		c2.5,0.7,5.2,1.2,7.7,1.7c1,0.2,2.1,0.4,3.4,0.6c0,0,0,0,0,0c9.3,1.4,25.4,2.9,38.9-0.6c1-0.3,2.1-0.6,3.1-0.9c0,0,0,0,0,0
		c1.6-0.5,3.2-1.2,4.7-1.9c0.7-0.4,1.6,0,2,0.7C192.2,346.7,192.2,347,192.2,347.3z"/>
	<path class="st2" d="M192.2,347.3c0,0.1,0,0.2-0.1,0.3L192.2,347.3L192.2,347.3z"/>
</g>
<g>
	<path class="st2" d="M197.9,358.3L197.9,358.3c-0.2,0.1-0.3,0.2-0.5,0.3c-6.8,2.1-14.8,2.9-23,2.9c-10.8,0-22-1.4-31-2.9l-0.6-0.1
		c-2.5-0.5-5.2-1-7.6-1.6c-16.1-4-25.4,3.1-25.5,3.1c-0.7,0.5-1.6,0.4-2.1-0.2c-0.5-0.6-0.4-1.6,0.2-2.1c0.4-0.3,10.5-8.1,28.1-3.7
		c2.4,0.6,4.9,1.1,7.4,1.6l0.6,0.1c11.1,1.9,30.8,4.4,46.3,1.6c2.2-0.4,4.3-0.9,6.3-1.5c0.8-0.2,1.6,0.2,1.9,1
		C198.5,357.3,198.3,358,197.9,358.3z"/>
</g>
<g>
	<path class="st2" d="M98,359.7c-0.5,0.7-1.4,0.8-2.1,0.2c-0.1,0-5.7-4.4-15.8-4.4c-2.9,0-6.1,0.4-9.7,1.2c-2.5,0.7-5.1,1.1-7.6,1.6
		l-0.6,0.1c-9,1.5-20.2,2.9-31,2.9c-8.2,0-16.2-0.8-23-2.9c-0.2-0.1-0.4-0.2-0.6-0.4c0,0,0,0,0,0c-0.4-0.4-0.5-1-0.4-1.5
		c0.2-0.8,1.1-1.2,1.9-1c2.8,0.8,5.8,1.5,9,1.9c15.1,2.1,33.1-0.2,43.7-2l0.6-0.1c2.5-0.5,5-0.9,7.4-1.6c17.6-4.4,27.7,3.3,28.1,3.7
		C98.4,358.1,98.5,359.1,98,359.7z"/>
</g>
<g>
	<path class="st2" d="M208.1,346.3c0,0.1-0.1,0.3-0.2,0.4c-0.2,0.5-0.8,0.8-1.3,0.8c-0.1,0-0.2,0-0.3,0c-0.8-0.1-1.7-0.4-2.6-0.6
		c-5.2-1.4-12.6-4.2-20.7-7.7c0,0-0.1,0-0.1-0.1l0-0.4c-0.1,0.1-0.2,0.2-0.3,0.3c0.1,0,0.2,0.1,0.3,0.1l0,0.4c0,0.1-0.1,0.1-0.1,0.2
		c-12.7,13.9-46.4,6-53.1,4.2c-0.9-0.2-1.8-0.4-2.8-0.6c-0.2,0-0.4-0.1-0.5-0.1c-0.2,0-0.3,0-0.4-0.1c-12.4-1.4-17.9,4.2-19.7,6.7
		c-0.1,0.2-0.2,0.3-0.3,0.4c-0.3,0.4-0.7,0.8-1.1,1.3c0,0-0.1,0.1-0.1,0.1l-0.1,0.1c-0.3,0.3-0.7,0.4-1.1,0.4s-0.8-0.1-1.1-0.4
		l-0.1-0.1c-0.4-0.4-0.8-0.9-1.1-1.3l0,0c-0.1-0.1-0.2-0.3-0.3-0.4c0,0,0-0.1-0.1-0.1c-1-1.5-4.4-5.4-11.6-6.5l-0.3,2.8
		c0,0.1,0,0.2-0.1,0.4c3.8,0.9,6.8,2.6,8.8,4c2,1.4,3.1,2.7,3.2,2.8c0.5,0.6,0.5,1.6-0.2,2.1c-0.3,0.2-0.6,0.4-1,0.4
		c-0.4,0-0.8-0.2-1.1-0.5c-0.2-0.2-2.4-2.7-6.6-4.6c-4-1.8-9.8-2.9-17.3-0.8c-2.7,0.7-5.3,1.2-7.9,1.7c-0.1,0-0.1,0-0.2,0h0
		c-10.1,1.8-34.9,4.9-51.7-3c-0.2-0.1-0.3-0.2-0.4-0.3c-0.4-0.4-0.6-1.1-0.3-1.7c0.3-0.8,1.2-1.1,2-0.7c3,1.4,6.3,2.5,9.7,3.2
		c6.7,1.5,13.9,1.8,20.5,1.6h0c8.2-0.2,15.5-1.3,19.9-2.1c2.5-0.5,5.1-1,7.7-1.7c4.2-1.2,7.9-1.4,11.1-1.1c0,0,0-0.1,0-0.1l0.3-2.7
		c-1.8,0-3.7,0.1-5.8,0.4l-0.2,0c-0.5,0.1-1,0.2-1.5,0.3c-3.1,0.8-24.1,6.2-40,2.8c-5-1-9.4-3-12.7-6.1c-0.3-0.3-0.6-0.6-0.8-0.8
		c-0.1-0.1-0.2-0.3-0.3-0.5c-0.2-0.6-0.1-1.2,0.4-1.7c0.6-0.6,1.6-0.5,2.1,0.1c4.8,5.3,14.2,7.7,27.2,7c11.1-0.6,21.4-3.2,23.3-3.8
		c0.6-0.2,1.2-0.3,1.8-0.4l0.2,0c2.4-0.4,4.6-0.5,6.6-0.4l0.8-7.4c0.1-0.1,0.2-0.2,0.4-0.2c1.2,0,2.4,0.2,3.6-0.1c0,0.2,0,0.3,0,0.5
		l-0.8,7.5c8.4,1.3,12.4,6,13.7,7.8c0.1,0.1,0.1,0.1,0.2,0.2c0.1-0.1,0.1-0.2,0.2-0.2c1.8-2.5,6.8-7.6,16.9-8.1
		c-6.1-3.6-11.8-6.7-17.2-9.3c1.4-0.3,2.8-0.8,4.1-1.3c6,3,12.4,6.7,19.2,10.9c1.2,0.2,2.4,0.4,3.6,0.7c2.8,0.7,12.9,3.2,23.6,3.7
		c12.6,0.6,21.4-1.7,26.2-6.8c-21-9.1-45.2-21.4-46.7-22.1c-0.3-0.2-0.6-0.4-0.7-0.7c1-0.4,1.9-0.9,2.6-1.7
		c5.8,3,55.9,28.1,71.5,31.1C207.7,344.7,208.2,345.5,208.1,346.3z"/>
</g>
<g>
	<path class="st1" d="M199.5,369.9c-0.1,1.1-1,1.9-2.1,1.8l-82.2-5.7c-8.8,7.8-19.1,4.2-23.9,0.7l-82.4,5.8H8.7c-1,0-1.9-0.8-2-1.9
		c-0.1-1.1,0.8-2.1,1.8-2.1l4.1-0.3l79-5.5c0.5,0,1,0.1,1.4,0.4c0.4,0.3,10.9,8.3,20-0.6c0.4-0.4,1-0.6,1.5-0.6l77.6,5.4l5.5,0.4
		C198.7,367.9,199.6,368.8,199.5,369.9z"/>
</g>
<g>
	<path class="st2" d="M86.8,332.4c-0.1,0.1-0.3,0.2-0.4,0.2l0-0.2c0,0,0,0,0-0.1C86.5,332.4,86.7,332.4,86.8,332.4z"/>
</g>
<g id="sketches" class="st3">
	
		<image style="display:inline;overflow:visible;opacity:0.44;enable-background:new    ;" width="964" height="756" xlink:href="../../../../../Screen Shot 2016-02-16 at 11.53.27 PM.png"  transform="matrix(0.6036 0 0 0.6036 -87.7401 -21.9012)">
	</image>
</g>
<g id="white">
	<g>
		<path class="st2" d="M96.4,275.9l-4.1,36.5c-1.3,1.8-2.6,3.5-4,5.3c-0.4-0.4-0.5-1-0.5-1.5l4.6-40.7c0.1-1.1,1.1-1.9,2.2-1.8
			C95.7,273.8,96.5,274.8,96.4,275.9z"/>
	</g>
	<g>
		<path class="st2" d="M57.6,316.3c0.2,0.2,0.5,0.2,0.8,0.2c0.2,0,0.4,0,0.5-0.1C58.5,316.4,58,316.4,57.6,316.3z"/>
	</g>
	<g>
		<path class="st2" d="M86.3,320.1c-0.7,0.8-1.4,1.7-2.2,2.5c-10.4-3.7-18.8-5.4-25.2-6.1c-0.5-0.1-0.9-0.1-1.4-0.2
			c-8.6-0.8-13,0.2-13.1,0.2c-0.8,0.2-1.6-0.3-1.8-1.1c-0.2-0.8,0.3-1.6,1.1-1.8c0.5-0.1,5.1-1.1,13.7-0.4
			c2.2-8.5,10.5-58.9,16-92.7c0.1-0.8,0.9-1.4,1.7-1.2s1.4,0.9,1.2,1.7c-4,25-13,80.2-16,92.5C67,314.4,75.7,316.3,86.3,320.1z"/>
		<path class="st2" d="M126.8,343.4c-0.1,0-0.2,0-0.3,0c-0.2,0-0.5-0.1-0.7-0.2c0.1,0,0.3,0,0.4,0.1
			C126.4,343.3,126.6,343.3,126.8,343.4z"/>
	</g>
	<g>
		<path class="st2" d="M243.2,317.4c-0.3,0.3-0.7,0.5-1.1,0.5c-0.4,0-0.7-0.1-1-0.4c-34.6-30.8-96.7-22.1-108.2-20.2
			c-0.4-0.3-0.8-0.6-1.2-0.8c-0.8,0-1.6-0.1-2.5-0.1c-0.1-0.8,0.4-1.5,1.2-1.6c0.2,0,18.5-3.7,41.4-3c10.7,0.3,23.5,1.7,36.2,5.3
			c-13.2-25.7-24.1-73.8-24.6-75.9c-0.2-0.8,0.3-1.6,1.1-1.8c0.8-0.2,1.6,0.3,1.8,1.1c0.1,0.5,12.1,53.3,25.7,77.8
			c11.1,3.6,21.9,9,31,17.1C243.7,315.8,243.8,316.8,243.2,317.4z"/>
	</g>
	<g>
		<path class="st2" d="M182.9,338.7l0,0.4c-0.1,0-0.2-0.1-0.3-0.1C182.7,338.9,182.8,338.8,182.9,338.7z"/>
	</g>
	<g>
		<path class="st0" d="M137.9,307.3c0.1,2.4-0.8,4.6-2.5,6.1c-0.7,0.7-1.6,1.3-2.6,1.7c-0.6,0.2-1.2,0.4-1.8,0.5
			c-1.3,0.2-2.5,0.6-3.7,1.2c-2.7,1.3-5,3.2-7.4,5c-3.4,2.7-6.9,5.2-10.9,7c-0.5,0.2-0.9,0.4-1.4,0.6c-1.3,0.5-2.7,1-4.1,1.3
			c-1.7,0.4-3.4,0.6-5.1,0.6c0.9-0.4,2-0.9,3.2-1.6c1-0.5,2-1.2,3-1.9c1.9-1.3,3.8-2.9,5.5-4.8c0.5-0.6,0.5-1.6-0.2-2.1
			c-0.6-0.5-1.6-0.5-2.1,0.2c-1.9,2.2-4.2,4-6.4,5.3c-1.2,0.7-2.3,1.3-3.3,1.8c-2.4,1.1-4.1,1.6-4.2,1.7c-0.8,0.2-1.2,1-1.1,1.7
			c-0.7,0.2-1.4,0.6-2.1,0.8c-0.1,0-0.2,0-0.3,0.1c-1.2,0.2-2.4,0.1-3.6,0.1c0.8-0.5,1.6-1,2.4-1.6c1.8-1.2,3.9-2.6,5.8-4
			c0.9-0.7,1.8-1.4,2.6-2.2c1.4-1.2,2.6-2.5,3.4-3.6c0.5-0.7,0.3-1.6-0.4-2.1c-0.7-0.5-1.6-0.3-2.1,0.4c-0.9,1.2-2.3,2.6-4,4
			c-0.9,0.7-1.8,1.4-2.8,2.1c-4.9,3.5-10.3,6.7-10.4,6.7c-0.6,0.3-0.8,1-0.7,1.6c-1.1,0.4-2.2,0.7-3.4,0.6c-0.7,0-1.4-0.2-1.9-0.6
			c-0.2-0.2-0.5-0.4-0.6-0.6c-0.4-0.8,0.3-1.8,0.9-2.4c2.3-2.3,4.8-4.3,7-6.6c0.5-0.5,1.1-1.1,1.6-1.6c0.8-0.8,1.5-1.6,2.2-2.5
			c0.7-0.8,1.3-1.6,2-2.4c1.4-1.7,2.7-3.5,4-5.3c3.6-4.9,7.2-9.9,11.5-14.1c1.2-1.2,2.5-2.3,4.2-2.8c1.1-0.3,2.2-0.2,3.3-0.2
			c6.2,0.4,11.9,0.7,18,1.1c0.8,0,1.6,0.1,2.5,0.1c0.4,0.2,0.8,0.5,1.2,0.8c2.5,2,4.2,4.8,4.8,8C137.8,306,137.9,306.6,137.9,307.3z
			"/>
	</g>
	<g>
		<path class="st2" d="M101,321.1c-0.8,1.1-2,2.4-3.4,3.6c-0.8,0.7-1.7,1.5-2.6,2.2c-1.9,1.5-3.9,2.8-5.8,4
			c-0.9,0.6-1.7,1.1-2.4,1.6c-0.1,0-0.2,0-0.4,0c-0.6,0-1.2,0-1.8,0.1c-1.4,0.2-2.6,0.8-4,1.3c-0.1-0.6,0.2-1.3,0.7-1.6
			c0.1,0,5.5-3.2,10.4-6.7c1-0.7,1.9-1.4,2.8-2.1c1.7-1.4,3.2-2.8,4-4c0.5-0.7,1.4-0.8,2.1-0.4C101.3,319.5,101.5,320.4,101,321.1z"
			/>
		<path class="st2" d="M86.8,332.4c-0.1,0.1-0.3,0.2-0.4,0.2l0-0.2c0,0,0,0,0-0.1C86.5,332.4,86.7,332.4,86.8,332.4z"/>
	</g>
	<g>
		<path class="st2" d="M110,323.1c-1.7,1.9-3.6,3.5-5.5,4.8c-1,0.7-2.1,1.4-3,1.9c-1.1,0.6-2.2,1.2-3.2,1.6c-0.7,0-1.3,0-2-0.1
			c-0.8-0.1-1.6-0.2-2.4-0.1c-0.4,0.1-0.8,0.2-1.2,0.3c-0.1-0.7,0.3-1.5,1.1-1.7c0,0,1.8-0.5,4.2-1.7c1-0.5,2.2-1.1,3.3-1.8
			c2.2-1.3,4.5-3.1,6.4-5.3c0.5-0.6,1.5-0.7,2.1-0.2C110.5,321.5,110.6,322.5,110,323.1z"/>
	</g>
</g>
</svg>
