<svg xmlns="http://www.w3.org/2000/svg" width="430" height="385" viewBox="0 0 430 385"><defs><style>.a{fill:#fdc46e;}.b{fill:#fff;}.c{fill:#005352;}.d{fill:#dd1945;}</style></defs><title>icons</title><path class="a" d="M251.17,98.85a6.59,6.59,0,0,1-9.35,2.23l-0.07,0a49.91,49.91,0,0,0-7.86-4,55.12,55.12,0,0,0-9.5-2.83,49.48,49.48,0,0,0-10.69-1q-14.41.18-21,5.64t-6.5,14.84a16.42,16.42,0,0,0,2,8.31,15.73,15.73,0,0,0,6.06,5.57,45.51,45.51,0,0,0,10.2,4q6.09,1.67,14.45,3.47a150.31,150.31,0,0,1,17.33,4.56,50.54,50.54,0,0,1,13.27,6.52,26.79,26.79,0,0,1,8.45,9.62,31.22,31.22,0,0,1,3,14,32.22,32.22,0,0,1-3.29,15.41A30.82,30.82,0,0,1,248.37,196a40.91,40.91,0,0,1-14.07,6.42,74.49,74.49,0,0,1-17.68,2.21,81.82,81.82,0,0,1-27.05-4.1,75.6,75.6,0,0,1-18.4-9A6.66,6.66,0,0,1,169,182.8l0.65-1.18a6.57,6.57,0,0,1,9.49-2.28q0.79,0.55,1.63,1.1a58.56,58.56,0,0,0,10.13,5.17,74.84,74.84,0,0,0,12.2,3.67,61.49,61.49,0,0,0,13.64,1.31q13.19-.16,20.43-4.94t7.12-14.15a15.6,15.6,0,0,0-2.45-8.74,19.93,19.93,0,0,0-6.93-6.08,52.71,52.71,0,0,0-11.26-4.46q-6.71-1.91-15.24-3.9a151.43,151.43,0,0,1-16.55-4.66,45,45,0,0,1-12-6.1,23.59,23.59,0,0,1-7.31-8.77,29.35,29.35,0,0,1-2.58-12.47,35.28,35.28,0,0,1,3.11-15.66,32.75,32.75,0,0,1,9.06-11.57,40.1,40.1,0,0,1,14-7.2,68.39,68.39,0,0,1,40.3,1,65.32,65.32,0,0,1,13,6.39,6.63,6.63,0,0,1,2.16,8.8Z"/><path class="a" d="M201.14,219.85c-3.44,0-5.09-2.73-5.14-6.17L194.26,70.37c0-3.44,1.54-6.25,5-6.29s5.09,2.73,5.14,6.17l1.74,143.31C206.17,217,204.58,219.81,201.14,219.85Z"/><path class="a" d="M230.23,219.49a6.31,6.31,0,0,1-6.4-6.15L222.09,70a6.33,6.33,0,0,1,12.65-.15l1.74,143.31A6.31,6.31,0,0,1,230.23,219.49Z"/><path class="b" d="M103.5,270.7s20.59,6.24,66.61-7.32c0,0,28.12-6,45,13.86,0,0,19.41-20.35,49.4-13.85,0,0,70.78,21.06,99.56-6.19l10,18.59,7.16-2.94,7.32,20.51,4.32-1.19-2.14,23.68L237.62,303.22s-17.25,26.67-43.38,3.82L38,316.29l-2.05-24.12,13.07,3v-22l16.72,6.9,1.88-22.92,14.77,10.54Z"/><path class="c" d="M215.94,282.91a2.91,2.91,0,0,1-2.17-.89l-0.17-.19a38.15,38.15,0,0,1-2.64-3.35c-2.77-3.87-13.86-16.19-40.58-12.25a30.15,30.15,0,0,0-3.3.71c-12.68,3.37-77.18,18.84-101.45-7.82a2.85,2.85,0,0,1,4.21-3.83c22.52,24.73,88.34,8.13,95.77,6.15a35.75,35.75,0,0,1,3.93-.84c29.9-4.42,42.8,10,46,14.57l0.29,0.4,0.29-.4c3.1-4.34,15.42-18.23,43.67-14.88a52.32,52.32,0,0,1,7,1.34c12.05,3.14,73.27,17.59,95.07-6.34a2.85,2.85,0,0,1,4.21,3.83c-10.27,11.28-28.73,16.4-54.86,15.19a235.89,235.89,0,0,1-45.85-7.18,47.08,47.08,0,0,0-6.25-1.2c-25.15-3-35.73,8.85-38.37,12.54-1,1.35-1.81,2.43-2.66,3.4a3,3,0,0,1-2.18,1h0Z"/><path class="c" d="M221.41,289.16a2.85,2.85,0,0,1-2.16-4.69c0.74-.87,18.61-21.28,51.24-12.15,5.2,1.46,10.49,2.44,14.5,3.14,23,4,65.86,8.63,95-5.19a2.85,2.85,0,0,1,2.44,5.14c-30.55,14.49-74.77,9.76-98.41,5.65-4.15-.72-9.61-1.75-15.06-3.27-29.16-8.16-45.22,10.18-45.38,10.36A2.84,2.84,0,0,1,221.41,289.16Z"/><path class="c" d="M350.08,300.27c-22.25,0-44.28-3-58.78-5.55-4.29-.75-9.92-1.78-15.52-3.21-30.58-7.77-48.13,5.82-48.3,6a2.85,2.85,0,0,1-3.54-4.45c0.8-.64,20-15.47,53.25-7,5.41,1.37,10.91,2.39,15.1,3.12,23.92,4.16,68.68,9.75,99.74.34a2.85,2.85,0,1,1,1.65,5.45C380.61,298.85,365.29,300.27,350.08,300.27Z"/><path class="c" d="M78.68,300.27c-15.21,0-30.52-1.42-43.59-5.38a2.85,2.85,0,1,1,1.65-5.45c31.06,9.41,75.82,3.83,99.74-.34,4.19-.73,9.68-1.74,15.1-3.12,33.28-8.45,52.45,6.38,53.25,7a2.85,2.85,0,0,1-3.54,4.46c-0.27-.21-18-13.67-48.31-6-5.6,1.42-11.24,2.46-15.52,3.21C123,297.24,100.92,300.27,78.68,300.27Z"/><path class="c" d="M208.77,289.7a2.84,2.84,0,0,1-2.16-1h0c-0.65-.76-16.37-18.48-45.39-10.37-5.46,1.52-10.92,2.55-15.06,3.27-23.63,4.11-67.85,8.84-98.41-5.65a2.85,2.85,0,0,1,2.44-5.14c12.51,5.93,41.48,14.48,95,5.18,4-.7,9.29-1.69,14.5-3.14,32.61-9.13,50.5,11.27,51.24,12.15A2.85,2.85,0,0,1,208.77,289.7Z"/><path class="d" d="M35.91,321.28a3.79,3.79,0,0,1-.26-7.58l157.68-10.91a3.8,3.8,0,0,1,2.6.79c0.83,0.64,20.72,15.66,37.82-1.12a3.79,3.79,0,0,1,2.92-1.08L394.35,312.3a3.79,3.79,0,1,1-.52,7.57l-156-10.8c-16.52,14.9-36.09,7.93-45.34,1.38L36.18,321.27H35.91Z"/></svg>