<svg xmlns="http://www.w3.org/2000/svg" width="432.62" height="385" viewBox="0 0 432.62 385"><defs><style>.a,.c{fill:#fff;}.b{fill:#fdc46e;}.c,.d,.e{stroke:#005352;}.c,.d,.h,.i{stroke-linecap:round;}.c,.d,.h{stroke-linejoin:round;}.c,.f,.h{stroke-width:4px;}.d,.e,.f,.h,.i{fill:none;}.d,.e,.i{stroke-width:3px;}.e,.f,.i{stroke-miterlimit:10;}.f,.h,.i{stroke:#dd1945;}.g{fill:#dd1945;}.j{fill:#005352;}</style></defs><title>icons</title><polygon class="a" points="356.93 251.05 365.97 314 43.62 314 39.2 312.13 38.41 310.08 38.07 311.84 28.2 313.34 26.98 312.98 15.17 314 13.8 313.46 2.83 314 2.48 55.69 356.93 251.05"/><path class="b" d="M55.46,193.82L69.24,284h255.1l-3.47-23H113.52s-35.9-24.75-58.06-67.18"/><path class="c" d="M3.3,54.66H331.17s3.77,117.12,100.77,205H113.52S38.72,215,2.48,55.69A0.84,0.84,0,0,1,3.3,54.66Z"/><line class="d" x1="2.12" y1="314" x2="2.12" y2="55"/><path class="d" d="M2.25,54.66L38.41,310.08a4.89,4.89,0,0,0,4.84,4.2H366l-7.84-54.66"/><line class="d" x1="14.01" y1="314.28" x2="3.36" y2="62.46"/><path class="d" d="M63.7,106.5S87.29,188.18,138.61,234l227.69-.74S317,175.5,303,106.5H63.7Z"/><path class="e" d="M273,106.88s7.72,59.94,65.59,127.29"/><path class="e" d="M241.75,106.88s7.72,59.94,65.59,127.29"/><path class="e" d="M211.49,106.88s7.72,59.94,65.59,127.29"/><path class="e" d="M175.38,106.88s9.67,59.65,67.54,127"/><path class="e" d="M138.61,106.88s11.3,59.94,69.17,127.29"/><path class="e" d="M102.62,106.88s9.32,57.18,72,127.29"/><line class="e" x1="74.62" y1="137.5" x2="311.62" y2="137.5"/><line class="e" x1="89.62" y1="165.5" x2="324.62" y2="165.5"/><line class="e" x1="102.62" y1="189.5" x2="335.62" y2="189.5"/><line class="e" x1="118.62" y1="212.5" x2="349.62" y2="212.5"/><ellipse class="f" cx="173.2" cy="151.44" rx="15.1" ry="20.14" transform="translate(-55.83 129.6) rotate(-35.72)"/><ellipse class="g" cx="159.34" cy="194.73" rx="6.57" ry="7.59" transform="translate(-83.71 129.65) rotate(-35.72)"/><ellipse class="g" cx="300.41" cy="216.93" rx="6.57" ry="7.59" transform="translate(-70.13 216.18) rotate(-35.72)"/><line class="h" x1="225.61" y1="162.24" x2="283.33" y2="193.64"/><line class="h" x1="263.5" y1="162.24" x2="242.92" y2="193.64"/><path class="i" d="M37.08,52.66a13.12,13.12,0,0,1,4.18-8.92,13.35,13.35,0,0,1,14-2.19,12.69,12.69,0,0,1,7.57,7.71,13.66,13.66,0,0,1-.19,9.08c-1.83,5.1-10,11.25-20.42,5.13"/><path class="i" d="M112.15,52.66a13.12,13.12,0,0,1,4.18-8.92,13.35,13.35,0,0,1,14-2.19,12.69,12.69,0,0,1,7.57,7.71,13.66,13.66,0,0,1-.19,9.08c-1.83,5.1-10,11.25-20.42,5.13"/><path class="i" d="M187.21,52.66a13.12,13.12,0,0,1,4.18-8.92,13.35,13.35,0,0,1,14-2.19A12.69,12.69,0,0,1,213,49.26a13.66,13.66,0,0,1-.19,9.08c-1.83,5.1-10,11.25-20.42,5.13"/><path class="i" d="M262.28,52.66a13.12,13.12,0,0,1,4.18-8.92,13.35,13.35,0,0,1,14-2.19,12.69,12.69,0,0,1,7.57,7.71,13.66,13.66,0,0,1-.19,9.08c-1.83,5.1-10,11.25-20.42,5.13"/><path class="j" d="M126.91,81.29h2.43l5.7,8.77V81.29h2.54V94.61h-2.44l-5.69-8.74v8.74h-2.54V81.29Z"/><path class="j" d="M147.37,81a6.62,6.62,0,0,1,4.86,2,6.81,6.81,0,0,1,2,5,6.73,6.73,0,0,1-2,4.94,7,7,0,0,1-9.85-.05A7,7,0,0,1,147.37,81Zm0,2.48a4.18,4.18,0,0,0-3.11,1.29A4.48,4.48,0,0,0,143,88a4.26,4.26,0,0,0,1.59,3.5,4.35,4.35,0,0,0,2.83,1,4.13,4.13,0,0,0,3.07-1.3,4.7,4.7,0,0,0,0-6.43A4.17,4.17,0,0,0,147.34,83.44Z"/><path class="j" d="M156.11,81.29h2.61l3.35,9.46,3.4-9.46h2.6l-4.8,13.32h-2.44Z"/><path class="j" d="M170.58,81.29h7.27v2.48h-4.75v2.41h4.75v2.44h-4.75v3.5h4.75v2.49h-7.27V81.29Z"/><path class="j" d="M182,81.29h2.47l3.09,9.29,3.12-9.29h2.47l2.24,13.32h-2.45l-1.43-8.41-2.83,8.41H186.4l-2.8-8.41-1.46,8.41h-2.47Z"/><path class="j" d="M197.83,94.61V81.29h2.09a10.84,10.84,0,0,1,2.67.24,3.57,3.57,0,0,1,1.9,1.18,3.09,3.09,0,0,1,.71,2,3,3,0,0,1-.32,1.38,3.5,3.5,0,0,1-1,1.16,4.17,4.17,0,0,1,1.77,1.43,3.6,3.6,0,0,1,.56,2,3.77,3.77,0,0,1-.58,2,3.7,3.7,0,0,1-1.5,1.38,5.75,5.75,0,0,1-2.53.46h-3.73Zm2.54-10.9v2.81h0.55a2.06,2.06,0,0,0,1.38-.39,1.33,1.33,0,0,0,.45-1.06,1.24,1.24,0,0,0-.43-1,2,2,0,0,0-1.3-.37h-0.65Zm0,5.07v3.41H201a3.93,3.93,0,0,0,2.13-.4,1.34,1.34,0,0,0,.55-1.16,1.63,1.63,0,0,0-.64-1.36,3.56,3.56,0,0,0-2.14-.5h-0.53Z"/><path class="j" d="M209.06,81.29h7.27v2.48h-4.75v2.41h4.75v2.44h-4.75v3.5h4.75v2.49h-7.27V81.29Z"/><path class="j" d="M219.33,81.29H222a8.88,8.88,0,0,1,3.14.39A3.22,3.22,0,0,1,226.66,83a4,4,0,0,1,.57,2.16,3.68,3.68,0,0,1-.63,2.2,3.82,3.82,0,0,1-1.9,1.34l3.16,5.92h-2.77l-3-5.64h-0.23v5.64h-2.54V81.29Zm2.54,5.21h0.79a3.1,3.1,0,0,0,1.67-.32,1.19,1.19,0,0,0,.46-1.05,1.29,1.29,0,0,0-.23-0.76,1.25,1.25,0,0,0-.61-0.46,4.57,4.57,0,0,0-1.39-.14h-0.7V86.5Z"/><line class="d" x1="26.98" y1="314.28" x2="3.36" y2="65.47"/></svg>