<?xml version="1.0" encoding="utf-8"?>
<!-- Generator: Adobe Illustrator 19.2.0, SVG Export Plug-In . SVG Version: 6.00 Build 0)  -->
<!DOCTYPE svg PUBLIC "-//W3C//DTD SVG 1.1//EN" "http://www.w3.org/Graphics/SVG/1.1/DTD/svg11.dtd">
<svg version="1.1" id="Layer_1" xmlns="http://www.w3.org/2000/svg" xmlns:xlink="http://www.w3.org/1999/xlink" x="0px" y="0px"
	 viewBox="0 0 430 385" style="enable-background:new 0 0 430 385;" xml:space="preserve">
<style type="text/css">
	.st0{display:none;}
	.st1{fill:#FFFFFF;}
	.st2{fill:#005352;}
	.st3{enable-background:new    ;}
	.st4{fill:#FDC46E;}
	.st5{fill:#DD1945;}
</style>
<g id="sketches" class="st0">
</g>
<g id="Layer_8" class="st0">
</g>
<g id="art">
	<g>
		<rect x="105.1" y="55.6" class="st1" width="216.4" height="280.5"/>
		<path class="st2" d="M321.5,338.1H105.1c-1.1,0-2-0.9-2-2V55.6c0-1.1,0.9-2,2-2h216.4c1.1,0,2,0.9,2,2v280.5
			C323.5,337.2,322.6,338.1,321.5,338.1z M107.1,334.1h212.4V57.6H107.1V334.1z"/>
	</g>
	<g class="st3">
		<path class="st2" d="M155,94.6h2.9l6.9,10.6V94.6h3.1v16.1h-3l-6.9-10.6v10.6H155V94.6z"/>
		<path class="st2" d="M179.2,94.2c2.3,0,4.2,0.8,5.9,2.5c1.6,1.7,2.5,3.7,2.5,6c0,2.4-0.8,4.3-2.4,6s-3.6,2.4-5.9,2.4
			c-2.4,0-4.4-0.8-6-2.5s-2.4-3.7-2.4-6c0-1.5,0.4-3,1.1-4.3c0.7-1.3,1.8-2.3,3.1-3.1C176.3,94.6,177.7,94.2,179.2,94.2z
			 M179.2,97.2c-1.5,0-2.7,0.5-3.8,1.6c-1,1-1.5,2.4-1.5,4c0,1.8,0.6,3.2,1.9,4.2c1,0.8,2.1,1.2,3.4,1.2c1.5,0,2.7-0.5,3.7-1.6
			c1-1.1,1.5-2.3,1.5-3.9c0-1.5-0.5-2.8-1.5-3.9C181.9,97.8,180.6,97.2,179.2,97.2z"/>
		<path class="st2" d="M189.2,94.6h3.2l4.1,11.5l4.1-11.5h3.2l-5.8,16.1h-3L189.2,94.6z"/>
		<path class="st2" d="M206.2,94.6h8.8v3h-5.8v2.9h5.8v2.9h-5.8v4.2h5.8v3h-8.8V94.6z"/>
		<path class="st2" d="M219.4,94.6h3l3.7,11.2l3.8-11.2h3l2.7,16.1h-3l-1.7-10.2l-3.4,10.2h-2.7l-3.4-10.2l-1.8,10.2h-3L219.4,94.6z
			"/>
		<path class="st2" d="M238,110.8V94.6h2.5c1.5,0,2.5,0.1,3.2,0.3c1,0.3,1.7,0.7,2.3,1.4s0.9,1.5,0.9,2.5c0,0.6-0.1,1.2-0.4,1.7
			c-0.3,0.5-0.7,1-1.3,1.4c1,0.5,1.7,1,2.1,1.7s0.7,1.5,0.7,2.4c0,0.9-0.2,1.7-0.7,2.5c-0.5,0.7-1.1,1.3-1.8,1.7
			c-0.7,0.4-1.8,0.6-3.1,0.6H238z M241.1,97.6v3.4h0.7c0.7,0,1.3-0.2,1.7-0.5c0.4-0.3,0.5-0.7,0.5-1.3c0-0.5-0.2-0.9-0.5-1.2
			c-0.3-0.3-0.9-0.4-1.6-0.4H241.1z M241.1,103.7v4.1h0.8c1.3,0,2.1-0.2,2.6-0.5s0.7-0.8,0.7-1.4c0-0.7-0.3-1.2-0.8-1.6
			c-0.5-0.4-1.4-0.6-2.6-0.6H241.1z"/>
		<path class="st2" d="M251,94.6h8.8v3h-5.8v2.9h5.8v2.9h-5.8v4.2h5.8v3H251V94.6z"/>
		<path class="st2" d="M262.9,94.6h3.2c1.8,0,3,0.2,3.8,0.5c0.8,0.3,1.4,0.8,1.8,1.6c0.5,0.7,0.7,1.6,0.7,2.6c0,1.1-0.3,1.9-0.8,2.7
			c-0.5,0.7-1.3,1.3-2.3,1.6l3.8,7.2h-3.4l-3.6-6.8H266v6.8h-3.1V94.6z M266,100.9h1c1,0,1.6-0.1,2-0.4c0.4-0.3,0.6-0.7,0.6-1.3
			c0-0.4-0.1-0.7-0.3-0.9c-0.2-0.3-0.4-0.4-0.7-0.6c-0.3-0.1-0.9-0.2-1.7-0.2H266V100.9z"/>
	</g>
	<g>
		<ellipse transform="matrix(0.6743 -0.7384 0.7384 0.6743 14.0776 180.3148)" class="st2" cx="211.5" cy="74.2" rx="6" ry="6"/>
	</g>
	<g>
		<circle class="st4" cx="212.6" cy="74.2" r="6"/>
	</g>
	<g>
		<path class="st2" d="M212.6,77.8c-2,0-3.6-1.6-3.6-3.6s1.6-3.6,3.6-3.6s3.6,1.6,3.6,3.6S214.6,77.8,212.6,77.8z M212.6,71.6
			c-1.4,0-2.6,1.2-2.6,2.6s1.2,2.6,2.6,2.6s2.6-1.2,2.6-2.6S214,71.6,212.6,71.6z"/>
	</g>
	<g>
		<rect x="271.8" y="152.9" class="st4" width="21.2" height="21.2"/>
	</g>
	<g>
		<rect x="271.8" y="188.4" class="st4" width="21.2" height="21.2"/>
	</g>
	<g>
		<rect x="271.8" y="223.8" class="st4" width="21.2" height="21.2"/>
	</g>
	<g>
		<rect x="271.8" y="259.3" class="st4" width="21.2" height="21.2"/>
	</g>
	<g>
		<path class="st5" d="M282.4,169.5l-6.9-8.4c-0.5-0.6-0.4-1.6,0.2-2.1c0.6-0.5,1.6-0.4,2.1,0.2l4.7,5.6l23.3-27.6
			c0.5-0.6,1.5-0.7,2.1-0.2c0.6,0.5,0.7,1.5,0.2,2.1L282.4,169.5z"/>
	</g>
	<g>
		<path class="st5" d="M282.4,204.6l-6.9-8.4c-0.5-0.6-0.4-1.6,0.2-2.1c0.6-0.5,1.6-0.4,2.1,0.2l4.7,5.6l23.3-27.6
			c0.5-0.6,1.5-0.7,2.1-0.2c0.6,0.5,0.7,1.5,0.2,2.1L282.4,204.6z"/>
	</g>
	<g>
		<path class="st5" d="M282.4,240.9l-6.9-8.4c-0.5-0.6-0.4-1.6,0.2-2.1c0.6-0.5,1.6-0.4,2.1,0.2l4.7,5.6l23.3-27.6
			c0.5-0.6,1.5-0.7,2.1-0.2c0.6,0.5,0.7,1.5,0.2,2.1L282.4,240.9z"/>
	</g>
	<g>
		<path class="st5" d="M282.4,276l-6.9-8.4c-0.5-0.6-0.4-1.6,0.2-2.1c0.6-0.5,1.6-0.4,2.1,0.2l4.7,5.6l23.3-27.6
			c0.5-0.6,1.5-0.7,2.1-0.2c0.6,0.5,0.7,1.5,0.2,2.1L282.4,276z"/>
	</g>
	<g>
		<path class="st5" d="M252,159H135c-0.8,0-1.5-0.7-1.5-1.5s0.7-1.5,1.5-1.5h117c0.8,0,1.5,0.7,1.5,1.5S252.8,159,252,159z"/>
	</g>
	<g>
		<path class="st5" d="M220,169h-85c-0.8,0-1.5-0.7-1.5-1.5s0.7-1.5,1.5-1.5h85c0.8,0,1.5,0.7,1.5,1.5S220.8,169,220,169z"/>
	</g>
	<g>
		<path class="st5" d="M252,193H135c-0.8,0-1.5-0.7-1.5-1.5s0.7-1.5,1.5-1.5h117c0.8,0,1.5,0.7,1.5,1.5S252.8,193,252,193z"/>
	</g>
	<g>
		<path class="st5" d="M220,203h-85c-0.8,0-1.5-0.7-1.5-1.5s0.7-1.5,1.5-1.5h85c0.8,0,1.5,0.7,1.5,1.5S220.8,203,220,203z"/>
	</g>
	<g>
		<path class="st5" d="M252,227H135c-0.8,0-1.5-0.7-1.5-1.5s0.7-1.5,1.5-1.5h117c0.8,0,1.5,0.7,1.5,1.5S252.8,227,252,227z"/>
	</g>
	<g>
		<path class="st5" d="M220,237h-85c-0.8,0-1.5-0.7-1.5-1.5s0.7-1.5,1.5-1.5h85c0.8,0,1.5,0.7,1.5,1.5S220.8,237,220,237z"/>
	</g>
	<g>
		<path class="st5" d="M252,263H135c-0.8,0-1.5-0.7-1.5-1.5s0.7-1.5,1.5-1.5h117c0.8,0,1.5,0.7,1.5,1.5S252.8,263,252,263z"/>
	</g>
	<g>
		<path class="st5" d="M220,273h-85c-0.8,0-1.5-0.7-1.5-1.5s0.7-1.5,1.5-1.5h85c0.8,0,1.5,0.7,1.5,1.5S220.8,273,220,273z"/>
	</g>
</g>
</svg>
