<?xml version="1.0" encoding="utf-8"?>
<!-- Generator: Adobe Illustrator 19.2.1, SVG Export Plug-In . SVG Version: 6.00 Build 0)  -->
<svg version="1.1" id="Layer_1" xmlns="http://www.w3.org/2000/svg" xmlns:xlink="http://www.w3.org/1999/xlink" x="0px" y="0px"
	 width="149.4px" height="157.7px" viewBox="0 0 149.4 157.7" style="enable-background:new 0 0 149.4 157.7;" xml:space="preserve"
	>
<style type="text/css">
	.st0{fill:#FFFFFF;}
</style>
<g>
	<g>
		<path class="st0" d="M16.8,100.8c9,5.8,15-4.7,15.9-12.3c-1.7,0-3.3,0-5,0c0.6,21,2.1,41.9,4.6,62.7c0.4,3.2,5.4,3.2,5,0
			c-2.5-20.8-4-41.7-4.6-62.7c-0.1-3.3-4.6-3.1-5,0c-0.4,3.8-3,11.4-8.4,7.9C16.6,94.7,14.1,99,16.8,100.8L16.8,100.8z"/>
	</g>
</g>
<g>
	<g>
		<path class="st0" d="M37.1,151.8c4.5-13.2,8.3-26.7,11.3-40.4c0.7-3.1-4.1-4.5-4.8-1.3c-3,13.7-6.7,27.2-11.3,40.4
			C31.3,153.5,36.1,154.9,37.1,151.8L37.1,151.8z"/>
	</g>
</g>
<g>
	<g>
		<path class="st0" d="M43.5,110.7c0.7,15.6,3.9,30.8,9.8,45.3c1.2,2.9,6,1.7,4.8-1.3c-5.7-14.1-8.9-28.8-9.6-44
			C48.4,107.5,43.4,107.5,43.5,110.7L43.5,110.7z"/>
	</g>
</g>
<g>
	<g>
		<path class="st0" d="M58.6,155.3c2.4-19.4,5.1-38.9,7.1-58.4c0.3-3.2-4.7-3.2-5,0c-2,19.5-4.7,38.9-7.1,58.4
			C53.2,158.5,58.2,158.5,58.6,155.3L58.6,155.3z"/>
	</g>
</g>
<g>
	<g>
		<path class="st0" d="M75.5,87c8.8,2.8,16.6-7.3,16.8-15.1c0.1-3.2-4.9-3.2-5,0c-0.1,4.6-4.9,12.1-10.5,10.3
			C73.7,81.2,72.4,86,75.5,87L75.5,87z"/>
	</g>
</g>
<g>
	<g>
		<path class="st0" d="M87.3,71.9c0,7.2,4.2,15,6.6,21.7c2.7,7.8,5.4,15.5,8.2,23.3c1.1,3,5.9,1.7,4.8-1.3c-2.5-7.1-5-14.3-7.5-21.4
			c-1.2-3.4-2.4-6.8-3.6-10.2c-1.3-3.8-3.5-8-3.5-12C92.3,68.7,87.3,68.7,87.3,71.9L87.3,71.9z"/>
	</g>
</g>
<g>
	<g>
		<path class="st0" d="M107.3,117c4.7-14.4,8.7-29,12.1-43.8c0.7-3.1-4.1-4.5-4.8-1.3c-3.4,14.8-7.4,29.4-12.1,43.8
			C101.5,118.8,106.3,120.1,107.3,117L107.3,117z"/>
	</g>
</g>
<g>
	<g>
		<path class="st0" d="M114.6,72.4c0.3,8.9,0.5,17.9,1.1,26.8c0.5,7.2,1.8,14.4,6.2,20.3c6.7,8.8,21.6,11.3,27.2-0.1
			c1.4-2.9-2.9-5.4-4.3-2.5c-2.2,4.5-7.4,6.4-12.2,4.8c-5.8-1.9-9.2-7.9-10.6-13.4c-3-11.3-2-24.2-2.4-35.8
			C119.5,69.2,114.5,69.2,114.6,72.4L114.6,72.4z"/>
	</g>
</g>
<g>
	<g>
		<path class="st0" d="M87.4,71.2c-1,6.1-0.9,12.4-1,18.6c-0.2,11.7-0.5,23.4-0.8,35c-0.1,3.2,4.9,3.2,5,0c0.2-11,0.5-22.1,0.7-33.1
			c0.1-6.3-0.2-13,0.9-19.2C92.8,69.4,87.9,68,87.4,71.2L87.4,71.2z"/>
	</g>
</g>
<g>
	<g>
		<path class="st0" d="M0.4,76.5c-1.6,4.4,1.3,9.3,5.9,10.3c5.9,1.2,10.6-3.7,12.6-8.6c2.7-7,3.1-15.5,4-22.9
			c1.1-8.9,1.8-17.9,2.2-26.9c0.1-3.2-4.9-3.2-5,0c-0.4,9.6-1.2,19.2-2.4,28.8c-0.6,4.9-1.2,9.8-2.2,14.7c-0.5,2.4-1,5-2.4,7
			c-1,1.5-2.3,2.5-4,3c-3.3,0.1-4.6-1.3-3.8-4C6.4,74.8,1.5,73.5,0.4,76.5L0.4,76.5z"/>
	</g>
</g>
<g>
	<g>
		<path class="st0" d="M63.9,56c-1.6,4.5,1.3,9.4,6,10.5c5.8,1.2,10.6-3.6,12.6-8.5c2.8-7,3.2-15.5,4.1-23
			c1.1-8.9,1.8-17.9,2.2-26.9c0.1-3.2-4.9-3.2-5,0c-0.4,9.6-1.2,19.2-2.5,28.8c-0.6,4.8-1.3,9.6-2.2,14.3c-0.5,2.4-1,5.1-2.5,7.2
			c-1,1.5-2.4,2.6-4.1,3.1c-3.4,0.1-4.7-1.3-4-4.2C69.8,54.3,64.9,53,63.9,56L63.9,56z"/>
	</g>
</g>
<g>
	<g>
		<path class="st0" d="M20.2,29c6,17.4,14.8,33.7,22.9,50.2c1.4,2.9,5.7,0.4,4.3-2.5c-8-16.1-16.5-31.9-22.4-49
			C23.9,24.7,19.1,26,20.2,29L20.2,29z"/>
	</g>
</g>
<g>
	<g>
		<path class="st0" d="M47.8,78.4C47,66.3,46.3,54.2,47,42.2c0.3-5.8,1-11.8,4.1-16.9c1.5-2.4,4-5.7,7.2-5.7c1.2,0,3.2,0.7,4,1.6
			c1.8,2.2,0.1,5.6-2.8,4.7c-3.1-1-4.4,3.8-1.3,4.8c5.7,1.9,11.9-4.3,9.7-10c-2.5-6.5-11.1-7.4-16.2-3.6c-7.3,5.6-9.1,15.6-9.6,24.2
			c-0.8,12.4,0,24.8,0.7,37.1C43,81.6,48,81.6,47.8,78.4L47.8,78.4z"/>
	</g>
</g>
<g>
	<g>
		<path class="st0" d="M84.2,9.4c6.6,14.1,12,28.7,18.8,42.7c1.4,2.9,5.7,0.4,4.3-2.5c-6.8-14-12.2-28.6-18.8-42.7
			C87.1,4,82.8,6.5,84.2,9.4L84.2,9.4z"/>
	</g>
</g>
<g>
	<g>
		<path class="st0" d="M107.7,50.9c-0.1-9.5-0.5-19.3,0.7-28.8c0.6-4.5,1.8-8.9,4.6-12.6c2.8-3.6,10.5-7.9,12.9-1.3
			c1.1,3,5.9,1.7,4.8-1.3c-4-11-17-7.2-22.4,0.5c-3.7,5.3-4.9,11.7-5.3,18c-0.6,8.4-0.5,17-0.4,25.5
			C102.7,54.1,107.7,54.1,107.7,50.9L107.7,50.9z"/>
	</g>
</g>
</svg>
