<?xml version="1.0" encoding="utf-8"?>
<!-- Generator: Adobe Illustrator 19.2.0, SVG Export Plug-In . SVG Version: 6.00 Build 0)  -->
<!DOCTYPE svg PUBLIC "-//W3C//DTD SVG 1.1//EN" "http://www.w3.org/Graphics/SVG/1.1/DTD/svg11.dtd">
<svg version="1.1" xmlns="http://www.w3.org/2000/svg" xmlns:xlink="http://www.w3.org/1999/xlink" x="0px" y="0px"
	 viewBox="0 0 430 385" style="enable-background:new 0 0 430 385;" xml:space="preserve">
<style type="text/css">
	.st0{display:none;}
	.st1{fill:#FFFFFF;}
	.st2{fill:#FDC46E;}
	.st3{fill:none;stroke:#DD1945;stroke-width:4;stroke-linecap:round;stroke-miterlimit:10;}
	.st4{fill:#FFFFFF;stroke:#005352;stroke-width:4;stroke-linecap:round;stroke-linejoin:round;stroke-miterlimit:10;}
	.st5{fill:none;stroke:#005352;stroke-width:3;stroke-linecap:round;stroke-linejoin:round;stroke-miterlimit:10;}
	.st6{fill:none;stroke:#DD1945;stroke-width:3;stroke-linecap:round;stroke-linejoin:round;stroke-miterlimit:10;}
	.st7{fill:#005352;}
	.st8{fill:none;stroke:#DD1945;stroke-width:3;stroke-miterlimit:10;}
	.st9{fill:none;stroke:#005352;stroke-width:4;stroke-linecap:round;stroke-linejoin:round;stroke-miterlimit:10;}
	.st10{fill:none;stroke:#005352;stroke-width:3;stroke-miterlimit:10;}
	.st11{fill:none;stroke:#DD1945;stroke-width:4;stroke-linecap:round;stroke-linejoin:round;stroke-miterlimit:10;}
	.st12{fill:none;stroke:#005352;stroke-width:3;stroke-linecap:round;stroke-miterlimit:10;}
	.st13{fill:none;stroke:#DD1945;stroke-width:4;stroke-miterlimit:10;}
	.st14{fill:#DD1945;}
	.st15{fill:none;stroke:#DD1945;stroke-width:3;stroke-linecap:round;stroke-miterlimit:10;}
	.st16{fill:#FFFFFF;stroke:#005352;stroke-width:3;stroke-miterlimit:10;}
	.st17{fill:#FFFFFF;stroke:#FDC46E;stroke-width:3;stroke-linecap:round;stroke-linejoin:round;stroke-miterlimit:10;}
</style>
<g id="sketches" class="st0">
</g>
<g id="Layer_8" class="st0">
</g>
<g id="art">
	<line class="st12" x1="213.5" y1="32" x2="213.5" y2="152"/>
	<polyline class="st5" points="216.2,151 253.9,36.6 255.1,97.6 	"/>
	<polyline class="st5" points="215.7,152.5 293.5,44.6 293.5,92 	"/>
	<polyline class="st5" points="217.8,152.2 332.5,63.2 332.5,108 	"/>
	<line class="st12" x1="213.5" y1="31" x2="213.5" y2="151"/>
	<polyline class="st5" points="212.2,150 174.5,35.7 173.3,98.9 	"/>
	<polyline class="st5" points="211.3,151.5 133.5,43.7 133.5,92 	"/>
	<polyline class="st5" points="209.2,151.2 94.5,62.2 94.5,107 	"/>
	<path class="st2" d="M231,354.1l142.6-57.2c0.4-0.2,0.7-0.5,0.7-1V92.4c0-0.7-0.8-1.3-1.5-1L231,150V354.1z"/>
	<path class="st2" d="M199,354.1L56.4,296.9c-0.4-0.2-0.7-0.5-0.7-1V92.5c0-0.7,0.8-1.3,1.5-1L199,150L199,354.1z"/>
	<g>
		<rect x="201" y="152" class="st1" width="28" height="200"/>
		<path class="st14" d="M227,154v196h-24V154H227 M231,150h-32v204h32V150L231,150z"/>
	</g>
</g>
</svg>
