<?xml version="1.0" encoding="utf-8"?>
<!-- Generator: Adobe Illustrator 19.2.0, SVG Export Plug-In . SVG Version: 6.00 Build 0)  -->
<!DOCTYPE svg PUBLIC "-//W3C//DTD SVG 1.1//EN" "http://www.w3.org/Graphics/SVG/1.1/DTD/svg11.dtd">
<svg version="1.1" id="Layer_1" xmlns="http://www.w3.org/2000/svg" xmlns:xlink="http://www.w3.org/1999/xlink" x="0px" y="0px"
	 viewBox="0 0 430 385" style="enable-background:new 0 0 430 385;" xml:space="preserve">
<style type="text/css">
	.st0{display:none;}
	.st1{fill:#FDC46E;}
	.st2{fill:#005352;}
	.st3{fill:#DD1945;}
</style>
<g id="sketches" class="st0">
</g>
<g id="Layer_8" class="st0">
</g>
<g id="art">
	<g>
		<polygon class="st1" points="154,77 272,77 305.7,326 237,326 215,138.2 201,326 133.2,326 		"/>
	</g>
	<g>
		<path class="st2" d="M202,314h-68c-0.8,0-1.5-0.7-1.5-1.5s0.7-1.5,1.5-1.5h68c0.8,0,1.5,0.7,1.5,1.5S202.8,314,202,314z"/>
	</g>
	<g>
		<path class="st2" d="M303,313h-68c-0.8,0-1.5-0.7-1.5-1.5s0.7-1.5,1.5-1.5h68c0.8,0,1.5,0.7,1.5,1.5S303.8,313,303,313z"/>
	</g>
	<g>
		<path class="st2" d="M274,92H153c-0.8,0-1.5-0.7-1.5-1.5s0.7-1.5,1.5-1.5h121c0.8,0,1.5,0.7,1.5,1.5S274.8,92,274,92z"/>
	</g>
	<g>
		<path class="st2" d="M214.5,131.5c-0.4,0-0.7-0.1-1-0.4c-0.3-0.3-0.5-0.7-0.5-1.1V91c0-0.8,0.7-1.5,1.5-1.5s1.5,0.7,1.5,1.5v36.3
			c2.5-2.7,6.9-11.1,6.9-36.8c0-0.8,0.7-1.5,1.5-1.5s1.5,0.7,1.5,1.5c0,38.7-10.1,40.9-11.2,41C214.6,131.5,214.6,131.5,214.5,131.5
			z"/>
	</g>
	<g>
		<path class="st3" d="M158.8,134c-0.2,0-0.4,0-0.6,0c-0.8,0-1.5-0.7-1.5-1.5c0-0.8,0.7-1.5,1.5-1.5c12.1,0.2,20.9-6.3,26.5-19.2
			c4.2-9.9,4.8-20,4.8-20.1c0-0.8,0.7-1.5,1.6-1.4c0.8,0,1.5,0.7,1.4,1.6C192.5,92.3,190,134,158.8,134z"/>
	</g>
	<g>
		<path class="st3" d="M271.4,134c-31.2,0-33.7-41.7-33.7-42.1c0-0.8,0.6-1.5,1.4-1.6c0.8-0.1,1.5,0.6,1.6,1.4
			c0,0.1,0.6,10.2,4.8,20.1c5.5,12.9,14.4,19.4,26.5,19.2c0.8,0,1.5,0.6,1.5,1.5c0,0.8-0.6,1.5-1.5,1.5
			C271.8,134,271.6,134,271.4,134z"/>
	</g>
	<g>
		<path class="st3" d="M171.9,92c-0.5,0-0.9-0.2-1.2-0.6c-5.2-6.9-0.3-14.9-0.1-15.2c0.4-0.7,1.4-0.9,2.1-0.5
			c0.7,0.4,0.9,1.4,0.5,2.1l0,0c-0.2,0.3-4,6.5-0.1,11.8c0.5,0.7,0.4,1.6-0.3,2.1C172.5,91.9,172.2,92,171.9,92z"/>
	</g>
	<g>
		<path class="st3" d="M199.9,92c-0.5,0-0.9-0.2-1.2-0.6c-5.2-6.9-0.3-14.9-0.1-15.2c0.4-0.7,1.4-0.9,2.1-0.5
			c0.7,0.4,0.9,1.4,0.5,2.1l0,0c-0.2,0.3-4,6.5-0.1,11.8c0.5,0.7,0.4,1.6-0.3,2.1C200.5,91.9,200.2,92,199.9,92z"/>
	</g>
	<g>
		<path class="st3" d="M256.8,92c-0.3,0-0.6-0.1-0.9-0.3c-0.7-0.5-0.8-1.4-0.3-2.1c3.9-5.3,0-11.7-0.1-11.8
			c-0.4-0.7-0.2-1.6,0.5-2.1c0.7-0.4,1.6-0.2,2.1,0.5c0.2,0.3,5.1,8.2-0.1,15.2C257.7,91.8,257.3,92,256.8,92z"/>
	</g>
	<g>
		<path class="st3" d="M228.8,92c-0.3,0-0.6-0.1-0.9-0.3c-0.7-0.5-0.8-1.4-0.3-2.1c3.9-5.3,0-11.7-0.1-11.8
			c-0.4-0.7-0.2-1.6,0.5-2.1c0.7-0.4,1.6-0.2,2.1,0.5c0.2,0.3,5.1,8.2-0.1,15.2C229.7,91.8,229.3,92,228.8,92z"/>
	</g>
</g>
</svg>
