<?xml version="1.0" encoding="utf-8"?>
<!-- Generator: Adobe Illustrator 19.2.0, SVG Export Plug-In . SVG Version: 6.00 Build 0)  -->
<!DOCTYPE svg PUBLIC "-//W3C//DTD SVG 1.1//EN" "http://www.w3.org/Graphics/SVG/1.1/DTD/svg11.dtd">
<svg version="1.1" id="Layer_1" xmlns="http://www.w3.org/2000/svg" xmlns:xlink="http://www.w3.org/1999/xlink" x="0px" y="0px"
	 viewBox="0 0 430 385" style="enable-background:new 0 0 430 385;" xml:space="preserve">
<style type="text/css">
	.st0{fill:#FFFFFF;}
	.st1{display:none;}
	.st2{fill:#005352;}
	.st3{fill:#FDC46E;}
</style>
<path class="st0" d="M296.5,318.6c-0.7,3.5-1,6.9-0.9,10.1l-193.3,0.8l-0.3-10.9H296.5z"/>
<path class="st0" d="M297.3,342.2H102.6l-0.3-9.7l193.3-0.8C295.8,335.4,296.4,338.9,297.3,342.2z"/>
<path class="st0" d="M301.3,304.2c-1.9,3.9-3.2,7.7-4.1,11.4H101.8l-0.3-9.7L301.3,304.2z"/>
<path class="st0" d="M302.2,355.3L103,354.7l-0.3-9.5h195.4C299.3,348.9,300.7,352.3,302.2,355.3z"/>
<path class="st0" d="M311.3,368.9h-213c-2-2.2-9.2-10.5-13.2-22.8c-6.1-19-2.3-38.2,11.3-57.1h214.9c-3.4,4.1-6.2,8.2-8.4,12.2
	l-204.4,1.7l1.6,54.8l203.8,0.6C306.7,363.2,309.5,366.8,311.3,368.9z"/>
<path class="st0" d="M333.2,221.9c-0.7,3.5-1.1,6.9-1.1,10.2l-194,1.6l-0.4-11L333.2,221.9z"/>
<path class="st0" d="M333.6,245.6l-195.1,0.8l-0.3-9.7l194-1.6C332.2,238.8,332.8,242.3,333.6,245.6z"/>
<path class="st0" d="M338.3,258.6l-199.4,0.3l-0.3-9.5l195.8-0.8C335.4,252.3,336.8,255.6,338.3,258.6z"/>
<path class="st0" d="M338.3,207.5c-2,3.9-3.4,7.7-4.4,11.4l-196.4,0.8l-0.3-9.7L338.3,207.5z"/>
<path class="st0" d="M339.8,261.6c2.6,4.7,5.2,8.3,7.2,10.6l-212.8,0.9c-2-2.2-9.3-10.4-13.3-22.8c-6.2-18.9-2.5-38.1,11.1-57.1
	l215.5-0.9c0.8,0,1.5-0.5,1.8-1.2h0.4c-4,4.5-7.2,9-9.7,13.4L134.2,207l1.8,54.9L339.8,261.6z"/>
<path class="st0" d="M153.2,103c-2,3.1-3.7,6.1-5.2,9.1C150.7,106.4,153.2,103,153.2,103L153.2,103z"/>
<path class="st0" d="M315.9,131.8c-0.5,3-0.8,6-0.8,8.8L160.4,142v-9.4L315.9,131.8z"/>
<path class="st0" d="M316.1,152.6l-155.7,0.7V145l154.7-1.4C315.2,146.8,315.6,149.8,316.1,152.6z"/>
<path class="st0" d="M319.9,164.9l-159.5,0.3v-8.9l156.4-0.7C317.7,159,318.8,162.1,319.9,164.9z"/>
<path class="st0" d="M320,118.3c-1.6,3.6-2.7,7.1-3.5,10.5l-156.1,0.8v-9L320,118.3z"/>
<path class="st0" d="M321.3,167.9c2,4.1,4.1,7.4,5.6,9.5l-170.6,0.8c-1.7-2.2-7.1-9.7-9.9-20.7c-4.5-17.4-1-35,10.2-52.4l171.6-0.8
	c-2.8,3.7-5,7.4-6.8,11l-164,2.3v25.9c0,0,0,0,0,0v24.7L321.3,167.9z"/>
<path class="st0" d="M280.4,63.8l-158.1,0.8v-8.3l157.2-1.5C279.5,58,279.9,61,280.4,63.8z"/>
<path class="st0" d="M280.4,43c-0.6,3-0.9,6-1,8.8l-157.2,1.5v-9.5L280.4,43z"/>
<path class="st0" d="M284.1,76.2l-161.8,0.2v-8.8l158.8-0.8C281.9,70.2,283,73.4,284.1,76.2z"/>
<path class="st0" d="M284.7,29.6c-1.6,3.6-2.8,7.1-3.6,10.5l-158.8,0.8v-9L284.7,29.6z"/>
<path class="st0" d="M285.4,79.2c1.9,4,3.8,7.2,5.4,9.4L118,89.4c-3.8-4.8-25.2-34.7,0.3-73.1l174.8-0.8c-2.8,3.7-5.1,7.4-7,11
	l-166.9,2.3v26c0,0,0,0,0,0v24.6L285.4,79.2z"/>
<g id="sketches" class="st1">
	
		<image style="display:inline;overflow:visible;opacity:0.44;enable-background:new    ;" width="1010" height="682" xlink:href="../../../../../Screen Shot 2016-02-16 at 11.53.32 PM.png"  transform="matrix(0.6948 0 0 0.6948 76.358 -30.8664)">
	</image>
</g>
<g id="books">
</g>
<g id="yellow_solids">
</g>
<g id="Layer_5">
</g>
<g id="white">
</g>
<g id="blue_lines">
	<g>
		<g>
			<path class="st2" d="M345.3,260.1c0,0.8-0.7,1.5-1.5,1.5l-4,0L136,261.9l-1.8-54.9l205.8-2.5l1.6,0c0,0,0,0,0,0
				c0.8,0,1.5,0.7,1.5,1.5c0,0.8-0.6,1.5-1.5,1.5l-3.3,0L137.2,210l0.3,9.7l196.4-0.8l2.9,0c0,0,0,0,0,0c0.8,0,1.5,0.7,1.5,1.5
				c0,0.8-0.7,1.5-1.5,1.5l-3.6,0l-195.5,0.8l0.4,11l194-1.6h0.2c0.8,0,1.5,0.7,1.5,1.5c0,0.8-0.7,1.5-1.5,1.5h-0.2l-194,1.6
				l0.3,9.7l195.1-0.8l4.5,0c0,0,0,0,0,0c0.8,0,1.5,0.7,1.5,1.5c0,0.8-0.7,1.5-1.5,1.5l-3.8,0l-195.8,0.8l0.3,9.5l199.4-0.3l5.5,0
				C344.6,258.6,345.3,259.3,345.3,260.1z"/>
		</g>
		<g>
			<path class="st2" d="M309.4,356.8c0,0.8-0.7,1.5-1.5,1.5l-4,0L100,357.7l-1.6-54.8l204.4-1.7l3,0h0c0.8,0,1.5,0.7,1.5,1.5
				c0,0.8-0.7,1.5-1.5,1.5l-4.6,0l-199.8,1.7l0.3,9.7H301c0.8,0,1.5,0.7,1.5,1.5c0,0.8-0.7,1.5-1.5,1.5H101.9l0.3,10.9l193.3-0.8h1
				c0,0,0,0,0,0c0.8,0,1.5,0.7,1.5,1.5c0,0.8-0.7,1.5-1.5,1.5h-0.9l-193.3,0.8l0.3,9.7h199.7c0.8,0,1.5,0.7,1.5,1.5
				s-0.7,1.5-1.5,1.5H102.7l0.3,9.5l199.3,0.6l5.7,0C308.7,355.3,309.4,356,309.4,356.8z"/>
		</g>
		<g>
			<path class="st2" d="M325.3,166.4c0,0.8-0.7,1.5-1.5,1.5h-2.5l-163.9,0.3v-24.7c0,0,0,0,0,0v-25.9l164-2.3l2.1,0
				c0.8,0,1.5,0.7,1.5,1.5c0,0.8-0.7,1.5-1.5,1.5l-3.5,0l-159.6,2.2v9l156.1-0.8l2.8,0h0c0.8,0,1.5,0.7,1.5,1.5
				c0,0.8-0.7,1.5-1.5,1.5l-3.4,0l-155.5,0.8v9.4l154.6-1.4h0.3c0.8,0,1.5,0.7,1.5,1.5c0,0.8-0.7,1.5-1.5,1.5h-0.2L160.4,145v8.3
				l155.7-0.7l3.4,0c0,0,0,0,0,0c0.8,0,1.5,0.7,1.5,1.5c0,0.8-0.7,1.5-1.5,1.5l-2.7,0l-156.4,0.7v8.9l159.5-0.3l3.9,0
				C324.6,164.9,325.3,165.6,325.3,166.4z"/>
		</g>
		<g>
			<path class="st2" d="M291.3,77.7c0,0.8-0.7,1.5-1.5,1.5l-4.4,0l-166.1,0.2V54.8c0,0,0,0,0,0v-26l166.9-2.3l3.2,0c0,0,0,0,0,0
				c0.8,0,1.5,0.7,1.5,1.5c0,0.8-0.7,1.5-1.5,1.5l-4.7,0.1l-162.4,2.2v9L281.1,40l4.1,0c0,0,0,0,0,0c0.8,0,1.5,0.7,1.5,1.5
				c0,0.8-0.7,1.5-1.5,1.5l-4.8,0l-158.1,0.8v9.5l157.2-1.5l1.6,0c0,0,0,0,0,0c0.8,0,1.5,0.7,1.5,1.5c0,0.8-0.7,1.5-1.5,1.5l-1.6,0
				l-157.2,1.5v8.3l158.1-0.8l5,0c0,0,0,0,0,0c0.8,0,1.5,0.7,1.5,1.5c0,0.8-0.7,1.5-1.5,1.5l-4.3,0l-158.8,0.8v8.8l161.8-0.2l5.7,0
				C290.6,76.2,291.3,76.9,291.3,77.7z"/>
		</g>
		<g>
			<path class="st3" d="M351.8,274.2c0,1.1-0.9,2-2,2l-217.3,0.9l-0.6-0.6c-0.4-0.4-9.8-9.5-14.8-24.8c-4.7-14.1-6.4-36.3,12.2-61.7
				l0.6-0.8l217.5-0.9h0c1.1,0,2,0.9,2,2c0,0.3-0.1,0.6-0.2,0.8c-0.3,0.7-1,1.2-1.8,1.2l-215.5,0.9c-13.6,19-17.3,38.2-11.1,57.1
				c4.1,12.3,11.3,20.6,13.3,22.8l212.8-0.9l2.8,0h0C350.9,272.2,351.8,273.1,351.8,274.2z"/>
		</g>
		<g>
			<path class="st3" d="M315.9,370.9c0,1.1-0.9,2-2,2H96.6l-0.6-0.6c-0.4-0.4-9.7-9.6-14.7-24.9c-4.6-14.1-6.2-36.3,12.4-61.7
				l0.6-0.8h217.5c1.1,0,2,0.9,2,2s-0.9,2-2,2H96.3c-13.6,18.9-17.4,38.1-11.3,57.1c4,12.4,11.2,20.7,13.2,22.8h215.7
				C315,368.9,315.9,369.8,315.9,370.9z"/>
		</g>
		<g>
			<path class="st3" d="M330.3,179.4c0,1.1-0.9,2-2,2l-173.9,0.8l-0.6-0.7c-0.3-0.4-7.6-8.8-11.3-22.9c-0.7-2.7-1.3-5.8-1.6-9.2
				c0,0.3,0.1,0.7,0.1,1c-0.1-0.6-0.2-1.2-0.2-1.8c0,0,0-0.1,0-0.2c0-0.2,0-0.4-0.1-0.6c0-0.5-0.1-1-0.1-1.5
				c-0.1-1.8-0.1-3.6-0.1-5.5c0-0.3,0-0.7,0-1c0-0.3,0-0.7,0.1-1c0.7-9.7,3.6-18.3,6.4-24.7c0.2-0.4,0.4-0.8,0.6-1.2
				c0.1-0.3,0.3-0.6,0.4-0.8c1.5-3,3.2-6,5.2-9.1c0.2-0.3,0.4-0.7,0.6-1l0.6-0.9l174.1-0.8h0c1.1,0,2,0.9,2,2c0,1.1-0.9,2-2,2h-0.3
				l-171.6,0.8c-11.3,17.4-14.7,35-10.2,52.4c2.8,11,8.2,18.5,9.9,20.7l170.6-0.8l1.4,0h0C329.4,177.4,330.3,178.3,330.3,179.4z"/>
			<path class="st3" d="M147,114.2c-2.8,6.4-5.7,15-6.4,24.7C141.1,131.4,142.9,123.1,147,114.2z"/>
		</g>
		<g>
			<path class="st3" d="M296.4,90.6c0,1.1-0.9,2-2,2l-178.2,0.8l-0.6-0.7c-0.3-0.4-7.8-8.8-11.5-22.9c-3.5-13-4.3-33.3,11.6-56.7
				l0.6-0.9l178.4-0.8h0c1.1,0,2,0.9,2,2c0,1.1-0.9,2-2,2l-1.5,0l-174.8,0.8c-25.5,38.4-4.1,68.3-0.3,73.1l172.8-0.8l3.6,0h0
				C295.5,88.6,296.4,89.5,296.4,90.6z"/>
		</g>
	</g>
</g>
</svg>
