<svg xmlns="http://www.w3.org/2000/svg" width="430" height="385" viewBox="0 0 430 385"><defs><style>.a,.c{fill:#fff;}.b{fill:none;stroke-miterlimit:10;}.b,.c{stroke:#005352;stroke-linecap:round;stroke-width:3px;}.c{stroke-linejoin:round;}.d{fill:#dd1945;}.e{fill:#fdc46e;}.f{fill:#005352;}</style></defs><title>icons</title><polygon class="a" points="220.64 150.61 325.2 107.1 329.06 113.07 232.92 154.12 220.64 150.61"/><polygon class="a" points="98.19 105.35 206.61 149.56 196.08 152.72 96.44 110.96 98.19 105.35"/><line class="b" x1="213.5" y1="32" x2="213.5" y2="152"/><polyline class="c" points="216.21 151 253.94 36.6 255.07 97.59"/><polyline class="c" points="215.74 152.49 293.5 44.61 293.5 92"/><polyline class="c" points="217.84 152.21 332.5 63.18 332.5 108"/><line class="b" x1="213.5" y1="31" x2="213.5" y2="151"/><polyline class="c" points="212.2 150.05 174.47 35.65 173.3 98.87"/><polyline class="c" points="211.26 151.54 133.5 43.66 133.5 92"/><polyline class="c" points="209.16 151.24 94.5 62.23 94.5 107"/><path class="d" d="M231,354.13l142.59-57.23a1.05,1.05,0,0,0,.66-1V92.45a1.05,1.05,0,0,0-1.45-1L231,150V354.13Z"/><path class="d" d="M199,354.14L56.37,296.91a1.05,1.05,0,0,1-.66-1V92.47a1.05,1.05,0,0,1,1.45-1L199,150V354.14Z"/><rect class="e" x="201" y="152" width="28" height="200"/><path class="f" d="M227,154V350H203V154h24m4-4H199V354h32V150h0Z"/></svg>