<svg xmlns="http://www.w3.org/2000/svg" width="430" height="385" viewBox="0 0 430 385"><defs><style>.a,.l,.m{fill:#fff;}.b{fill:#fdc46e;}.c,.d,.e,.g,.h,.i,.j,.k{fill:none;}.c,.e,.g,.j{stroke:#dd1945;}.c,.d,.e,.h,.j,.k,.m{stroke-linecap:round;}.c,.g,.i,.k,.l{stroke-miterlimit:10;}.c,.h,.j{stroke-width:4px;}.d,.h,.i,.k,.l{stroke:#005352;}.d,.e,.h,.j,.m{stroke-linejoin:round;}.d,.e,.g,.i,.k,.l,.m{stroke-width:3px;}.f{fill:#005352;}.m{stroke:#fdc46e;}</style></defs><title>icons</title><path class="a" d="M163.22,18.6c5.5,4.68,8.43,12,8.89,19.21,0.43,6.68-1.44,13.31-1.56,20a38.82,38.82,0,0,0,9.38,25.85c9.82,11.32,26.45,17.36,31.13,31.6,2.37,7.2,1,15.13-1.47,22.29-2.86,8.19-7.61,16.27-15.32,20.24-5.63,2.9-12.75,3.62-16.7,8.57-1.61,2-2.48,4.52-3.76,6.77-3.56,6.23-10.15,10.12-16.83,12.72-14,5.44-29.34,6.43-44.23,4.83S83.36,185,69.07,180.51a9,9,0,0,1-3.71-1.83c-1.16-1.11-1.63-2.73-2.35-4.17-3.18-6.33-10.85-8.73-16.2-13.38a23.57,23.57,0,0,1-5.72-27c3-6.44,8.78-11.09,13.07-16.75s7-13.8,3.1-19.73C54.83,94,50.45,92.12,47,89.33,40.45,84,37.37,75,38.62,66.73S45.18,50.94,52.26,46.4c1.87-1.2,4-2.35,4.87-4.38s0.33-4.19.28-6.32c-0.16-7.59,6.22-14.18,13.5-16.34S86.06,18.63,93.27,21C93.27,21,137.55-3.24,163.22,18.6Z"/><path class="b" d="M107,157.15s4.08,11.43,8.17,16.09a27.71,27.71,0,0,0,6.21,4.94c2.3,1.45,5.52,2.93,7.94,4.17a22.61,22.61,0,0,1,2.23-8.61c1.37-2.65,4.62-6.06,6.25-6.17,3.15,0,6.19,2.08,7.89,4.53A13,13,0,0,1,148,181c5.87-2.59,10-8.06,12.89-13.79,2.57-5.06,4.79-9.33,3.17-14.76a66.55,66.55,0,0,1,12.27.44,53.49,53.49,0,0,1,44.58,37.62l41.4,135.74s6.09,19.56-10.58,25c0,0-21.49,4.77-43.52-4.37L49.55,352.54,19.78,338s-8-2.11-6.33-15.94c0,0,15.53-122.34,30-147.08C43.42,175,52.95,154,107,157.15Z"/><path class="a" d="M44.29,345.85S55.14,349.14,79.4,342c0,0,14.82-3.18,23.7,7.31a29.07,29.07,0,0,1,26-7.3s37.3,11.1,52.47-3.26l5.28,9.8,3.78-1.55,3.86,10.81,2.27-.62-1.13,12.48L115,363s-9.09,14.06-22.86,2L9.76,369.88,8.82,357.17l7,1.59V347.18l8.67,3.64,0.92-12.08,7.75,5.55Z"/><path class="a" d="M376.35,170.38s-15.8,24.8.14,51.8H257.85s-24.09-19.12,0-51.21Z"/><path class="a" d="M422.35,232.38s-15.78,31.87.16,58.87l-150.21.59s-25.53-26.78-1.45-58.87Z"/><path class="a" d="M411.35,299.38s-15.78,31.87.16,58.87l-150.21.59s-25.53-26.78-1.45-58.87Z"/><path class="c" d="M425.93,291.24l-153.63.61s-26.5-25.55-1.69-59.56l153.63-.61"/><path class="c" d="M379.32,224.19l-124.14.66s-20.75-23.7.17-55.28l124.14-.66"/><path class="d" d="M69.56,97.35s19.11,60.23,58.11,71c0,0,22.2-5.41,24.71-37.07"/><path class="d" d="M122.75,134.67a9.1,9.1,0,0,1,12.52,0"/><path class="d" d="M120.17,148.22c3.55,0.83,7.33-1.49,9-4.75s1.43-7.18.34-10.66"/><path class="d" d="M112.27,137.59l-9.8,8.6c-1.25-23.49-11.71-33.67-11.71-33.67"/><circle class="e" cx="118.29" cy="105.18" r="15.6"/><ellipse class="e" cx="82.53" cy="123.22" rx="12.97" ry="15.6" transform="translate(-43.54 45.11) rotate(-24.41)"/><circle class="f" cx="118.29" cy="110.26" r="3.27" transform="translate(-37.74 67.79) rotate(-27.76)"/><circle class="f" cx="87.46" cy="126.49" r="2.65" transform="translate(-59.27 172.53) rotate(-72.76)"/><path class="g" d="M94.33,117.86s-0.21-8.7,9.6-6.58"/><path class="d" d="M109.92,57s-2.57,21,16.47,15.18"/><path class="d" d="M133.9,71.92S127.42,95.6,142.42,103a17.18,17.18,0,0,0,8,1.68c4.6-.11,11.92-1.62,16-9.43"/><path class="d" d="M163.5,99.31s8.26,2.29,5.88,11.64c0,0-2.89,11.27-14.46,6.91"/><path class="d" d="M157,118.5c0.07,0-.9,21.74,3.48,29.84a6.26,6.26,0,0,0,2.22,2.53s8,12.76-14.68,30.16c0,0,3.07-10-10.18-13.46,0,0-8.48,3.62-8.48,14.78,0,0-16.46-3.65-19.61-23.05,0,0,11.77,8.5,17.94,9.09"/><path class="d" d="M99.13,51.81s-6,6.92-6.87,15.53c-0.68,7,2.93,14.37,9.5,16.91a13.65,13.65,0,0,0,14.41-2.55"/><path class="d" d="M161.46,123.11s7.83,10.7.91,19.83"/><path class="d" d="M173.61,117.65s13,12.48,1.89,30"/><path class="d" d="M82.53,51.81S63.62,68.24,78.7,89.25a17.23,17.23,0,0,0,13.2,7.35,13.42,13.42,0,0,0,10.79-4.42"/><path class="d" d="M72.86,46S53.19,53.58,58.58,77.6c0,0,2.45,15.19,16.66,15.93"/><path class="d" d="M116,23.5A21.9,21.9,0,0,0,94.45,34.11s16.42-4.85,26,7.47"/><path class="d" d="M72.86,28.09S80.71,22.7,87.78,33c0,0-10.33-2.45-16.21,5.39"/><path class="h" d="M189.63,161.14c14.42-4,19.95-23,19.95-23,8.54-27.83-13.65-41.5-18.21-44.11-28-16.09-19.72-48.47-19.36-50.51A26.43,26.43,0,0,0,165.83,22C143.41-4.48,92.4,20.81,92.4,20.81l-0.22-.05c-14.19-4.76-23.9,0-23.9,0-13.66,5-11.66,23.76-11.66,23.76s-14.91,5.42-18,20.28A24.57,24.57,0,0,0,48.07,90c0.56,0.4,1.15.78,1.77,1.13,3.37,1.95,4.33,2.42,5.7,4C57,96.85,58.28,98.55,59,103a17.1,17.1,0,0,1-3.24,12.87A29.64,29.64,0,0,1,51,121a34.65,34.65,0,0,0-8.27,9.86c-4.72,8.71-8.54,23.2,8.76,34.26"/><path class="i" d="M131.61,167.34s20.77,1.93,31.07-16.47"/><path class="d" d="M181.59,338.74c-12,13.22-44.72,5.57-51.59,3.78a26,26,0,0,0-3.49-.67c-14-1.66-20,5-21.62,7.23-0.41.58-.84,1.14-1.31,1.67l-0.06.06-0.09-.1a19.12,19.12,0,0,1-1.29-1.64c-1.63-2.28-7.94-9.27-22.82-7.07a17.32,17.32,0,0,0-1.91.41c-5.93,1.58-39.69,9.8-52-3.68"/><path class="d" d="M106.43,354.08s9-10.54,25.46-5.93a79.24,79.24,0,0,0,7.79,1.69c11.32,2,35,4.72,51-2.85"/><path class="d" d="M108.7,358.78s9.74-7.74,26.76-3.42c2.65,0.67,5.35,1.19,8.07,1.67,11.75,2,36.33,5.26,53.26.14"/><path class="d" d="M96.76,358.78S87,351,70,355.36c-2.65.67-5.35,1.19-8.07,1.67-11.75,2-36.33,5.26-53.26.14"/><path class="d" d="M99.77,354.37s-9-10.54-25.46-5.93a79.24,79.24,0,0,1-7.79,1.69c-11.32,2-35,4.72-51-2.85"/><path class="j" d="M8.67,370.51l83.1-5.75s12.15,9.48,22.56-.74l83.1,5.75"/><line class="h" x1="88.37" y1="332.67" x2="87.03" y2="346.01"/><path class="c" d="M415.41,359.84H261.78s-26.41-25.65-1.48-59.56H413.93"/><polyline class="k" points="410.98 349.83 264.35 349.44 263.77 312.38 409.49 311.44"/><line class="k" x1="264.2" y1="331.54" x2="403.06" y2="330.98"/><line class="k" x1="264.02" y1="321.65" x2="406.31" y2="321.64"/><line class="k" x1="264.88" y1="340.55" x2="407.17" y2="340.53"/><polyline class="k" points="421.76 281.15 276.16 281.31 274.97 244.72 420.23 242.99"/><line class="k" x1="274.62" y1="263.54" x2="413.48" y2="262.43"/><line class="k" x1="274.39" y1="253.65" x2="416.68" y2="253.07"/><line class="k" x1="275.34" y1="272.54" x2="417.63" y2="271.96"/><line class="k" x1="259.44" y1="198.52" x2="370.43" y2="197.49"/><line class="k" x1="259.72" y1="206.54" x2="373.44" y2="206"/><line class="k" x1="259.72" y1="189.54" x2="373.44" y2="189"/><line class="h" x1="89.79" y1="316.43" x2="94.43" y2="275.71"/><path class="k" d="M74.85,220.82S60.11,312.64,58.4,315.07"/><path class="k" d="M184.89,220.8s12,53.31,25.93,78.16"/><path class="k" d="M44.14,315.07s28.47-6.86,82.37,26.79"/><path class="l" d="M131.75,296.54a13.18,13.18,0,0,1,6,8.82,14.62,14.62,0,0,1,.24,2,8.14,8.14,0,0,1-6.9,8.34,14.31,14.31,0,0,0-3.7,1.19,40.07,40.07,0,0,0-7.35,5,56.07,56.07,0,0,1-10.85,7,24.78,24.78,0,0,1-12.56,2.49,9.92,9.92,0,0,0-2.38-.08A28.93,28.93,0,0,0,91,332.44c-2,.54-4.07-0.05-6.08.23-2.53.36-4.73,2.07-7.41,1.92a4,4,0,0,1-1.94-.62,1.64,1.64,0,0,1-.6-0.61c-0.42-.83.28-1.77,0.94-2.42,2.29-2.25,4.77-4.31,7-6.58,7.9-7.88,13.22-18.05,21.19-25.86a9.84,9.84,0,0,1,4.16-2.77,10.81,10.81,0,0,1,3.32-.17l20.9,1.1"/><path class="k" d="M82.11,333.51S96,325.58,99.77,320.25"/><path class="k" d="M94.27,331.31s8.77-2.46,14.62-9.23"/><path class="k" d="M129,296.49s74-14.93,113.08,19.94"/><path class="k" d="M134.2,314.49s55.58,28.34,72.44,31.52"/><polyline class="k" points="376.49 214.77 259.45 214.95 259.42 181.15 376.21 180"/><path class="m" d="M257,177s20.8,17.43.43,40"/><path class="m" d="M272,239.6s20.8,19.55.43,44.86"/><path class="m" d="M261,307.45s20.8,18.81.43,43.16"/></svg>