<?xml version="1.0" encoding="utf-8"?>
<!-- Generator: Adobe Illustrator 19.2.0, SVG Export Plug-In . SVG Version: 6.00 Build 0)  -->
<!DOCTYPE svg PUBLIC "-//W3C//DTD SVG 1.1//EN" "http://www.w3.org/Graphics/SVG/1.1/DTD/svg11.dtd">
<svg version="1.1" id="Layer_1" xmlns="http://www.w3.org/2000/svg" xmlns:xlink="http://www.w3.org/1999/xlink" x="0px" y="0px"
	 viewBox="0 0 430 385" style="enable-background:new 0 0 430 385;" xml:space="preserve">
<style type="text/css">
	.st0{display:none;}
	.st1{fill:#FFFFFF;}
	.st2{fill:#005352;}
	.st3{fill:#FDC46E;}
</style>
<g id="sketches" class="st0">
</g>
<g id="books">
</g>
<g>
	<path class="st1" d="M170.6,122.1c-0.1-0.4-0.2-0.8-0.3-1.3l-39,21.9L170.6,122.1z"/>
	<path class="st1" d="M171.4,125L123,150.5l49.5-22.3C172.1,127.3,171.8,126.2,171.4,125z"/>
	<path class="st1" d="M173.6,131l-42.3,19l43-17.3C174.2,132.2,173.9,131.7,173.6,131z"/>
	<path class="st1" d="M272,93.5l-0.8-6.4l-11.1,5c0.3,2.8,0.7,4.7,1,5.8L272,93.5z"/>
	<polygon class="st1" points="175.9,135.4 175.9,135.4 135.4,151.6 285.1,99.8 284.1,91.9 191.2,129.2 	"/>
	<path class="st1" d="M297.4,107.8l-170,53.9h0c-0.4-0.8-1.2-1.4-2.3-1.4c-0.1,0-0.3,0-0.4,0c-14.6,3-23.2,0.4-28.2-2.8l72.5-42.5
		c0.2,0.9,0.3,1.8,0.5,2.7l-62.5,35.1c-0.5,0.3-0.8,1-0.7,1.6c0.1,0.6,0.6,1.1,1.2,1.2l11.9,1.7l1,0.2l2.2,0.3
		c0.5,0.1,1.1,0.1,1.6,0.1c1.2,0,2.4-0.2,3.5-0.6L287,102.3l0,0c0.2,0,0.3-0.1,0.5-0.2l0,0l8.9-3.1L297.4,107.8z"/>
	<path class="st2" d="M287,102.3c0.2,0,0.3-0.1,0.5-0.2L287,102.3z"/>
	<path class="st2" d="M299.2,96.8c0-0.5-0.3-0.9-0.7-1.1c-0.4-0.2-0.9-0.3-1.3-0.1l-9.2,3.2l-1.2-9.2c-0.1-0.5-0.3-0.9-0.7-1.1
		c-0.4-0.2-0.9-0.3-1.3-0.1l-9.9,4l0,0.2l-0.1-0.2l0.1,0l-1-7.7c-0.1-0.5-0.3-0.9-0.8-1.1c-0.4-0.2-0.9-0.2-1.3-0.1l-12,5.4
		c-0.7-13.2,1.4-39.8,18.8-85c0.3-0.9,0.2-1.9-0.5-2.6c-0.6-0.7-1.6-1-2.5-0.8l-88.7,22.7c-0.7,0.2-1.4,0.7-1.7,1.4
		c-9.2,20.7-19.7,51.7-17.2,81.8c0.1,1.5,0.3,2.9,0.4,4.2c0,0.4,0.1,0.9,0.2,1.3c0.1,1,0.3,2,0.5,3c0.2,0.9,0.3,1.8,0.5,2.7
		l-62.5,35.1c-0.5,0.3-0.8,1-0.7,1.6c0.1,0.6,0.6,1.1,1.2,1.2l11.9,1.7l1,0.2l2.2,0.3c0.5,0.1,1.1,0.1,1.6,0.1
		c1.2,0,2.4-0.2,3.5-0.6L287,102.3l0,0l0.5-0.2l0,0l8.9-3.1l1,8.8l0.9-0.3l2-0.6L299.2,96.8z M271.2,87.1l0.8,6.4L261,98
		c-0.3-1.2-0.7-3.1-1-5.8L271.2,87.1z M187.9,26.2l87.6-22.4c-17.8,46.4-19.6,73.3-18.6,86.5c0.1,1.2,0.2,2.2,0.3,3.2
		c0.3,2.6,0.7,4.5,1,5.6l-77.6,31.2l-3.4,1.4c-0.2-0.5-0.5-1.1-0.8-1.8c-0.3-0.8-0.7-1.7-1.1-2.8c-0.7-2-1.5-4.6-2.2-7.7
		c-0.2-1-0.4-2-0.6-3.1c-0.2-0.9-0.3-1.8-0.5-2.8c-0.1-1-0.3-2-0.4-3c-0.1-0.4-0.1-0.8-0.1-1.3C169.4,91.4,171.2,63.7,187.9,26.2z
		 M170.3,120.8c0.1,0.4,0.2,0.9,0.3,1.3l-39.3,20.6L170.3,120.8z M123,150.5l48.5-25.4c0.3,1.2,0.7,2.2,1,3.2L123,150.5z M173.6,131
		c0.3,0.7,0.6,1.2,0.8,1.7l-43,17.3L173.6,131z M135.4,151.6l40.5-16.3l15.3-6.1l92.9-37.3l1.1,7.9L135.4,151.6z"/>
	<polygon class="st2" points="274.9,92.6 274.8,92.4 274.8,92.4 	"/>
	<path class="st3" d="M91.8,155.7c0,0-0.1,0.1-0.1,0.1c0,0,0,0,0,0C91.7,155.8,91.8,155.8,91.8,155.7z"/>
	<path class="st3" d="M91,157.5l0.1,0.8l0,0c-0.4-0.8-0.2-1.8,0.4-2.4C91.1,156.4,91,157,91,157.5z"/>
	<path class="st3" d="M169.1,115.1l-72.5,42.5c-0.7-0.4-1.3-0.9-1.8-1.3c0,0-0.1-0.1-0.2-0.1c-0.2-0.2-0.3-0.3-0.5-0.4
		c-0.6-0.4-1.4-0.5-2-0.2l0.1-0.1l76.2-44.6c0,0.4,0.1,0.9,0.2,1.3C168.8,113.1,168.9,114.1,169.1,115.1z"/>
	<path class="st1" d="M171.5,110.4c0.1,1,0.3,2.1,0.4,3c0.2,1,0.3,1.9,0.5,2.8c0.2,1.1,0.4,2.1,0.6,3.1c0.7,3.1,1.5,5.7,2.2,7.7
		c0.4,1.1,0.8,2,1.1,2.8c0.3,0.8,0.6,1.4,0.8,1.8l3.4-1.4L258.2,99c-0.3-1.1-0.7-3-1-5.6c-0.1-1-0.2-2-0.3-3.2
		c-0.9-13.2,0.9-40.1,18.6-86.5l-87.6,22.4c-16.7,37.5-18.5,65.2-16.5,82.9C171.4,109.5,171.4,110,171.5,110.4z M188.5,77.3l4.7-0.8
		c0-0.2,0.1-0.4,0.1-0.6c0.4-1.8,0.9-3.6,1.6-5.2c0.5-1.2,1.9-1.8,3.2-1.3l0.3,0.1c1.3,0.5,1.9,2,1.4,3.4c-0.3,0.8-0.7,1.7-0.9,2.7
		l15.6-2.6l0-0.2c0.4-2,0.9-3.8,1.7-5.3s1.8-2.8,3.1-3.7c1.3-0.9,3-1.6,5.1-1.9c2.2-0.4,4.2-0.2,5.9,0.4c1.8,0.6,3.3,1.5,4.6,2.9
		c1.1,1.1,2,2.4,2.8,4l4.1-0.7c1.3-0.2,2.5,0.7,2.8,2c0.2,1.3-0.7,2.5-1.9,2.7l-3.4,0.6c0.2,0.9,0.4,1.9,0.6,2.8
		c0.2,1.2,0.3,2.5,0.4,3.7l3.4-0.6c1.3-0.1,2.4,0.3,2.6,1.6s-0.7,2.1-2,2.3l-4,0.7c-0.1,0.9-0.2,1.8-0.3,2.6c-0.4,2.6-1.2,5-2.3,7.4
		c-0.6,1.2-1.9,1.7-3.1,1.3l-0.5-0.2c-1.4-0.5-2-2.1-1.4-3.4c0.1-0.2,0.2-0.4,0.3-0.7c0.6-1.2,1-2.6,1.4-4.1c0.1-0.7,0.3-1.3,0.4-2
		l-1.3,0.2l-8.6,1.4l-5.9,1c-0.1,0.4-0.2,0.8-0.2,1.2c-0.1,0.5-0.2,1-0.3,1.4c-0.3,1.3-0.8,2.4-1.3,3.4c-0.2,0.4-0.5,0.8-0.8,1.2
		c0,0,0,0,0,0c-0.6,0.8-1.3,1.4-2.1,2c-1.2,0.8-2.6,1.4-4.4,1.7c0,0,0,0,0,0c0,0,0,0-0.1,0c-2.1,0.4-4,0.3-5.7-0.2
		c-0.1,0-0.2-0.1-0.3-0.1c-1.2-0.3-2.3-0.9-3.4-1.6c-0.5-0.3-1-0.7-1.4-1.1c-0.6-0.5-1.1-1.1-1.6-1.8h0c-0.6-0.7-1.1-1.5-1.6-2.4
		l-4.6,0.8c-1.3,0.2-2.4-0.2-2.6-1.5c-0.2-1.3,0.7-2.1,2-2.3l3.7-0.6c-0.3-1.1-0.6-2.2-0.8-3.4c-0.2-1.1-0.3-2.1-0.3-3.1l-3.7,0.6
		c-1.3,0.2-2.5-0.7-2.7-2C186.4,78.7,187.3,77.5,188.5,77.3z"/>
	<path class="st1" d="M203.5,90.3l-2.3,0.4c0.2,0.2,0.4,0.4,0.6,0.6c0,0,0,0,0,0c1.4,1.2,3,1.8,4.9,1.7c0.3,0,0.7,0,1-0.1
		c1.2-0.2,2.2-0.6,3-1.2c0.5-0.5,1-1.1,1.4-1.8h0c0.1-0.2,0.2-0.5,0.3-0.8c0-0.1,0.1-0.2,0.1-0.3L203.5,90.3L203.5,90.3z"/>
	<path class="st1" d="M231.7,69.9c-1.5-1.6-3.4-2.2-5.7-1.9c-1.3,0.2-2.3,0.7-3.1,1.4c-0.7,0.6-1.3,1.5-1.7,2.5l10.7-1.8
		C231.8,70,231.8,70,231.7,69.9z"/>
	<path class="st1" d="M199.3,87l13.5-2.2l0,0l0.6-0.3c0.2-1.4,0.3-3.1,0.4-5c0-0.5,0-1,0.1-1.5l-15.6,2.6c0,1.1,0.1,2.2,0.2,3.3
		C198.7,85,199,86.1,199.3,87z"/>
	<path class="st1" d="M213.3,84.7c0-0.1,0-0.2,0-0.2l-0.6,0.3L213.3,84.7z"/>
	<path class="st1" d="M223.8,83l11.2-1.8c0-1.3-0.1-2.6-0.3-3.9c-0.1-0.9-0.3-1.8-0.5-2.6L220,77c-0.1,1.2-0.3,2.5-0.4,3.9
		c0,0.6-0.1,1.2-0.2,1.8c0,0.4-0.1,0.8-0.1,1.1L223.8,83L223.8,83z"/>
	<polygon class="st2" points="191.2,129.2 175.9,135.4 175.9,135.4 	"/>
	<path class="st3" d="M341.1,335.8c0,0.5-0.3,1.1-0.9,1.2L156,377.8l-27.3-208.1l-0.9-7.1c0-0.3-0.1-0.6-0.2-0.8h0l170-53.9l0.9-0.3
		l2-0.6l11-3.5c0.7-0.3,1.4,0.2,1.5,0.9L341.1,335.8z"/>
	<path class="st2" d="M92.2,155.5l-0.3,0.2c0,0-0.1,0-0.1,0.1c0.1,0,0.1-0.1,0.2-0.2C92.1,155.5,92.1,155.5,92.2,155.5z"/>
	<path class="st2" d="M156,377.9l0-0.2l-27.3-208.1l-0.9-7.1c0-0.3-0.1-0.6-0.2-0.8c-0.4-0.8-1.2-1.4-2.3-1.4c-0.1,0-0.3,0-0.4,0
		c-14.6,3-23.2,0.4-28.2-2.8c-0.7-0.4-1.3-0.9-1.8-1.3c0,0-0.1-0.1-0.2-0.1c-0.2-0.2-0.3-0.3-0.5-0.4c-0.6-0.4-1.4-0.5-2-0.2
		l-0.3,0.2c0,0-0.1,0-0.1,0.1c0,0-0.1,0.1-0.1,0.1c0,0,0,0,0,0c0,0-0.1,0.1-0.1,0.1c0,0,0,0,0,0c-0.4,0.4-0.6,1-0.5,1.6l0.1,0.8
		l27.8,220.1c0.1,0.6,0.4,1.1,0.9,1.4c6.4,4.4,12.4,5.8,17.7,5.8c10.5,0,17.7-5.8,17.8-5.9C155.8,379.3,156.1,378.6,156,377.9z
		 M122.8,377L95.6,161.6c4.4,2.6,9.8,3.9,16.1,4.1c0,0,0,0,0,0h0c0,0,0,0,0,0s0,0,0,0c0,0,0,0,0,0h0c3.7,0.1,7.8-0.3,12.2-1.1
		l0.9,6.5l27.1,206.2C148.6,379.5,136.8,386.1,122.8,377z"/>
	<path class="st1" d="M151.9,377.3c-3.2,2.2-15.1,8.8-29.1-0.2L95.6,161.6c4.4,2.6,9.8,3.9,16.1,4.1h0c0,0,0,0,0,0h0
		c3.7,0.1,7.8-0.3,12.2-1.1l0.9,6.5L151.9,377.3z"/>
	<path class="st2" d="M111.7,165.7L111.7,165.7C111.7,165.7,111.7,165.7,111.7,165.7L111.7,165.7
		C111.7,165.7,111.7,165.7,111.7,165.7z"/>
	<path class="st2" d="M111.7,165.7C111.7,165.7,111.7,165.7,111.7,165.7C111.7,165.7,111.7,165.7,111.7,165.7
		C111.7,165.7,111.7,165.7,111.7,165.7z"/>
	<path class="st3" d="M189.3,82l3.7-0.6c0,1,0.2,2,0.3,3.1c0.2,1.2,0.5,2.3,0.8,3.4l-3.7,0.6c-1.3,0.2-2.2,1-2,2.3
		c0.2,1.3,1.3,1.7,2.6,1.5l4.6-0.8c0.5,0.9,1,1.7,1.6,2.4h0c0.5,0.6,1,1.2,1.6,1.8c0.5,0.4,0.9,0.8,1.4,1.1c1,0.7,2.2,1.2,3.4,1.6
		c0.1,0,0.2,0.1,0.3,0.1c1.7,0.5,3.6,0.6,5.7,0.2c0,0,0,0,0.1,0c0,0,0,0,0,0c1.8-0.3,3.2-0.9,4.4-1.7c0.8-0.5,1.5-1.2,2.1-2
		c0,0,0,0,0,0c0.3-0.4,0.6-0.8,0.8-1.2c0.5-1,0.9-2.1,1.3-3.4c0.1-0.4,0.2-0.9,0.3-1.4c0.1-0.4,0.2-0.8,0.2-1.2l5.9-1l8.6-1.4
		l1.3-0.2c-0.1,0.7-0.2,1.4-0.4,2c-0.4,1.5-0.8,2.9-1.4,4.1c-0.1,0.3-0.2,0.5-0.3,0.7c-0.6,1.3,0,2.9,1.4,3.4l0.5,0.2
		c1.2,0.4,2.5-0.1,3.1-1.3c1.1-2.4,1.9-4.8,2.3-7.4c0.2-0.9,0.3-1.8,0.3-2.6l4-0.7c1.3-0.2,2.2-1,2-2.3s-1.3-1.7-2.6-1.6l-3.4,0.6
		c0-1.2-0.2-2.4-0.4-3.7c-0.2-1-0.4-1.9-0.6-2.8l3.4-0.6c1.2-0.2,2.1-1.4,1.9-2.7c-0.3-1.3-1.5-2.2-2.8-2l-4.1,0.7
		c-0.8-1.6-1.7-2.9-2.8-4c-1.3-1.4-2.8-2.3-4.6-2.9c-1.7-0.6-3.7-0.8-5.9-0.4c-2.1,0.3-3.8,1-5.1,1.9c-1.3,0.9-2.3,2.2-3.1,3.7
		s-1.3,3.3-1.7,5.3l0,0.2l-15.6,2.6c0.2-1,0.6-1.8,0.9-2.7c0.5-1.4-0.1-2.9-1.4-3.4l-0.3-0.1c-1.3-0.5-2.7,0.1-3.2,1.3
		c-0.7,1.6-1.2,3.4-1.6,5.2c0,0.2-0.1,0.4-0.1,0.6l-4.7,0.8c-1.2,0.2-2.1,1.4-1.9,2.7C186.8,81.3,188,82.2,189.3,82z M222.9,69.4
		c0.8-0.7,1.8-1.2,3.1-1.4c2.3-0.3,4.2,0.3,5.7,1.9c0.1,0.1,0.1,0.1,0.2,0.2l-10.7,1.8C221.6,70.9,222.2,70,222.9,69.4z M219.4,82.6
		c0.1-0.6,0.1-1.2,0.2-1.8c0.1-1.4,0.3-2.7,0.4-3.9l14.2-2.3c0.2,0.8,0.4,1.7,0.5,2.6c0.2,1.3,0.3,2.6,0.3,3.9L223.8,83l0,0
		l-4.5,0.7C219.3,83.4,219.4,83,219.4,82.6z M212.4,89.1c-0.1,0.3-0.2,0.5-0.3,0.8h0c-0.4,0.8-0.8,1.4-1.4,1.8c-0.8,0.6-1.8,1-3,1.2
		c-0.3,0.1-0.7,0.1-1,0.1c-1.9,0.1-3.5-0.5-4.9-1.7c0,0,0,0,0,0c-0.2-0.2-0.4-0.4-0.6-0.6l2.3-0.4l0,0l9-1.5
		C212.5,88.9,212.4,89,212.4,89.1z M213.9,78c0,0.5-0.1,1-0.1,1.5c-0.2,1.9-0.3,3.5-0.4,5c0,0.1,0,0.2,0,0.2l-0.6,0.1l0,0L199.3,87
		c-0.3-1-0.6-2-0.8-3.2c-0.2-1.1-0.3-2.2-0.2-3.3L213.9,78z"/>
</g>
<g id="Layer_5">
</g>
<g id="white">
</g>
<g id="blue_lines">
</g>
</svg>
