<?xml version="1.0" encoding="utf-8"?>
<!-- Generator: Adobe Illustrator 19.2.1, SVG Export Plug-In . SVG Version: 6.00 Build 0)  -->
<!DOCTYPE svg PUBLIC "-//W3C//DTD SVG 1.1//EN" "http://www.w3.org/Graphics/SVG/1.1/DTD/svg11.dtd">
<svg version="1.1" id="Layer_1" xmlns="http://www.w3.org/2000/svg" xmlns:xlink="http://www.w3.org/1999/xlink" x="0px" y="0px"
	 width="149.4px" height="157.7px" viewBox="0 0 149.4 157.7" style="enable-background:new 0 0 149.4 157.7;" xml:space="preserve"
	>
<style type="text/css">
	.st0{fill:#FFFFFF;}
	.st1{fill:#231F20;}
</style>
<path class="st0" d="M37.2,151.5c0,1.4-1.2,2.1-2.4,2c1,0,1.9-0.6,2.3-1.7C37.2,151.7,37.2,151.6,37.2,151.5z"/>
<path class="st0" d="M34.8,153.5c-1.4,0-2.8-1-2.6-2.6c0,0.1,0,0.1,0,0.2C32.4,152.6,33.6,153.4,34.8,153.5z"/>
<path class="st0" d="M46.6,108.4c-0.9-0.2-1.9,0-2.5,0.6C44.7,108.3,45.7,108.1,46.6,108.4z"/>
<path class="st0" d="M43.9,109.3c-0.1,0.2-0.2,0.5-0.3,0.8c0,0.1,0,0.2-0.1,0.4C43.5,110,43.7,109.6,43.9,109.3z"/>
<path class="st0" d="M65.7,96.9c-2,19.5-4.7,38.9-7.1,58.4c-0.1,0.7-0.4,1.2-0.8,1.5c0,0,0,0,0,0c-1.1,1.2-3.7,1.3-4.6-0.8
	c-4-9.8-6.7-20-8.3-30.3c-2.3,8.7-4.8,17.2-7.7,25.7v0c0,0.1-0.1,0.2-0.1,0.3c-0.4,1.1-1.3,1.7-2.3,1.7h-0.1
	c-1.2-0.1-2.4-0.9-2.5-2.4c0-0.1,0-0.1,0-0.2v0c0,0,0,0,0,0c-2-17.2-3.4-34.4-4.2-51.6c-2.8,3.1-6.6,4.5-11.3,1.5
	c-2.7-1.7-0.2-6.1,2.5-4.3c5.4,3.5,7.9-4.1,8.4-8c0.4-3.1,4.9-3.3,5,0c0.5,17,1.6,33.9,3.3,50.8c2.9-9.5,5.4-19.2,7.6-28.9
	c0-0.1,0.1-0.2,0.1-0.4c0.1-0.3,0.2-0.6,0.3-0.8c0-0.1,0.1-0.1,0.2-0.2c0.6-0.7,1.6-0.9,2.5-0.6c0.1,0,0.1,0,0.2,0.1
	c0.9,0.3,1.6,1,1.7,2.3c0.5,12,2.7,23.7,6.3,35c2.1-16.2,4.2-32.5,5.9-48.8C61,93.8,66,93.7,65.7,96.9z"/>
<path class="st0" d="M88,70.2C87.9,70.3,87.9,70.3,88,70.2C87.9,70.3,87.9,70.3,88,70.2C88,70.2,88,70.2,88,70.2z"/>
<path class="st0" d="M92.3,71.9L92.3,71.9c0,1-0.2,2-0.4,3c0.1-0.8,0.2-1.6,0.3-2.3c0.3-1.6-0.9-2.8-2.2-3.1
	c1.1,0.1,2.1,0.8,2.2,2.1C92.3,71.7,92.3,71.8,92.3,71.9z"/>
<path class="st0" d="M87.3,71.7c0,0,0,0.1,0,0.2L87.3,71.7C87.3,71.7,87.3,71.7,87.3,71.7z"/>
<path class="st0" d="M87.5,71c0,0,0,0.1,0,0.1c0,0.1,0,0.1-0.1,0.2c0,0,0,0,0-0.1C87.4,71.1,87.4,71.1,87.5,71
	C87.5,71,87.5,71,87.5,71z"/>
<path class="st0" d="M88,70.2C87.9,70.3,87.9,70.3,88,70.2C87.9,70.3,87.9,70.3,88,70.2C88,70.2,88,70.2,88,70.2z"/>
<path class="st0" d="M88.1,70.1L88.1,70.1C88.1,70.1,88.1,70.1,88.1,70.1C88.1,70.1,88.1,70.1,88.1,70.1z"/>
<path class="st0" d="M92.3,71.9L92.3,71.9c0,1-0.2,2-0.4,3c0.1-0.8,0.2-1.6,0.3-2.3c0.3-1.6-0.9-2.8-2.2-3.1
	c1.1,0.1,2.1,0.8,2.2,2.1C92.3,71.7,92.3,71.8,92.3,71.9z"/>
<path class="st0" d="M149.2,119.4c-5.6,11.5-20.5,8.9-27.2,0.1c-4.5-5.8-5.7-13.1-6.2-20.3c-0.2-3-0.4-6-0.5-9
	c-2.4,9-5,17.9-7.9,26.8c-0.6,1.8-2.6,2.1-3.9,1.3c-0.6-0.2-1.1-0.7-1.4-1.5c-2.7-7.8-5.4-15.5-8.2-23.2c-0.7-2-1.6-4.2-2.5-6.4
	c0,1.5,0,3.1,0,4.6c-0.2,11-0.5,22.1-0.7,33.1c-0.1,3.2-5.1,3.2-5,0c0.3-11.7,0.5-23.4,0.8-35c0-1.9,0.1-3.9,0.1-5.8
	c-3,2.8-6.9,4.3-11,3c-3.1-1-1.7-5.8,1.3-4.8c4.9,1.5,9.2-4,10.3-8.5c0.1-0.6,0.2-1.2,0.3-1.8v0c0-0.1,0-0.1,0-0.2
	c0-0.1,0-0.3,0.1-0.4v0c0,0,0,0,0,0c0-0.1,0-0.1,0.1-0.2c0,0,0-0.1,0-0.1c0,0,0-0.1,0-0.1c0-0.1,0.1-0.2,0.2-0.3
	c0.1-0.1,0.1-0.1,0.2-0.2c0,0,0-0.1,0.1-0.1c0,0,0,0,0.1-0.1l0,0c0,0,0,0,0,0c0,0,0.1-0.1,0.1-0.1v0c0,0,0.1,0,0.1-0.1c0,0,0,0,0,0
	c0,0,0,0,0.1,0c0.1-0.1,0.2-0.1,0.3-0.2c0,0,0,0,0,0c0.2-0.1,0.4-0.2,0.6-0.2c0.1,0,0.1,0,0.2,0c0.1,0,0.2,0,0.3,0
	c0.1,0,0.2,0,0.4,0c0,0,0,0,0,0c1.3,0.3,2.4,1.4,2.2,3.1c-0.1,0.8-0.2,1.5-0.3,2.3c0.2-1,0.4-2,0.4-3c0,4,2.1,8.2,3.5,12
	c1.2,3.4,2.4,6.8,3.6,10.2c1.8,5,3.5,9.9,5.2,14.9c3.8-12.2,7.1-24.6,10-37.1c0.1-0.3,0.2-0.6,0.3-0.8c0.1-0.2,0.3-0.5,0.6-0.6
	c1.4-1.1,4.1-0.4,4.1,1.9c0.4,11.6-0.6,24.5,2.4,35.8c1.5,5.5,4.9,11.6,10.6,13.4c4.8,1.6,10-0.3,12.2-4.8
	C146.2,113.9,150.6,116.5,149.2,119.4z"/>
<path class="st0" d="M87.3,71.7c0,0,0,0.1,0,0.2v0c0,0.6-0.1,1.2-0.3,1.8C87.1,73.1,87.2,72.4,87.3,71.7
	C87.3,71.7,87.3,71.7,87.3,71.7z"/>
<path class="st0" d="M90,69.5c-0.1,0-0.3,0-0.4,0c-0.1,0-0.2,0-0.3,0c-0.1,0-0.1,0-0.2,0c-0.2,0-0.4,0.1-0.6,0.2c0,0,0,0,0,0
	c-0.1,0.1-0.2,0.1-0.3,0.2c0,0,0,0-0.1,0c0,0,0,0,0,0c0,0-0.1,0-0.1,0.1v0c0,0,0,0,0,0c0,0,0,0-0.1,0.1c0,0,0,0,0,0l0,0
	c0,0,0,0-0.1,0.1c0,0,0,0-0.1,0.1c-0.1,0.1-0.1,0.1-0.2,0.2c-0.1,0.1-0.1,0.2-0.2,0.3c0,0,0,0,0,0.1c0,0,0,0.1,0,0.1
	c0,0.1,0,0.1-0.1,0.2c0,0,0,0,0-0.1c0-0.1,0-0.1,0-0.2C87.8,69.7,88.9,69.2,90,69.5z"/>
<path class="st1" d="M25.1,27.9c0-0.1-0.1-0.1-0.1-0.2c-0.5-1.3-1.6-1.8-2.7-1.7C23.6,25.8,24.9,26.5,25.1,27.9z"/>
<path class="st1" d="M88.8,7.5c-0.1-0.2-0.2-0.4-0.3-0.6c-0.1-0.2-0.2-0.3-0.3-0.5C88.5,6.7,88.7,7.1,88.8,7.5z"/>
<path class="st1" d="M21.8,26.1c-0.9,0.3-1.6,1.1-1.7,2.3c0,0.1,0,0.2,0,0.3C19.8,27.3,20.7,26.4,21.8,26.1z"/>
<path class="st0" d="M58.1,30.7c-3-1-1.7-5.8,1.3-4.8c2.9,1,4.6-2.5,2.8-4.7c-0.8-0.9-2.8-1.6-4-1.6c-3.2,0-5.7,3.3-7.2,5.7
	c-3.1,5-3.8,11.1-4.1,16.9c-0.7,12.1,0,24.2,0.8,36.2c0.2,3.2-4.6,3.2-5,0.2c-6.3-12.7-13-25.4-18.4-38.5
	c-0.4,5.1-0.9,10.2-1.5,15.3c-0.9,7.4-1.2,15.9-4,22.9c-1.9,5-6.7,9.9-12.6,8.6c-4.7-1-7.5-5.9-5.9-10.3c1.1-3,5.9-1.7,4.8,1.3
	c-0.8,2.8,0.5,4.1,3.8,4c1.7-0.5,3-1.5,4-3c1.5-2,1.9-4.7,2.4-7c1-4.8,1.6-9.8,2.2-14.7c1.2-9.5,1.9-19,2.4-28.5c0-0.1,0-0.2,0-0.3
	c0.1-1.2,0.8-2,1.7-2.3c0.1,0,0.2-0.1,0.3-0.1c0.1,0,0.2,0,0.2,0c1.1-0.1,2.2,0.4,2.7,1.7c0,0.1,0,0.1,0.1,0.2
	c4.6,13.2,10.8,25.6,17,38.1c-0.4-8.2-0.6-16.5,0-24.7c0.5-8.6,2.3-18.6,9.6-24.2c5-3.9,13.6-2.9,16.2,3.6
	C70.1,26.4,63.8,32.5,58.1,30.7z"/>
<path class="st1" d="M88.2,6.4c-0.7-0.7-1.9-0.9-2.9-0.5C86.3,5.4,87.5,5.4,88.2,6.4z"/>
<path class="st0" d="M105.8,53.2c-1,0.4-2.1,0.2-2.7-0.9C103.7,53.1,104.9,53.4,105.8,53.2z"/>
<path class="st0" d="M125.9,8.2c-2.4-6.6-10.1-2.3-12.9,1.3c-2.8,3.6-4,8.1-4.6,12.6c-1.2,9.4-0.8,19.3-0.7,28.8
	c0,1.3-0.8,2.1-1.8,2.3c0,0,0,0,0,0c-1,0.2-2.1-0.1-2.7-0.9c0,0-0.1-0.1-0.1-0.1c0,0,0-0.1-0.1-0.1c-0.1-0.2-0.1-0.3-0.2-0.5
	c0,0,0,0,0,0c-5.2-10.9-9.7-22.2-14.5-33.2c-0.4,5.6-1,11.1-1.6,16.6c-0.9,7.5-1.3,16-4.1,23c-2,4.9-6.8,9.7-12.6,8.5
	c-4.7-1-7.6-5.9-6-10.4c1.1-3,5.9-1.7,4.8,1.3c-0.8,2.8,0.5,4.2,3.9,4.2c1.7-0.5,3.1-1.5,4.1-3.1c1.5-2.1,2-4.7,2.5-7.2
	c1-4.7,1.6-9.5,2.2-14.3c1.2-9.5,2-19.2,2.5-28.8c0-1.1,0.7-1.8,1.5-2.2c0,0,0,0,0,0c1-0.4,2.2-0.2,2.9,0.5c0.1,0.1,0.2,0.3,0.3,0.5
	c0.1,0.2,0.2,0.4,0.3,0.6C93.7,18,98,28.7,102.6,39.3c0-4.7,0.1-9.3,0.4-13.9c0.4-6.3,1.6-12.8,5.3-18c5.3-7.7,18.3-11.5,22.4-0.5
	C131.8,9.9,127,11.2,125.9,8.2z"/>
<path class="st0" d="M103,52.1c-0.1-0.1-0.2-0.3-0.2-0.5C102.9,51.8,102.9,52,103,52.1z"/>
</svg>
